<svg width="124" height="124" viewBox="0 0 124 124" fill="none" xmlns="http://www.w3.org/2000/svg">
<path d="M116.621 83.9771C116.621 83.9771 116.621 83.9271 116.621 83.8971V82.2571H115.561C115.491 82.2071 115.411 82.1571 115.331 82.1071L71.5806 56.8471C69.6606 55.7371 66.3106 55.8771 64.1006 57.1571L8.22061 89.6371C7.82061 89.8671 7.49061 90.1171 7.22061 90.3771H6.39062V94.1771C6.41062 94.8671 6.83062 95.5171 7.68062 96.0071L51.4306 121.267C53.3506 122.377 56.7006 122.237 58.9106 120.957L114.791 88.4771C115.961 87.7971 116.571 86.9471 116.611 86.1171V85.0871V83.9571L116.621 83.9771Z" fill="#D3F468"/>
<path d="M116.611 86.1171V85.087V83.957C116.611 83.927 116.611 83.9071 116.611 83.8771V82.2371H115.551C115.481 82.1871 115.401 82.137 115.321 82.087L99.0914 72.717C97.8514 72.747 96.9614 72.8171 96.5814 72.9371C94.2714 73.7071 57.0814 95.3271 56.3314 98.6071C55.5814 101.887 54.1914 118.327 54.1914 118.327V121.977C55.8014 122.067 57.5614 121.717 58.9114 120.937L114.791 88.457C115.961 87.777 116.571 86.927 116.611 86.097V86.1171Z" fill="#16110D"/>
<path d="M54.6817 122.407C53.3917 122.407 52.1617 122.147 51.2417 121.617L7.49171 96.3567C6.56171 95.8167 6.03172 95.0467 6.01172 94.2067V90.0068H7.08171C7.35171 89.7568 7.68172 89.5268 8.04172 89.3168L63.9217 56.8267C66.2317 55.4867 69.7617 55.3467 71.7817 56.5167L115.532 81.7767C115.582 81.8067 115.632 81.8368 115.682 81.8768H117.012V86.1367C116.962 87.1567 116.242 88.1067 114.992 88.8267L59.1117 121.307C57.8517 122.037 56.2317 122.407 54.6917 122.407H54.6817ZM6.78172 90.7767V94.1967C6.80172 94.7667 7.18171 95.2867 7.88171 95.6967L51.6317 120.957C53.4417 122.007 56.6217 121.857 58.7217 120.647L114.602 88.1667C115.602 87.5867 116.202 86.8468 116.232 86.1268V83.9567V82.6667H115.442L115.342 82.6067C115.242 82.5367 115.192 82.5067 115.142 82.4767L71.3917 57.2167C69.5817 56.1767 66.4017 56.3067 64.3017 57.5267L8.42172 90.0068C8.06172 90.2168 7.75172 90.4467 7.50172 90.6867L7.39172 90.7967H6.78172V90.7767Z" fill="#16110D"/>
<path d="M51.4291 117.616L7.67907 92.3565C5.75907 91.2465 5.99907 89.3165 8.21907 88.0365L64.0991 55.5565C66.3091 54.2765 69.6591 54.1365 71.5791 55.2465L115.329 80.5065C117.249 81.6165 117.009 83.5465 114.789 84.8265L58.9091 117.306C56.6991 118.586 53.3491 118.726 51.4291 117.616Z" fill="#D3F468"/>
<path d="M54.68 118.737C53.39 118.737 52.16 118.477 51.24 117.947L7.48999 92.6868C6.52999 92.1368 6 91.3467 6 90.4767C6 89.4567 6.73999 88.4467 8.01999 87.6967L63.9 55.2167C66.22 53.8867 69.74 53.7467 71.76 54.9067L115.51 80.1667C116.47 80.7167 117 81.5068 117 82.3768C117 83.3968 116.26 84.4067 114.98 85.1567L59.1 117.647C57.84 118.377 56.22 118.747 54.68 118.747V118.737ZM68.33 54.8768C66.93 54.8768 65.45 55.2167 64.29 55.8867L8.40999 88.3768C7.36999 88.9768 6.76999 89.7467 6.76999 90.4867C6.76999 91.0667 7.16 91.6167 7.87 92.0267L51.62 117.287C53.43 118.337 56.61 118.197 58.71 116.977L114.59 84.4867C115.63 83.8867 116.23 83.1168 116.23 82.3768C116.23 81.7968 115.84 81.2467 115.13 80.8367L71.38 55.5767C70.57 55.1067 69.47 54.8768 68.33 54.8768Z" fill="#151515"/>
<path d="M55.8284 112.707L12.8984 87.9167L67.1084 56.3967L110.038 81.1868L55.8284 112.707Z" fill="#151515"/>
<path d="M55.8289 113.147L55.6389 113.037L12.1289 87.9173L67.1089 55.9573L67.2989 56.0673L110.809 81.1873L55.8289 113.147ZM13.6689 87.9173L55.8289 112.257L109.269 81.1773L67.1089 56.8373L13.6689 87.9173Z" fill="#151515"/>
<path d="M64.9584 83.507C63.0684 82.417 60.0084 82.417 58.1284 83.507C56.2384 84.597 56.2384 86.3669 58.1284 87.4469C60.0184 88.5369 63.0784 88.5369 64.9584 87.4469C66.8484 86.3569 66.8484 84.587 64.9584 83.507Z" fill="#151515"/>
<path d="M72.4003 78.4566C66.3203 74.9466 56.7803 74.9366 50.6903 78.4566C47.5503 80.2666 45.8203 82.7566 45.8203 85.4666C45.8203 88.1766 47.5503 90.6666 50.6903 92.4766C53.7303 94.2366 57.6403 95.1166 61.5403 95.1166C65.4403 95.1166 69.3503 94.2366 72.4003 92.4766C75.5403 90.6666 77.2803 88.1666 77.2703 85.4666C77.2703 82.7566 75.5403 80.2666 72.4003 78.4566ZM71.1103 90.2466C65.8403 93.2866 57.2603 93.2866 51.9803 90.2466C49.6703 88.9166 48.4003 87.2166 48.4003 85.4666C48.4003 83.7166 49.6703 82.0266 51.9803 80.6866C54.6203 79.1666 58.0803 78.4066 61.5403 78.4066C65.0003 78.4066 68.4703 79.1666 71.1003 80.6866C73.4103 82.0166 74.6803 83.7166 74.6803 85.4666C74.6803 87.2166 73.4103 88.9066 71.1003 90.2466H71.1103Z" fill="white"/>
<path d="M64.9584 80.9161C63.0684 79.8261 60.0084 79.8261 58.1284 80.9161C56.2384 82.0061 56.2384 83.7761 58.1284 84.8561C60.0184 85.9461 63.0784 85.9461 64.9584 84.8561C66.8484 83.7661 66.8484 81.9961 64.9584 80.9161Z" fill="#D3F468"/>
<path d="M72.4003 75.8765C66.3203 72.3665 56.7803 72.3565 50.6903 75.8765C47.5503 77.6865 45.8203 80.1764 45.8203 82.8864C45.8203 85.5964 47.5503 88.0864 50.6903 89.8964C53.7303 91.6564 57.6403 92.5365 61.5403 92.5365C65.4403 92.5365 69.3503 91.6564 72.4003 89.8964C75.5403 88.0864 77.2803 85.5864 77.2703 82.8864C77.2703 80.1764 75.5403 77.6865 72.4003 75.8765ZM71.1103 87.6665C65.8403 90.7065 57.2603 90.7065 51.9803 87.6665C49.6703 86.3365 48.4003 84.6364 48.4003 82.8864C48.4003 81.1364 49.6703 79.4465 51.9803 78.1065C54.6203 76.5865 58.0803 75.8264 61.5403 75.8264C65.0003 75.8264 68.4703 76.5865 71.1003 78.1065C73.4103 79.4365 74.6803 81.1364 74.6803 82.8864C74.6803 84.6364 73.4103 86.3265 71.1003 87.6665H71.1103Z" fill="#D3F468"/>
<path d="M59.5129 4.12625C49.3129 8.82625 40.1729 23.0462 39.3129 36.1962C38.9629 41.4562 40.0029 45.7162 42.0729 48.6162L56.7529 76.4662L63.7929 79.9062C64.4229 78.4662 74.7029 29.5562 75.1729 28.0862C76.2729 24.6462 83.7929 22.4862 83.8429 19.1362C84.0529 6.8862 69.4529 -0.453752 59.5129 4.12625ZM58.2229 35.5063C54.2129 37.5063 51.1329 35.0562 51.3829 30.0562C51.6329 25.1262 55.0329 19.6462 58.9529 17.7762C62.8329 15.9262 65.8229 18.2862 65.6729 23.0762C65.5229 27.9362 62.2029 33.5163 58.2229 35.5063Z" fill="#D3F468"/>
<path d="M60.7803 6.62621C50.5803 11.3262 41.4403 25.5462 40.5803 38.6962C40.4203 41.1962 40.5803 43.4462 41.0103 45.4562C52.6403 52.4562 61.3604 52.0462 70.4404 58.2362C73.2704 45.0962 76.2004 31.3462 76.4404 30.5762C77.5404 27.1362 83.1703 24.5662 83.2303 21.2162C83.4403 8.96617 70.7203 2.04621 60.7803 6.62621ZM59.4903 38.0062C55.4803 40.0062 52.4003 37.5562 52.6503 32.5562C52.9003 27.6262 56.3004 22.1462 60.2204 20.2762C64.1004 18.4262 67.0904 20.7862 66.9404 25.5762C66.7904 30.4362 63.4703 36.0162 59.4903 38.0062Z" fill="white"/>
<path d="M64.1711 80.9466L56.1811 77.0467L56.0611 76.8266L41.3811 48.9767C39.1911 45.9067 38.1911 41.4467 38.5411 36.1567C39.4111 22.9567 48.6711 8.27669 59.1911 3.43669C64.4811 0.996687 71.4011 1.70668 76.8311 5.24668C81.8711 8.53668 84.7111 13.6067 84.6211 19.1567C84.5811 21.3167 82.2611 22.9067 80.0211 24.4367C78.2211 25.6667 76.3511 26.9466 75.9111 28.3266C75.7311 28.9066 73.8111 37.8367 71.7811 47.2867C67.7611 66.0267 64.8811 79.3667 64.5011 80.2167L64.1711 80.9566V80.9466ZM57.3111 75.8767L63.2911 78.7967C64.2411 74.9867 67.6711 58.9666 70.2511 46.9566C72.7111 35.5066 74.2311 28.4567 74.4211 27.8467C75.0211 25.9667 77.1111 24.5367 79.1311 23.1567C81.0511 21.8467 83.0311 20.4867 83.0611 19.1267C83.1411 14.1167 80.5611 9.52666 75.9711 6.53666C70.9811 3.28666 64.6511 2.61665 59.8311 4.83665C49.7711 9.46665 40.9111 23.5667 40.0811 36.2567C39.7511 41.1867 40.6611 45.3067 42.7011 48.1667L57.3211 75.8767H57.3111ZM55.5511 36.9867C54.6411 36.9867 53.7911 36.7466 53.0511 36.2666C51.3511 35.1566 50.4611 32.8867 50.6011 30.0267C50.8611 24.7867 54.3811 19.0966 58.6111 17.0866C60.6011 16.1367 62.5111 16.1467 63.9811 17.1067C65.6311 18.1867 66.5311 20.3767 66.4411 23.1167C66.2811 28.2467 62.7411 34.1267 58.5611 36.2167C57.5211 36.7367 56.5011 36.9967 55.5511 36.9967V36.9867ZM61.4611 17.9267C60.7911 17.9267 60.0411 18.1067 59.2711 18.4767C55.5711 20.2367 52.3811 25.4567 52.1411 30.0967C52.0211 32.3867 52.6611 34.1566 53.8911 34.9566C54.9211 35.6266 56.3311 35.5767 57.8611 34.8067C61.5811 32.9467 64.7311 27.6667 64.8811 23.0467C64.9511 20.8667 64.3111 19.1566 63.1211 18.3866C62.6411 18.0766 62.0811 17.9167 61.4611 17.9167V17.9267Z" fill="#16110D"/>
<path d="M84.002 21.2373C84.212 8.98729 76.492 2.9873 66.552 7.5673C56.352 12.2673 47.212 26.4872 46.352 39.6372C46.002 44.8972 47.042 49.1573 49.112 52.0573L63.792 79.9073L80.552 35.8973C81.182 34.4573 81.742 32.9973 82.212 31.5273C83.312 28.0873 83.952 24.5973 84.002 21.2473V21.2373Z" fill="#151515"/>
<path d="M64.1701 80.947L63.2301 80.497L48.4201 52.417C46.2301 49.347 45.2301 44.887 45.5801 39.587C46.4501 26.387 55.7101 11.707 66.2301 6.86703C70.9401 4.69703 75.4201 4.73701 78.8401 6.96701C82.7901 9.53701 84.9001 14.617 84.7901 21.257C84.7301 24.617 84.1201 28.147 82.9601 31.767C82.4801 33.257 81.9101 34.757 81.2701 36.207L64.1901 80.957L64.1701 80.947ZM72.9001 6.80703C71.0201 6.80703 68.9701 7.28699 66.8701 8.26699C56.8101 12.897 47.9501 26.997 47.1201 39.687C46.8001 44.627 47.7001 48.747 49.7401 51.607L63.6801 78.027L79.8301 35.617C80.4701 34.177 81.0201 32.727 81.4801 31.287C82.5901 27.817 83.1801 24.427 83.2401 21.227C83.3401 15.227 81.4301 10.497 78.0001 8.25705C76.5201 7.29705 74.8001 6.80703 72.9201 6.80703H72.9001Z" fill="#151515"/>
<path d="M57.9806 37.977C57.9806 37.977 57.9806 37.937 57.9806 37.917C57.9806 37.337 58.4106 36.617 58.9106 36.327L59.2506 36.137C59.6906 35.887 60.0506 36.087 60.0506 36.597C60.0406 40.307 62.5006 42.077 65.7106 40.417C69.1406 38.637 71.9906 33.867 72.0006 29.947C72.0006 29.327 72.4406 28.587 72.9606 28.277L73.1406 28.177C73.6406 27.887 74.0606 28.117 74.0706 28.697C74.0706 28.717 74.0706 28.737 74.0706 28.757C74.0506 33.267 71.2406 38.627 67.5406 41.577L67.5206 47.077C67.5206 47.437 67.7706 47.577 68.0806 47.397L69.9306 46.337C70.4206 46.057 70.8206 46.287 70.8206 46.857C70.8206 47.427 70.4206 48.117 69.9206 48.397L67.5106 49.777L64.3106 51.607L61.9506 52.957C61.4606 53.237 61.0606 53.007 61.0606 52.437C61.0606 51.867 61.4606 51.177 61.9606 50.897L63.7606 49.867C64.0706 49.687 64.3206 49.257 64.3206 48.907L64.3406 43.377C60.6906 44.587 57.9606 42.437 57.9806 37.967V37.977Z" fill="white"/>
<path d="M65.3524 38.5572L65.9824 38.1971C68.3124 36.8571 70.2124 33.2571 70.2224 30.1571L70.2524 21.6272C70.2624 18.5272 68.3824 17.0871 66.0524 18.4271L65.4224 18.7871C63.0924 20.1271 61.1924 23.7271 61.1824 26.8271L61.1524 35.3571C61.1424 38.4571 63.0224 39.8972 65.3524 38.5572Z" fill="white"/>
<path d="M69.7892 48.787L61.8292 53.347C61.4492 53.557 61.0592 53.587 60.7592 53.407C60.4592 53.227 60.2792 52.8769 60.2792 52.4469C60.2792 51.7169 60.7592 50.887 61.3992 50.527L63.1992 49.497C63.3692 49.397 63.5392 49.107 63.5392 48.917L63.5592 43.977C61.9792 44.367 60.5192 44.1369 59.3992 43.3269C57.9692 42.2969 57.1992 40.397 57.1992 37.967V37.907C57.1992 37.167 57.7092 36.307 58.3592 35.937L58.6992 35.747C59.0492 35.547 59.4192 35.5269 59.7092 35.6969C59.9992 35.8669 60.1592 36.197 60.1592 36.597C60.1592 38.297 60.7192 39.627 61.6992 40.227C62.6092 40.787 63.8392 40.7069 65.1692 40.0169C68.4392 38.3269 71.2092 33.707 71.2192 29.927C71.2192 29.157 71.7392 28.2669 72.3992 27.8869L72.5792 27.787C72.9592 27.567 73.3592 27.547 73.6792 27.727C73.9892 27.907 74.1692 28.257 74.1692 28.757C74.1592 33.237 71.4092 38.687 67.6392 41.787V46.957L69.3592 45.967C69.7292 45.747 70.1292 45.727 70.4292 45.907C70.7392 46.087 70.9092 46.437 70.9092 46.867C70.9092 47.237 70.7892 47.627 70.5892 47.967C70.3892 48.307 70.1092 48.607 69.7892 48.787ZM66.9092 41.227C70.5792 38.297 73.2592 33.0569 73.2692 28.6969C73.2692 28.5569 73.2292 28.497 73.2192 28.497C73.2192 28.497 73.1392 28.487 73.0092 28.557L72.8292 28.657C72.4392 28.887 72.0892 29.477 72.0892 29.937C72.0692 34.067 69.1392 38.937 65.5592 40.797C63.9392 41.637 62.3992 41.697 61.2092 40.977C59.9392 40.197 59.2392 38.637 59.2392 36.587C59.2392 36.517 59.2292 36.477 59.2392 36.457C59.2192 36.457 59.1792 36.467 59.1192 36.507L58.7792 36.6969C58.4092 36.9069 58.0692 37.487 58.0692 37.927V37.9469V37.967C58.0692 40.097 58.7092 41.737 59.8992 42.607C60.9292 43.357 62.2992 43.4769 63.8492 42.957L64.4392 42.7669L64.4192 48.907C64.4192 49.417 64.0792 49.997 63.6392 50.257L61.8392 51.287C61.4792 51.487 61.1692 52.0369 61.1692 52.4469C61.1692 52.5769 61.1992 52.6269 61.2092 52.6369C61.2192 52.6369 61.2892 52.6369 61.3992 52.5769L69.3592 48.0169C69.7192 47.8169 70.0292 47.277 70.0292 46.857C70.0292 46.727 69.9992 46.677 69.9892 46.667C69.9792 46.667 69.9092 46.667 69.7992 46.727L67.9492 47.787C67.6592 47.957 67.3592 47.9669 67.1092 47.8269C66.8592 47.6869 66.7292 47.4169 66.7292 47.0769L66.7492 41.357L66.9192 41.227H66.9092Z" fill="#D3F468"/>
<path d="M66.168 38.427L65.538 38.787C64.378 39.447 63.238 39.527 62.338 38.997C61.268 38.377 60.668 36.9969 60.668 35.1969L60.698 26.667C60.708 23.427 62.708 19.647 65.168 18.247L65.798 17.8869C66.958 17.2269 68.098 17.147 68.998 17.677C70.058 18.297 70.668 19.687 70.658 21.477L70.628 30.007C70.628 31.777 70.028 33.697 69.088 35.317C68.308 36.667 67.278 37.797 66.168 38.437V38.427ZM61.588 26.677L61.558 35.207C61.558 36.677 61.998 37.777 62.778 38.237C63.398 38.597 64.218 38.517 65.098 38.027L65.728 37.667C67.938 36.407 69.738 32.967 69.748 30.007L69.778 21.477C69.778 20.007 69.338 18.9069 68.558 18.4469C67.938 18.0869 67.118 18.157 66.238 18.657L65.608 19.017C64.618 19.587 63.698 20.597 62.998 21.807C62.138 23.277 61.588 25.047 61.588 26.677Z" fill="#D3F468"/>
</svg>
