<svg width="124" height="124" viewBox="0 0 124 124" fill="none" xmlns="http://www.w3.org/2000/svg">
<path d="M31.2794 34.3868L77.8794 7.47683C80.5394 5.94683 82.9494 5.74683 84.7494 6.64683L86.5793 7.75683L99.9893 16.0268C100.059 16.0668 100.099 16.1568 100.059 16.2268C99.3794 17.6468 93.0594 30.8768 92.4794 33.3168C92.2394 34.3468 90.2594 44.4568 87.9594 56.2368C87.9594 56.2468 87.9594 56.2568 87.9594 56.2668V62.1768C87.9594 65.4868 86.7593 69.1668 84.8293 72.3968C84.8293 72.4168 84.8094 72.4269 84.8094 72.4469C82.4294 84.7369 80.3994 95.2268 80.3394 95.4968C80.3394 95.5068 80.3394 95.5068 80.3394 95.5168L73.4394 111.817C73.3994 111.907 73.2894 111.947 73.1994 111.897L57.4094 102.697C57.3394 102.657 57.3094 102.577 57.3394 102.497L58.5094 99.1669C58.5094 99.1669 58.5094 99.1469 58.5094 99.1369C58.8194 97.5469 59.0594 95.7668 59.1494 93.9868L39.0394 116.367C38.9894 116.427 38.8993 116.437 38.8293 116.397L24.1394 107.317C24.0594 107.277 23.9894 107.227 23.9094 107.177C22.1794 106.087 21.1094 103.877 21.1094 100.757V51.9668C21.1094 45.5168 25.6793 37.5968 31.2693 34.3668L31.2794 34.3868Z" fill="#D3F468"/>
<path d="M38.25 117.367L23.6 108.317C23.53 108.277 23.45 108.227 23.32 108.147C21.18 106.797 20 104.187 20 100.777V51.987C20 45.157 24.81 36.827 30.72 33.417L77.32 6.50698C80.21 4.83698 83.03 4.53698 85.33 5.69698L100.57 15.087C101.13 15.437 101.34 16.147 101.06 16.727C98.48 22.107 94.01 31.707 93.56 33.587C93.36 34.457 91.85 42.117 89.07 56.377V62.197C89.07 65.557 87.93 69.337 85.87 72.837C83.5 85.047 81.49 95.447 81.42 95.797L74.46 112.267C74.32 112.607 74.03 112.867 73.68 112.987L73.06 113.137L56.84 103.687C56.3 103.377 56.07 102.717 56.28 102.147L57.43 98.887C57.53 98.367 57.62 97.847 57.69 97.327L39.87 117.157C39.62 117.427 39.27 117.567 38.92 117.567C38.69 117.567 38.45 117.507 38.25 117.377V117.367ZM60.28 94.067C60.19 95.757 59.96 97.587 59.62 99.337L58.65 102.137L72.82 110.397L79.26 95.187C79.49 94.007 81.44 83.937 83.7 72.277L83.75 72.017L83.86 71.837C85.75 68.667 86.83 65.157 86.83 62.197V56.287L86.85 56.037C89.68 41.487 91.16 33.977 91.38 33.077C91.92 30.787 96.93 20.177 98.66 16.547L84.24 7.66698C82.71 6.90698 80.65 7.18699 78.43 8.46699L31.83 35.377C26.63 38.377 22.23 45.997 22.23 52.007V100.797C22.23 103.397 23.04 105.347 24.58 106.317L23.98 107.257L24.73 106.407L38.74 115.067L60.44 90.917L60.27 94.087L60.28 94.067Z" fill="#151515"/>
<path d="M31.3216 34.3876L75.0016 9.26758L96.9716 23.0476L50.2116 47.6576L40.3816 49.2176L25.2616 40.2376C26.9616 37.7876 29.0516 35.6976 31.3216 34.3976V34.3876Z" fill="white"/>
<path d="M23.66 40.5773L24.35 39.5873C26.22 36.8873 28.44 34.7573 30.77 33.4073L75.03 7.94727L99.21 23.1273L50.73 48.6373L40.16 50.3673L23.66 40.5673V40.5773ZM94.72 22.9573L74.97 10.5673L31.88 35.3573C30.12 36.3773 28.41 37.9373 26.89 39.8973L40.6 48.0473L49.84 46.5873L94.71 22.9673L94.72 22.9573Z" fill="#151515"/>
<path d="M36.6011 57.2371C36.6011 57.2371 55.4711 61.6871 56.6911 62.1471C57.7011 62.5271 76.1911 77.4371 82.5011 84.4171C81.2511 90.8671 80.3911 95.3371 80.3511 95.5071C80.3511 95.5171 80.3511 95.5171 80.3511 95.5271L73.4511 111.827C73.4111 111.917 73.3011 111.957 73.2111 111.907L57.4211 102.707C57.3511 102.667 57.3211 102.587 57.3511 102.507L58.5211 99.1771C58.5211 99.1771 58.5211 99.1571 58.5211 99.1471C58.8311 97.5571 59.0711 95.7771 59.1611 93.9971L39.0511 116.377C39.0011 116.437 38.9111 116.447 38.8411 116.407L24.1511 107.327C24.0711 107.287 24.0011 107.237 23.9211 107.187C22.1911 106.097 21.1211 103.887 21.1211 100.767V51.9771C21.1211 50.7871 21.2811 49.5371 21.5711 48.2871L36.6011 57.2271V57.2371Z" fill="#151515"/>
<path d="M22.9978 55.4585L22.2266 56.7334L33.4012 63.493L34.1723 62.2181L22.9978 55.4585Z" fill="#D3F468"/>
<path d="M23.3649 99.2261L22.5938 100.501L33.7683 107.261L34.5395 105.986L23.3649 99.2261Z" fill="#D3F468"/>
<path d="M46.1716 43.6865L92.8616 16.7365C98.4316 13.5265 102.942 16.1265 102.942 22.5565V71.4465C102.942 77.8765 98.4316 85.6865 92.8616 88.8965L87.5416 91.9665C86.5816 92.5165 85.7616 93.7665 85.5716 94.9665C84.9916 98.5665 82.9015 106.306 75.3315 111.936C73.8615 113.026 72.6816 112.096 73.1216 110.196C73.6516 107.896 74.1816 104.866 74.2016 101.986C74.2016 100.706 73.2915 100.196 72.1815 100.836L46.1815 115.846C40.6115 119.056 36.1016 116.456 36.1016 110.026V61.1365C36.1016 54.7065 40.6115 46.8965 46.1815 43.6865H46.1716Z" fill="#D3F468"/>
<path d="M38.4904 117.527C36.2304 116.217 34.9805 113.557 34.9805 110.037V61.1468C34.9805 54.3768 39.7505 46.1068 45.6205 42.7268L92.3105 15.7768C95.3605 14.0168 98.2905 13.7668 100.56 15.0668C102.82 16.3768 104.07 19.0368 104.07 22.5568V71.4468C104.07 78.2168 99.3005 86.4868 93.4305 89.8668L88.1105 92.9368C87.4405 93.3268 86.8204 94.2768 86.6805 95.1468C86.0205 99.2768 83.7605 107.077 76.0005 112.837C74.9605 113.607 73.8205 113.737 72.9705 113.177C72.0505 112.577 71.7005 111.377 72.0305 109.947C72.5005 107.897 73.0704 104.857 73.0804 101.987C73.0804 101.817 73.0505 101.717 73.0605 101.687C73.0105 101.687 72.9004 101.717 72.7404 101.807L46.7404 116.817C44.9804 117.837 43.2505 118.347 41.6805 118.347C40.5305 118.347 39.4505 118.077 38.5005 117.517L38.4904 117.527ZM74.1805 99.7268C74.9104 100.147 75.3205 100.977 75.3205 101.987C75.3105 104.457 74.9305 107.297 74.2104 110.437C74.0804 110.987 74.1805 111.267 74.1505 111.267C74.1705 111.267 74.3705 111.237 74.6705 111.027C81.7805 105.737 83.8705 98.5768 84.4705 94.7768C84.7205 93.2368 85.7304 91.7168 86.9904 90.9868L92.3105 87.9168C97.5605 84.8868 101.83 77.4968 101.83 71.4368V22.5468C101.83 19.8568 100.98 17.8868 99.4405 16.9968C97.9005 16.1068 95.7605 16.3568 93.4305 17.7068L46.7404 44.6568C41.4904 47.6868 37.2205 55.0768 37.2205 61.1368V110.027C37.2205 112.717 38.0705 114.687 39.6105 115.577C41.1505 116.467 43.2905 116.217 45.6205 114.867L71.6205 99.8568C72.1105 99.5768 72.6105 99.4268 73.0905 99.4268C73.4805 99.4268 73.8504 99.5268 74.1805 99.7168V99.7268Z" fill="#151515"/>
<path d="M95.0623 55.1871C91.6223 60.7971 82.3524 74.7571 71.4124 81.0671C60.4724 87.3871 51.1323 84.1671 47.6823 82.5471C46.8923 82.1571 46.8923 80.6671 47.6823 79.3671C51.1223 73.7571 60.3923 59.7971 71.3323 53.4871C82.2723 47.1671 91.5924 50.3871 95.0424 52.0271C95.8524 52.4071 95.8523 53.9071 95.0623 55.1871Z" fill="#D3F468" stroke="#151515" stroke-width="0.25" stroke-miterlimit="10"/>
<path d="M71.3224 53.5372C77.9424 49.7172 83.3224 52.7672 83.3524 60.3772C83.3724 67.9672 78.0224 77.2271 71.4024 81.0471C64.7824 84.8671 59.4224 81.7972 59.4024 74.2072C59.3824 66.6072 64.7124 57.3572 71.3224 53.5372Z" fill="#D3F468" stroke="#151515" stroke-width="0.25" stroke-miterlimit="10"/>
<path d="M95.2619 51.577C91.6919 49.887 82.2018 46.637 71.0918 53.057C60.1118 59.397 50.7719 73.3871 47.2619 79.107C46.4919 80.3771 46.2019 82.347 47.4719 82.987C54.5919 86.317 63.4119 86.247 71.6619 81.487C82.6519 75.137 91.9818 61.157 95.4918 55.437C96.3018 54.117 96.5019 52.147 95.2619 51.577ZM71.1518 80.607C64.8718 84.237 59.9119 81.417 59.8919 74.197C59.8719 66.767 65.1119 57.687 71.5719 53.957C77.8119 50.357 82.8419 53.087 82.8619 60.367C82.8819 67.787 77.6319 76.8671 71.1619 80.607H71.1518ZM47.9018 82.097C47.3418 81.817 47.5819 80.477 48.1019 79.617C50.7619 75.277 56.8219 66.137 64.3619 59.297C61.0619 63.727 58.8819 69.297 58.8919 74.197C58.9019 78.857 60.9418 82.837 65.5618 83.117C57.3718 85.717 50.7118 83.417 47.9018 82.097ZM94.6419 54.917C91.9819 59.267 85.9118 68.427 78.3418 75.277C81.6618 70.847 83.8418 65.267 83.8318 60.367C83.8218 55.687 81.7018 51.717 77.2118 51.407C83.2718 49.487 89.5418 49.957 94.8318 52.467C95.3918 52.727 95.1419 54.097 94.6419 54.917Z" fill="#212120" stroke="#151515" stroke-width="0.25" stroke-miterlimit="10"/>
<path d="M71.3503 62.0574C73.8703 60.6074 75.9203 61.7674 75.9203 64.6574C75.9203 67.5474 73.8903 71.0673 71.3803 72.5173C68.8603 73.9673 66.8203 72.8074 66.8203 69.9174C66.8203 67.0274 68.8403 63.5074 71.3503 62.0574Z" fill="#D3F468" stroke="#151515" stroke-width="0.25" stroke-miterlimit="10"/>
<path d="M69.3303 73.6373C68.8103 73.6373 68.3303 73.5173 67.9003 73.2673C66.8803 72.6773 66.3203 71.4973 66.3203 69.9173C66.3203 66.8173 68.4103 63.1773 71.1003 61.6273C72.4803 60.8273 73.8103 60.7173 74.8303 61.3073C75.8503 61.8973 76.4103 63.0873 76.4103 64.6573C76.4103 67.6973 74.2703 71.4173 71.6203 72.9473C70.8203 73.4073 70.0403 73.6373 69.3303 73.6373ZM71.5903 62.4773C69.2203 63.8473 67.2903 67.1773 67.3003 69.9073C67.3003 71.1173 67.6903 72.0073 68.3903 72.4073C69.0903 72.8173 70.0603 72.6973 71.1303 72.0873C73.5103 70.7173 75.4403 67.3773 75.4303 64.6573C75.4303 63.4473 75.0403 62.5573 74.3403 62.1573C73.6403 61.7473 72.6603 61.8673 71.6003 62.4773H71.5903Z" fill="#212120" stroke="#151515" stroke-width="0.25" stroke-miterlimit="10"/>
</svg>
