<svg width="124" height="124" viewBox="0 0 124 124" fill="none" xmlns="http://www.w3.org/2000/svg">
<path d="M13.4805 78.3461C13.4805 54.1561 30.4705 24.7361 51.4205 12.6361C61.1905 6.99609 70.1005 6.11609 76.8205 9.24609H76.8405C77.7005 9.64609 78.5205 10.1161 79.3105 10.6461L91.4005 17.5161L87.9705 23.6061C88.8705 26.8261 89.3605 30.4661 89.3605 34.5361C89.3605 58.7261 72.3705 88.1461 51.4205 100.246C48.3805 102.006 45.4205 103.286 42.5805 104.146L38.7505 110.946L25.2705 103.256C24.8705 103.046 24.4805 102.826 24.1005 102.586L23.8905 102.466C17.4405 98.3261 13.4805 90.0161 13.4805 78.3361V78.3461Z" fill="#D3F468"/>
<path d="M25.04 103.676C24.63 103.466 24.23 103.236 23.86 103.006L23.34 102.696V102.676C16.67 98.2258 13 89.6058 13 78.3558C13 54.0558 30.12 24.3958 51.17 12.2358C60.61 6.7858 69.69 5.54581 76.78 8.72581L76.81 8.70581L77.03 8.83581C77.89 9.23581 78.74 9.71581 79.53 10.2558L92.02 17.3558L88.45 23.6858C89.35 26.9758 89.8 30.6258 89.8 34.5558C89.8 58.8558 72.68 88.5158 51.63 100.666C48.7 102.356 45.76 103.666 42.87 104.546L38.9 111.596L25.02 103.676H25.04ZM79.04 11.0458C78.33 10.5658 77.6 10.1458 76.82 9.7658L76.61 9.67581C69.78 6.49581 60.91 7.6958 51.64 13.0458C30.85 25.0458 13.94 54.3458 13.94 78.3458C13.94 89.4258 17.56 97.8558 24.13 102.066L24.33 102.196C24.7 102.426 25.08 102.646 25.48 102.856L38.55 110.316L42.25 103.756L42.43 103.706C45.3 102.836 48.24 101.546 51.17 99.8558C71.96 87.8558 88.87 58.5558 88.87 34.5558C88.87 30.6458 88.41 27.0058 87.5 23.7558L87.45 23.5658L90.75 17.7158L79.04 11.0658V11.0458Z" fill="#140F0C"/>
<path d="M19.1311 77.1752C19.1311 52.9852 32.4811 29.9852 53.4311 17.8852C58.4511 14.9852 63.2311 13.3552 67.6211 12.8652L80.1411 20.0052L80.3411 19.6252C81.8211 19.1752 83.3411 18.6052 84.8811 17.9252L93.4111 22.7752L89.9811 28.8652C90.8811 32.0852 91.3711 35.7252 91.3711 39.7952C91.3711 63.9852 74.3811 93.4052 53.4311 105.505C50.3911 107.265 47.4311 108.545 44.5911 109.405L44.3911 109.785L30.9111 102.095C30.5111 101.885 30.1211 101.665 29.7411 101.425L29.5311 101.305C23.0811 97.1652 19.1211 88.8552 19.1211 77.1752H19.1311Z" fill="white"/>
<path d="M23.8787 102.476C17.4287 98.3362 13.4688 90.0262 13.4688 78.3462C13.4688 66.6662 17.1187 54.7962 23.1287 43.5762L37.1087 51.6762C37.1087 51.6762 44.8587 70.1362 44.8587 71.7362C44.8587 72.7962 43.7487 91.3562 43.0087 104.006C42.8687 104.056 42.7187 104.106 42.5787 104.156L38.7487 110.956L25.2687 103.266C24.8687 103.056 24.4788 102.836 24.0988 102.596L23.8887 102.476H23.8787Z" fill="#140F0C"/>
<path d="M26.3477 85.7151C26.3477 109.905 43.3277 119.715 64.2877 107.615C85.2377 95.5151 102.228 66.095 102.228 41.905C102.228 17.715 85.2477 7.90505 64.2877 20.005C43.3377 32.105 26.3477 61.5251 26.3477 85.7151Z" fill="white"/>
<path d="M37.2289 110.685C29.9089 106.465 25.8789 97.5954 25.8789 85.7154C25.8789 61.4154 42.9989 31.7554 64.0489 19.5954C74.3289 13.6554 84.0289 12.7154 91.3489 16.9354C98.6689 21.1554 102.699 30.0254 102.699 41.9054C102.699 66.2054 85.5789 95.8654 64.5289 108.025C58.4789 111.515 52.6289 113.285 47.3489 113.285C43.6589 113.285 40.2389 112.425 37.2289 110.685ZM64.5189 20.4154C43.7289 32.4154 26.8189 61.7154 26.8189 85.7154C26.8189 97.2454 30.6789 105.815 37.6989 109.865C44.7089 113.915 54.0689 112.975 64.0589 107.205C84.8489 95.2054 101.759 65.9054 101.759 41.9054C101.759 30.3754 97.8989 21.8054 90.8789 17.7554C88.0189 16.1054 84.7589 15.2854 81.2289 15.2854C76.1189 15.2854 70.4289 17.0054 64.5189 20.4154Z" fill="#140F0C"/>
<path d="M87.2545 77.0667C99.9377 55.0987 99.9368 31.3534 87.2525 24.0301C74.5682 16.7068 54.0037 28.5787 41.3205 50.5466C28.6373 72.5146 28.6381 96.2599 41.3225 103.583C54.0068 110.907 74.5713 99.0346 87.2545 77.0667Z" fill="#D3F468"/>
<path d="M41.0781 103.995C34.7881 100.365 31.3281 92.7554 31.3281 82.5654C31.3281 61.7355 46.0081 36.3155 64.0481 25.9055C72.8781 20.8055 81.1981 20.0055 87.4881 23.6255C93.7781 27.2555 97.2381 34.8655 97.2381 45.0555C97.2381 65.8855 82.5581 91.3055 64.5181 101.715C59.3281 104.715 54.3081 106.225 49.7781 106.225C46.6081 106.225 43.6681 105.485 41.0781 103.985V103.995ZM64.5181 26.7055C46.7381 36.9755 32.2681 62.0255 32.2681 82.5555C32.2681 92.3955 35.5681 99.7255 41.5481 103.175C47.5281 106.625 55.5181 105.825 64.0481 100.905C81.8281 90.6355 96.2981 65.5855 96.2981 45.0555C96.2981 35.2155 92.9981 27.8855 87.0181 24.4355C84.5781 23.0255 81.7981 22.3255 78.7881 22.3255C74.4181 22.3255 69.5681 23.7955 64.5181 26.7155V26.7055Z" fill="#140F0C"/>
<path d="M61.7306 99.7353C79.6706 89.3753 94.2106 64.1953 94.2106 43.4753C94.2106 34.6653 91.7806 28.0053 87.3806 24.1453C87.3606 24.1353 87.3806 24.1053 87.4006 24.1153C93.3106 27.4953 96.7606 34.8653 96.7606 45.2553C96.7606 65.9653 82.2206 91.1553 64.2806 101.515C54.1506 107.365 44.8706 106.835 38.9106 101.865C38.8906 101.845 38.9106 101.815 38.9306 101.825C44.7806 104.975 52.9606 104.785 61.7306 99.7353Z" fill="#140F0C"/>
<path d="M38.609 102.226L38.2891 101.926L38.799 101.226L39.169 101.426C45.329 104.746 53.469 103.976 61.509 99.3356C79.289 89.0656 93.759 64.0156 93.759 43.4856C93.759 34.8956 91.4491 28.3356 87.0891 24.5056L86.7791 24.2056L87.2891 23.5156L87.6591 23.7256C93.8491 27.2656 97.249 34.9156 97.249 45.2756C97.249 66.1056 82.5691 91.5256 64.5291 101.936C59.5791 104.796 54.639 106.226 50.119 106.226C45.769 106.226 41.809 104.896 38.609 102.236V102.226ZM94.689 43.4856C94.689 64.3156 80.0091 89.7356 61.9691 100.146C55.4191 103.926 48.7691 105.216 43.0991 103.896C48.9791 106.416 56.489 105.486 64.059 101.116C81.839 90.8456 96.309 65.7956 96.309 45.2656C96.309 37.5756 94.389 31.4456 90.829 27.4856C93.369 31.4956 94.689 36.9256 94.689 43.4856Z" fill="#140F0C"/>
<path d="M80.9409 73.196V73.176C81.4309 72.316 81.4009 71.406 80.8909 71.156L63.4509 62.396C62.9409 62.136 62.1409 62.636 61.6709 63.496V63.516C61.1809 64.376 61.2109 65.286 61.7209 65.536L79.1609 74.296C79.6709 74.556 80.4709 74.056 80.9409 73.196Z" fill="#140F0C"/>
<path d="M81.2808 71.9958V71.9758C81.7708 71.1158 81.7407 70.2058 81.2307 69.9558L63.7908 61.1958C63.2808 60.9358 62.4808 61.4358 62.0108 62.2958V62.3158C61.5208 63.1758 61.5507 64.0858 62.0607 64.3358L79.5008 73.0958C80.0108 73.3558 80.8108 72.8558 81.2808 71.9958Z" fill="white"/>
<path d="M59.2672 64.4355C59.8172 62.2355 60.9972 60.2155 62.6272 58.6455C64.8172 56.5455 66.8972 56.0355 68.3072 56.7355L68.4272 56.7955C68.4972 56.8355 68.4972 56.8355 68.5572 56.8755L70.7173 58.1355C70.9973 58.2955 71.0872 58.6555 70.9172 58.9255L70.0873 60.3255C70.0873 60.3255 70.0873 60.3855 70.0873 60.4155C70.0873 63.9755 67.5872 68.2955 64.5172 70.0755C64.4072 70.1455 64.2872 70.1955 64.1772 70.2555L63.4572 71.4555C63.2972 71.7255 62.9472 71.8155 62.6772 71.6555L60.8072 70.5755C60.6472 70.5055 60.4972 70.4155 60.3572 70.3155L60.4572 70.3855L60.3172 70.2855C59.0772 69.3655 58.5372 67.3255 59.2672 64.4355Z" fill="#140F0C"/>
<path d="M62.4489 72.0658L60.6189 71.0058C60.4289 70.9158 60.2489 70.8158 60.0889 70.6958L60.0489 70.6658C58.5389 69.5458 58.0889 67.2258 58.8189 64.3258C59.3989 62.0358 60.5989 59.9558 62.3089 58.3158C64.4889 56.2158 66.8189 55.4758 68.5189 56.3258L68.6489 56.3858C68.7189 56.4258 68.7389 56.4358 68.7989 56.4758L70.9589 57.7358C71.1989 57.8758 71.3689 58.1058 71.4489 58.3758C71.5189 58.6458 71.4789 58.9258 71.3389 59.1758L70.5789 60.4558C70.5689 64.1458 67.9689 68.6458 64.7689 70.4858C64.6989 70.5258 64.6289 70.5658 64.5289 70.6158L63.8889 71.6958C63.6889 72.0258 63.3489 72.2058 62.9889 72.2058C62.8089 72.2058 62.6289 72.1658 62.4689 72.0658H62.4489ZM62.9589 58.9958C61.3789 60.5158 60.2589 62.4358 59.7289 64.5558C59.1089 67.0358 59.4289 69.0458 60.5889 69.9058L60.7289 70.0058C60.8189 70.0658 60.9189 70.1158 61.0489 70.1758L62.9189 71.2558C62.9689 71.2858 63.0389 71.2658 63.0689 71.2158L63.7889 70.0158L63.9389 69.8558L64.0589 69.7958C64.1389 69.7558 64.2089 69.7158 64.2889 69.6758C67.2289 67.9758 69.6289 63.8258 69.6289 60.3558V60.2158L70.5289 58.6958L70.4889 58.5458L68.3189 57.2758L68.1089 57.1558C67.7689 56.9858 67.3989 56.9058 66.9989 56.9058C65.8089 56.9058 64.3789 57.6258 62.9589 58.9858V58.9958Z" fill="#140F0C"/>
<path d="M61.3788 68.256C61.3788 71.816 63.8788 73.256 66.9488 71.476C70.0288 69.696 72.5188 65.376 72.5188 61.816C72.5188 58.256 70.0188 56.816 66.9488 58.596C63.8688 60.376 61.3788 64.696 61.3788 68.256Z" fill="white"/>
<path d="M62.78 72.2661C61.58 71.5661 60.91 70.1462 60.91 68.2462C60.91 64.5462 63.52 60.0361 66.72 58.1861C68.36 57.2361 69.93 57.0961 71.13 57.7961C72.33 58.4961 73 59.9161 73 61.8161C73 65.5161 70.39 70.0262 67.19 71.8762C66.24 72.4262 65.31 72.7061 64.46 72.7061C63.85 72.7061 63.28 72.5561 62.77 72.2661H62.78ZM67.19 58.9961C64.25 60.6961 61.85 64.8462 61.85 68.2462C61.85 69.7862 62.35 70.9261 63.25 71.4461C64.15 71.9661 65.38 71.8262 66.72 71.0562C69.66 69.3562 72.06 65.2062 72.06 61.8061C72.06 60.2562 71.56 59.1261 70.66 58.6061C70.3 58.3961 69.89 58.2961 69.44 58.2961C68.76 58.2961 67.99 58.5361 67.19 58.9961Z" fill="#140F0C"/>
<path d="M64.2192 69.7756C63.3992 69.3056 62.9492 68.3456 62.9492 67.0756C62.9492 64.6356 64.6092 61.7556 66.7292 60.5356C67.8292 59.9056 68.8792 59.8156 69.6992 60.2856C70.5192 60.7556 70.9692 61.7156 70.9692 62.9856C70.9692 65.4256 69.3092 68.3056 67.1892 69.5256C66.5592 69.8856 65.9392 70.0756 65.3692 70.0756C64.9492 70.0756 64.5592 69.9756 64.2092 69.7756H64.2192ZM67.1892 61.3456C65.3692 62.3956 63.8792 64.9656 63.8792 67.0756C63.8792 67.9956 64.1592 68.6656 64.6792 68.9656C65.1992 69.2656 65.9192 69.1756 66.7192 68.7156C68.5392 67.6656 70.0292 65.0956 70.0292 62.9856C70.0292 62.0656 69.7492 61.3956 69.2292 61.0956C69.0292 60.9756 68.7992 60.9256 68.5392 60.9256C68.1392 60.9256 67.6792 61.0656 67.1992 61.3456H67.1892Z" fill="#140F0C"/>
<path d="M55.989 40.1161C56.579 39.5361 57.219 39.5261 57.429 40.0961L64.289 59.0161C64.149 59.1361 64.019 59.2461 63.879 59.3761C63.259 59.9661 62.709 60.6261 62.239 61.3261L55.299 42.1761C55.099 41.6161 55.409 40.6961 55.999 40.1161H55.989Z" fill="#140F0C"/>
<path d="M81.7108 14.8258L68.8008 7.46582L74.6008 8.38582L77.7308 9.70583L88.6308 15.8658L84.2608 14.8258H81.7108Z" fill="#140F0C"/>
<path d="M37.52 48.2257L37.99 47.4157L25.23 39.8757L24.75 40.6757L37.52 48.2257Z" fill="#140F0C"/>
<path d="M32.9153 28.8314L32.4453 29.6455L45.2798 37.0555L45.7498 36.2414L32.9153 28.8314Z" fill="#140F0C"/>
<path d="M65.2187 7.29063L64.7617 8.11206L77.9395 15.4437L78.3965 14.6223L65.2187 7.29063Z" fill="#140F0C"/>
</svg>
