<svg width="124" height="124" viewBox="0 0 124 124" fill="none" xmlns="http://www.w3.org/2000/svg">
<path d="M29.7099 114.018C29.7004 113.829 29.691 113.631 29.7099 113.442V57.1874L87.6655 34.3284L93.9968 35.1505V91.9815C94.0724 93.6163 93.1463 95.1944 91.124 96.3567L50.4711 119.887C46.1904 122.363 38.7156 122.051 33.7733 119.197C31.203 117.713 29.8327 115.833 29.7099 114.028V114.018Z" fill="#D3F468"/>
<path d="M33.4312 119.792C30.7569 118.252 29.1976 116.229 29.0181 114.056C28.9992 113.829 28.9992 113.602 29.0181 113.432V56.7146L87.4083 33.6855L87.5784 33.6194L94.6941 34.536V91.934C94.7886 93.909 93.6451 95.695 91.4811 96.9424L50.8283 120.472C48.7965 121.644 46.075 122.221 43.2306 122.221C39.8192 122.221 36.2283 121.398 33.4312 119.783V119.792ZM87.7485 35.0274L30.3978 57.6502V113.489C30.3789 113.65 30.3884 113.801 30.3978 113.961L29.7079 114.009L30.3978 113.971C30.5207 115.615 31.8719 117.297 34.121 118.592C38.8648 121.332 46.0466 121.644 50.1289 119.282L90.7818 95.7517C92.4828 94.7689 93.3806 93.4365 93.305 91.9718V35.7456L87.7485 35.0274Z" fill="#16110D"/>
<path d="M50.4825 63.0651L91.1354 39.5351C95.4161 37.0593 94.8776 32.7502 89.9353 29.8963C84.9931 27.0425 77.5183 26.7306 73.2375 29.2065L32.5846 52.7365C28.3038 55.2123 28.8425 59.5214 33.7847 62.3752C38.7269 65.2291 46.2017 65.5409 50.4825 63.0651Z" fill="#D3F468"/>
<path d="M50.1386 67.4576L90.7916 43.9277C95.0724 41.4518 94.5337 37.1427 89.5915 34.2889C84.6492 31.4351 77.1745 31.1232 72.8938 33.5991L32.2408 57.129C27.9601 59.6049 28.4987 63.914 33.4409 66.7678C38.3832 69.6216 45.8579 69.9335 50.1386 67.4576Z" fill="white"/>
<path d="M33.432 62.9596C30.616 61.3342 29 59.123 29 56.9117C29 55.0312 30.1529 53.3303 32.2319 52.1302L72.8848 28.6002C77.3546 26.0204 85.1507 26.3323 90.2819 29.29C93.098 30.9154 94.7138 33.1266 94.7138 35.3379C94.7138 37.2184 93.5609 38.9194 91.482 40.1195L50.8291 63.6494C48.7974 64.8212 46.0758 65.3976 43.2314 65.3976C39.8201 65.3976 36.2291 64.5755 33.432 62.9596ZM50.1297 62.4588L90.7827 38.9288C92.4269 37.9838 93.3247 36.7081 93.3247 35.3379C93.3247 33.6275 91.9639 31.8509 89.5825 30.4807C84.8387 27.7403 77.657 27.4284 73.5747 29.7909L32.9217 53.3208C31.2774 54.2658 30.3797 55.5415 30.3797 56.9117C30.3797 58.6222 31.7499 60.3987 34.1218 61.7689C38.8656 64.5094 46.0474 64.8212 50.1297 62.4588Z" fill="#16110D"/>
<path d="M43.7419 57.234H46.8602C48.7407 57.234 50.2621 55.7126 50.2621 53.8321V37.7958C50.2621 29.2438 56.518 18.4143 63.9266 14.1336C66.5631 12.6122 68.9727 12.1869 70.3807 12.9996C71.7888 13.8123 72.6298 16.1086 72.6298 19.1514V35.1877C72.6298 37.0682 74.1512 38.5896 76.0317 38.5896H79.1502C81.0307 38.5896 82.5521 37.0682 82.5521 35.1877V19.1514C82.5521 12.4232 79.925 7.04626 75.3419 4.40977C70.7587 1.76383 64.796 2.17962 58.9654 5.54374C48.5234 11.5727 40.3398 25.7379 40.3398 37.7958V53.8321C40.3398 55.7126 41.8614 57.234 43.7419 57.234Z" fill="#D3F468"/>
<path d="M66.0508 78.5262C66.0508 75.559 68.1391 71.9491 70.7095 70.4561C73.2798 68.9725 75.3683 70.1726 75.3683 73.1493C75.3683 75.5117 74.0359 78.2616 72.2026 80.0476V90.4991L69.3865 92.1245V81.7297C67.4587 82.1833 66.0508 80.9642 66.0508 78.5262Z" fill="white"/>
<path d="M63.0664 77.325C63.0664 74.3578 65.1549 70.748 67.7252 69.2549C70.2955 67.7713 72.3839 68.9714 72.3839 71.9481C72.3839 74.3105 71.0515 77.0604 69.2182 78.8464V89.2979L66.4022 90.9233V80.5285C64.4745 80.9821 63.0664 79.7631 63.0664 77.325Z" fill="#D3F468"/>
<path d="M68.7069 82.5126C67.9698 82.5126 67.2611 82.3047 66.713 81.87C65.8436 81.1802 65.3711 79.999 65.3711 78.5248C65.3711 75.2835 67.5635 71.4847 70.3701 69.8594C71.8348 69.0089 73.2522 68.8955 74.3484 69.5381C75.454 70.1712 76.0589 71.4564 76.0589 73.1479C76.0589 75.5198 74.7926 78.3736 72.8932 80.3297V90.8946L68.6974 93.3137V82.5126H68.7069ZM71.5229 79.7533L71.7309 79.5454C73.498 77.835 74.6887 75.2552 74.6887 73.1479C74.6887 71.9667 74.3295 71.1067 73.668 70.7287C73.016 70.3507 72.0899 70.4641 71.0693 71.0595C68.688 72.4297 66.7603 75.7844 66.7603 78.5248C66.7603 79.5643 67.0532 80.3675 67.5824 80.7833C68.1116 81.2086 68.7826 81.1613 69.2551 81.0573L70.1054 80.8589V90.9229L71.5418 90.0913V79.7438L71.5229 79.7533Z" fill="#16110D"/>
<path d="M77.9101 38.514V21.2965C77.9101 19.5389 77.4092 17.8096 76.4737 16.3259C75.5004 14.7856 74.0546 13.6044 72.3441 12.9713L70.0195 12.1113L71.7866 14.2942L72.5616 17.4883L72.7316 35.8492L73.6577 38.0037L77.9006 38.5235L77.9101 38.514Z" fill="#15100C"/>
<path d="M45.6695 57.0554V37.5133C45.6695 36.247 45.3955 34.9996 44.8663 33.8468C44.1292 32.2497 42.9386 30.9079 41.4361 30.0007L41.3794 29.9629L40.3398 33.6294V54.5607L41.7007 56.5546L45.6695 57.0649V57.0554Z" fill="#15100C"/>
<path d="M45.6703 64.728V111.259C45.6703 112.402 46.0672 113.508 46.7949 114.387C47.9572 115.795 49.8093 116.437 51.5953 116.069L51.6898 116.05C55.9044 115.171 59.9395 113.621 63.6627 111.467L57.0762 115.993L49.1479 120.359L43.0055 121.568L36.1639 120.245L31.1083 117.146L29.7096 113.451L29.0198 57.3572L33.0549 61.8647L36.7969 63.7263L42.2495 64.7469H45.6703V64.728Z" fill="#15100C"/>
<path d="M43.0035 25.8415C42.909 25.7943 42.8334 25.7281 42.7578 25.662C45.9329 17.3462 51.9241 9.59736 58.9548 5.53396C64.7758 2.16983 70.748 1.76348 75.3312 4.39997C79.9143 7.04591 82.5414 12.4228 82.5414 19.1416V21.797L82.4847 21.8632C82.4847 21.8632 80.8498 11.6952 71.882 8.67128C62.9141 5.64735 56.1954 14.1049 52.6612 19.7086C49.1269 25.3123 46.3771 27.5519 43.013 25.8321L43.0035 25.8415Z" fill="white"/>
<path d="M39.6523 53.8326V37.7963C39.6523 25.521 47.9871 11.0912 58.6181 4.94886C64.666 1.46189 70.8839 1.0461 75.6844 3.81489C80.4849 6.58368 83.2347 12.178 83.2347 19.1613V35.1976C83.2347 37.4561 81.4015 39.2894 79.143 39.2894H76.0245C73.7661 39.2894 71.9328 37.4561 71.9328 35.1976V19.1613C71.9328 16.4115 71.2052 14.2852 70.0334 13.6049C68.8616 12.9245 66.6504 13.3592 64.2691 14.7388C57.0494 18.9062 50.9544 29.4711 50.9544 37.8058V53.842C50.9544 56.1005 49.121 57.9338 46.8625 57.9338H43.7442C41.4857 57.9338 39.6523 56.1005 39.6523 53.842V53.8326ZM70.7232 12.4047C72.3675 13.3592 73.3125 15.8161 73.3125 19.1519V35.1882C73.3125 36.6812 74.5315 37.9003 76.0245 37.9003H79.143C80.6361 37.9003 81.8551 36.6812 81.8551 35.1882V19.1519C81.8551 12.6788 79.3509 7.5192 74.9946 5.00556C70.6382 2.48246 64.9211 2.89827 59.3079 6.13954C49.0549 12.0551 41.0321 25.9652 41.0321 37.7963V53.8326C41.0321 55.3257 42.2511 56.5447 43.7442 56.5447H46.8625C48.3556 56.5447 49.5746 55.3257 49.5746 53.8326V37.7963C49.5746 29.0269 55.9911 17.9234 63.5793 13.5387C65.4503 12.4614 67.1985 11.9039 68.6443 11.9039C69.4381 11.9039 70.1373 12.074 70.7232 12.4047Z" fill="#16110D"/>
</svg>
