<svg width="124" height="124" viewBox="0 0 124 124" fill="none" xmlns="http://www.w3.org/2000/svg">
<path d="M30.5905 40.2791L57.9805 12.5491L85.3905 8.91912C86.6505 8.58912 87.7405 8.72911 88.5705 9.26911L95.8105 13.4491L90.2705 25.1791V43.6391C90.2705 43.6391 87.2905 67.6991 72.2505 90.9391C60.3805 109.289 58.0405 110.789 58.0405 110.789C58.0405 110.789 56.6205 111.499 50.3905 109.599L48.7705 110.339L42.4605 106.689C41.3405 106.159 40.3005 105.549 39.3305 104.879L39.2205 104.809C28.0305 96.9791 25.7505 80.5691 25.7505 80.5691L25.7305 50.0491C25.7305 46.7991 27.7105 42.8091 30.6005 40.2691L30.5905 40.2791Z" fill="#D3F468"/>
<path d="M95.9301 16.1493L88.6901 11.9693C87.8601 11.4293 86.7701 11.2893 85.5101 11.6193L58.1 15.2493L30.7101 42.9793C27.8301 45.5193 25.8401 49.5093 25.8401 52.7593V57.8893L55.28 75.0393C56.54 74.7093 57.6301 74.8493 58.4601 75.3893L59.86 76.1993L48.8401 65.1193L65.7001 79.5693L59.86 76.1993L74.23 90.6493C87.64 68.3893 90.3901 46.3493 90.3901 46.3493V27.8793L95.92 16.1493H95.9301Z" fill="white"/>
<path d="M56.97 111.65C55.8 111.65 53.8 111.39 50.45 110.39L48.74 111.17L42.11 107.33C41.06 106.84 40 106.23 38.93 105.49L38.57 105.24C27.46 97.2697 25.13 81.3697 25.03 80.6897L25 50.0697C25 46.5997 27.04 42.4597 30.09 39.7597L57.64 11.8697L85.3 8.20968C86.65 7.84968 87.95 7.99969 88.97 8.66969L96.76 13.1697L91 25.3597V43.6597C90.98 43.9897 87.82 68.2497 72.86 91.3597C61.24 109.32 58.69 111.26 58.44 111.42C58.29 111.5 57.88 111.66 56.96 111.66L56.97 111.65ZM50.35 108.84L50.61 108.92C55.59 110.44 57.36 110.22 57.7 110.15C58.18 109.73 61.16 106.76 71.64 90.5597C86.41 67.7397 89.53 43.7997 89.56 43.5597L89.54 25.0197L94.87 13.7497L88.21 9.89968C87.5 9.44968 86.61 9.35968 85.58 9.62968L58.33 13.2397L31.08 40.8297C28.36 43.2297 26.46 47.0197 26.46 50.0597L26.48 80.5797C26.5 80.6397 28.85 96.6697 39.64 104.21L39.75 104.29C40.76 104.99 41.75 105.56 42.78 106.05L48.82 109.54L50.35 108.84Z" fill="#15100C"/>
<path d="M57.9883 12.5501L85.3983 8.9201C86.6583 8.5901 87.7483 8.73009 88.5783 9.27009L95.8183 13.4501L92.9283 19.5601L65.4683 16.8601L57.9883 12.5501Z" fill="#D3F468"/>
<path d="M58.1094 15.2503L85.5194 11.6203C86.7794 11.2903 87.8694 11.4303 88.6994 11.9703L95.9394 16.1503L93.0494 22.2603L65.5894 19.5603L58.1094 15.2503Z" fill="white"/>
<path d="M93.3686 20.3401L65.1086 17.4901L56.8086 12.7001L57.6486 11.8501L85.3086 8.19015C86.6586 7.83015 87.9586 7.98014 88.9786 8.65014L96.7686 13.1501L93.3686 20.3401ZM65.6986 16.1501L92.4886 18.7901L94.8686 13.7502L88.2086 9.90014C87.4986 9.45014 86.6086 9.36014 85.5786 9.63014L60.2086 12.9901L65.6886 16.1501H65.6986Z" fill="#15100C"/>
<path d="M38.077 44.5901L65.467 16.8601L92.877 13.2301C95.757 12.4701 97.747 14.19 97.747 17.43L97.767 47.9501C97.767 47.9501 94.767 72.01 79.737 95.25C67.867 113.6 65.527 115.1 65.527 115.1C65.527 115.1 63.177 116.28 51.237 111.56C36.097 105.58 33.227 84.88 33.227 84.88L33.207 54.3601C33.207 51.1101 35.187 47.1201 38.077 44.5801V44.5901Z" fill="#140F0C"/>
<path d="M64.4483 115.96C62.6183 115.96 58.7883 115.33 50.9783 112.25C35.6283 106.19 32.6383 85.8501 32.5183 84.9901L32.4883 54.3701C32.4883 50.9001 34.5283 46.7601 37.5783 44.0601L65.1283 16.1701L92.7883 12.5101C94.2683 12.1201 95.6583 12.3301 96.7183 13.1501C97.8583 14.0301 98.4883 15.5501 98.4883 17.4401L98.5083 47.9601C98.4683 48.2901 95.3083 72.5501 80.3583 95.6601C68.7383 113.62 66.1883 115.56 65.9383 115.72C65.7683 115.81 65.3583 115.96 64.4583 115.96H64.4483ZM65.8183 17.5501L38.5583 45.1401C35.8383 47.5401 33.9383 51.3301 33.9383 54.3701L33.9583 84.8901C33.9783 84.9901 36.9483 105.14 51.5083 110.89C61.7583 114.94 64.7083 114.57 65.1783 114.45C65.6483 114.04 68.6183 111.1 79.1183 94.8601C93.8883 72.0401 97.0083 48.1001 97.0383 47.8601L97.0083 17.4301C97.0083 16.0101 96.5783 14.9001 95.8083 14.3001C95.1183 13.7701 94.1683 13.6401 93.0483 13.9401L65.7983 17.5501H65.8183Z" fill="#15100C"/>
<path d="M55.9908 92.49C53.7608 92.49 51.7008 91.97 49.8808 90.91C45.4808 88.37 43.0508 83.07 43.0508 75.99C43.0508 61.7 53.1208 44.26 65.4908 37.12C71.6208 33.58 77.4308 33.03 81.8308 35.57C86.2308 38.11 88.6608 43.41 88.6608 50.49C88.6608 64.78 78.5908 82.22 66.2208 89.36C62.6308 91.44 59.1508 92.48 55.9908 92.48V92.49ZM75.7108 35.46C72.8208 35.46 69.5808 36.44 66.2208 38.38C54.2508 45.29 44.5108 62.16 44.5108 75.99C44.5108 82.53 46.6808 87.38 50.6108 89.65C54.5508 91.92 59.8308 91.37 65.4908 88.1C77.4608 81.19 87.2008 64.32 87.2008 50.49C87.2008 43.95 85.0308 39.1 81.1008 36.83C79.5008 35.91 77.6908 35.45 75.7108 35.45V35.46Z" fill="#D3F468"/>
<path d="M58.0081 86.6396C56.2081 86.6396 54.5481 86.2196 53.0781 85.3696C49.5281 83.3196 47.5781 79.0596 47.5781 73.3796C47.5781 61.9796 55.6081 48.0596 65.4881 42.3596C70.4081 39.5196 75.0681 39.0796 78.6281 41.1296C82.1781 43.1796 84.1281 47.4396 84.1281 53.1196C84.1281 64.5196 76.0981 78.4396 66.2181 84.1396C63.3381 85.7996 60.5481 86.6396 58.0181 86.6396H58.0081ZM73.6781 41.3196C71.4081 41.3196 68.8581 42.0896 66.2081 43.6196C56.7381 49.0896 49.0281 62.4396 49.0281 73.3796C49.0281 78.5196 50.7181 82.3296 53.7981 84.1096C56.8781 85.8896 61.0181 85.4496 65.4781 82.8796C74.9481 77.4096 82.6581 64.0596 82.6581 53.1196C82.6581 47.9796 80.9581 44.1696 77.8881 42.3896C76.6381 41.6696 75.2181 41.3196 73.6781 41.3196Z" fill="#D3F468"/>
<path d="M55.1009 74.0103C54.8009 74.0103 54.5109 73.9403 54.2409 73.7903C53.5909 73.4103 53.2109 72.6203 53.2109 71.6003V68.6303C53.2109 66.9603 54.2109 65.0703 55.4909 64.3303L75.4509 52.8103C76.1409 52.4103 76.8609 52.3803 77.4409 52.7103C78.0909 53.0903 78.4709 53.8803 78.4709 54.9003V57.8703C78.4709 59.5403 77.4709 61.4303 76.1809 62.1703L56.2209 73.6903C55.8409 73.9103 55.4609 74.0203 55.0909 74.0203L55.1009 74.0103ZM76.5809 53.9303C76.4309 53.9303 76.2609 54.0203 76.1809 54.0603L56.2209 65.5803C55.3909 66.0603 54.6609 67.4803 54.6609 68.6203V71.5903C54.6609 72.1403 54.8209 72.4303 54.9609 72.5103C55.1109 72.5903 55.3809 72.4703 55.4909 72.4103L75.4509 60.8903C76.2809 60.4103 77.0109 58.9903 77.0109 57.8503V54.8803C77.0109 54.3303 76.8509 54.0403 76.7109 53.9603C76.6709 53.9403 76.6309 53.9303 76.5809 53.9303Z" fill="#D3F468"/>
</svg>
