<svg width="124" height="124" viewBox="0 0 124 124" fill="none" xmlns="http://www.w3.org/2000/svg">
<path d="M21.0215 70.3356L24.3143 68.0342C24.3143 67.9433 24.3143 67.8523 24.3143 67.7614C24.3143 66.1605 24.4143 64.5414 24.5871 62.895L21.3217 61.0393C21.2307 61.0121 21.1579 60.9666 21.0852 60.9029C20.7577 60.621 20.6395 60.057 20.8123 59.3475L22.0039 54.4083C22.2768 53.2895 23.1682 52.2435 24.005 52.0797L26.9794 51.4794C27.8254 48.7687 28.8532 46.0672 30.0448 43.4111L28.3529 42.456L27.8345 42.2104C27.7344 42.165 27.6526 42.0922 27.5889 42.0195C27.1887 41.5647 27.225 40.6187 27.7162 39.7L30.3086 34.8881C30.8908 33.7966 31.9004 33.1598 32.5462 33.46L34.7657 34.4879C36.3484 31.9137 38.0858 29.4395 39.9323 27.0927L38.7407 24.6823C38.386 23.9637 38.7407 22.672 39.5411 21.7988L43.0795 17.9421C43.6344 17.3326 44.1619 17.078 44.6076 17.2235L44.6986 17.2417L44.8259 17.3145C44.9078 17.3417 44.8805 17.3236 44.9442 17.3872L47.5912 18.8972C49.2285 17.4236 50.9204 16.0501 52.6577 14.8312V11.5111C52.6577 10.5015 53.3672 9.26445 54.2404 8.76417L58.1063 6.52651C58.5883 6.24453 59.0159 6.25364 59.3069 6.48104L64.0187 9.1735C64.6827 8.98249 65.3467 8.80962 65.9925 8.68228L67.166 4.95291C67.5207 3.82499 68.4576 2.86987 69.2581 2.81529L72.7964 2.58789C72.9146 2.58789 73.0238 2.59703 73.1148 2.63342C73.2149 2.6607 73.2967 2.71526 73.3786 2.77893L79.664 6.36279L79.7913 6.16265C80.4462 5.1075 81.4468 4.58906 82.0289 5.00748L93.8812 11.7841L93.5719 16.2957L101.595 21.153L100.285 23.991L97.6379 32.6778L103.923 36.3981C103.923 36.3981 103.96 36.4617 103.941 36.489L100.84 40.555L94.9272 51.7613L100.239 54.8177C100.285 54.8449 100.285 54.9086 100.239 54.945L98.4928 56.1365L94.6088 57.3736L91.2069 62.049C92.9079 58.2286 94.5452 54.2264 94.4815 52.6891C94.3541 49.7329 96.0824 36.8074 96.0824 36.8074C96.0824 36.8074 93.4991 31.1405 92.0164 28.6755C90.5429 26.2104 88.8146 24.8551 88.8146 24.8551C88.8146 24.8551 88.1597 24.7278 87.4775 24.6186C87.4593 24.5277 87.4502 24.4276 87.432 24.3276L90.4974 21.4077C90.6975 21.2167 90.8703 21.0075 91.0159 20.771L75.4798 23.1087C37.9493 35.9341 41.7697 81.1417 41.7697 81.1417V90.4925C43.1887 90.5016 44.6713 90.3651 46.2086 90.0559L47.3092 91.2384C47.1273 92.3299 47.673 92.9848 48.528 92.7028L50.4383 94.9041C51.2933 94.6221 52.1392 93.5033 52.3212 92.4117L52.8305 89.3737C55.8322 89.4737 59.0522 89.4919 60.8623 89.2736C64.9283 88.7824 75.0249 85.335 75.0249 85.335C75.0249 85.335 76.0892 84.1525 77.5992 82.4516L72.4598 95.1497C72.3962 95.3134 72.187 95.3862 72.0415 95.2861L67.266 92.2935L66.2836 90.8745C66.2836 90.8745 63.7004 93.9581 63.4548 94.14C63.2092 94.3219 57.5696 102.781 57.5696 102.781L51.6844 98.9155L51.4479 95.0042L45.0807 102.627C45.0079 102.718 44.8805 102.727 44.7896 102.654L32.5735 95.5954C32.5735 95.5954 25.6241 90.8472 25.4604 90.6198L23.5229 87.8637C23.0863 87.2452 23.341 85.9717 24.1051 85.0257L26.7248 81.7694L20.5394 78.231C20.2484 78.1036 20.0482 77.8125 20.0027 77.3577L19.6025 73.1462C19.5115 72.1911 20.1392 70.9268 21.0124 70.3174L21.0215 70.3356Z" fill="#D3F468"/>
<path d="M51.12 99.2518L50.9563 96.532L45.5532 103.008C45.2712 103.345 44.7891 103.4 44.5071 103.172L32.2547 96.0863C25.2144 91.2745 25.0688 91.0744 24.9869 90.9652L23.0495 88.2091C22.4491 87.3541 22.7129 85.8351 23.6498 84.6617L25.8329 81.951L20.3025 78.7856C19.8022 78.5673 19.4747 78.067 19.4111 77.4303L19.0108 73.2188C18.9017 72.0545 19.6293 70.5809 20.6754 69.8441L23.7044 67.7248C23.7044 66.3149 23.7863 64.7958 23.9409 63.2222L21.112 61.6031C20.9483 61.5485 20.8118 61.4666 20.6936 61.3575C20.1842 60.9209 20.0114 60.1204 20.2297 59.2108L21.4213 54.2716C21.7487 52.9072 22.813 51.7156 23.8772 51.4973L26.506 50.9697C27.2792 48.5502 28.2069 46.0943 29.2712 43.6656L28.0978 43.0015L27.5793 42.756C27.4156 42.6832 27.2701 42.565 27.1336 42.4194C26.5515 41.7645 26.5697 40.5548 27.1882 39.4177L29.7806 34.6059C30.5355 33.196 31.8272 32.4774 32.7914 32.9231L34.5287 33.7236C35.975 31.4132 37.5486 29.1574 39.2314 27.0198L38.2035 24.9549C37.7305 24.0089 38.1126 22.4808 39.0949 21.4074L42.6333 17.5507C43.5611 16.541 44.3161 16.5138 44.7982 16.6684L47.5088 18.1783C49.0188 16.8412 50.5469 15.6132 52.066 14.5308V11.5109C52.066 10.292 52.8937 8.86398 53.9489 8.25454L57.8147 6.01689C58.4878 5.63485 59.1882 5.63486 59.6066 5.97142L64.1092 8.54562C64.5913 8.40918 65.0734 8.29091 65.5464 8.18176L66.6197 4.77983C67.0563 3.39723 68.1842 2.29661 69.2394 2.23294L72.7778 2.00554C72.9597 1.98734 73.1325 2.01459 73.3144 2.07827C73.4872 2.13284 73.6419 2.22383 73.6965 2.27841L79.4998 5.58029C79.991 4.90718 80.6277 4.44327 81.2462 4.31592C81.6737 4.23406 82.0739 4.30685 82.3468 4.50696L94.5174 11.4654L94.2081 15.9862L102.376 20.9345L100.866 24.1727L98.356 32.4137L104.241 35.8975L104.505 36.0794L104.587 36.6525L101.385 40.8458L95.7363 51.5519L100.557 54.3262C100.757 54.4444 100.885 54.6446 100.894 54.8811L100.876 55.2722L98.8562 56.6457L95.0086 57.8919L88.3957 66.988L90.7061 61.8214C92.8983 56.9277 93.9808 53.8623 93.9353 52.7344C93.817 49.9146 95.3088 38.5172 95.518 36.9163C95.0905 35.9885 92.8619 31.1858 91.5521 29.0027C90.3605 27.0107 88.9779 25.7645 88.5959 25.437C88.3685 25.3915 87.9045 25.3097 87.4315 25.2369L87.0131 25.1732L86.8312 24.1545L89.46 21.6531L75.7067 23.7088C39.0586 36.2341 42.3604 80.6776 42.3968 81.1778V89.9283C43.6157 89.901 44.871 89.7645 46.1263 89.5098L46.4537 89.4462L47.9818 91.0835L47.9364 91.3746C47.8636 91.793 47.9364 92.0841 48.0546 92.175C48.1365 92.2478 48.282 92.2205 48.3912 92.175L48.7641 92.0477L50.6288 94.1943C51.1654 93.8305 51.6566 93.0483 51.7749 92.3388L52.3662 88.7822L52.8846 88.8004C56.6413 88.9186 59.3246 88.8913 60.8255 88.7094C64.5185 88.2637 73.4782 85.262 74.7243 84.8435C75.0245 84.507 75.9614 83.47 77.1894 82.0783L79.4907 79.4769L73.0415 95.3859C72.9415 95.6315 72.7414 95.8134 72.4958 95.8953C72.2502 95.9772 71.9773 95.9408 71.759 95.8044L66.9927 92.8117L66.274 91.8657C65.1916 93.1483 64.0637 94.4581 63.9091 94.5764C63.5816 94.9493 60.1706 100.016 58.0967 103.127L57.7692 103.618L51.1381 99.2609L51.12 99.2518ZM48.3366 93.3666C47.9364 93.4121 47.5543 93.2938 47.2723 93.0482C46.8721 92.7026 46.672 92.1295 46.7175 91.4564L46.0262 90.7105C44.5981 90.9743 43.2064 91.0835 41.7965 91.0926H41.2052V81.1961C41.1689 80.7412 37.7851 35.3791 75.4156 22.5263L92.2616 19.9885L91.5339 21.0982C91.352 21.3802 91.1428 21.6258 90.9245 21.835L88.4685 24.1727C88.7596 24.2273 88.9506 24.2636 88.9506 24.2636L89.087 24.2909L89.1962 24.3819C89.269 24.4365 91.0245 25.8373 92.5435 28.366C94.0171 30.831 96.5367 36.3251 96.6368 36.5525L96.7096 36.7071L96.6914 36.8799C96.6732 36.98 95.5816 45.2301 95.2087 49.9692L100.375 40.2L103.113 36.607L96.9461 32.9504L99.7567 23.7451L100.848 21.3893L92.9711 16.6138L93.2803 12.1204L81.7101 5.4984C81.6646 5.46202 81.5828 5.4529 81.4827 5.48019C81.2008 5.53477 80.7186 5.83497 80.3184 6.4808L79.8909 7.17211L73.1052 3.30627L72.896 3.22438L72.8506 3.18802L69.3213 3.41542C68.8301 3.44271 68.0569 4.1886 67.7567 5.13459L66.4742 9.20052L66.1285 9.2733C65.4918 9.40065 64.846 9.57344 64.1911 9.75536L63.9546 9.81904L58.9517 6.95381C58.8517 6.87194 58.6516 6.90831 58.406 7.04475L54.5401 9.28241C53.8579 9.68263 53.2484 10.7196 53.2484 11.52V15.1493L52.9938 15.3222C51.3292 16.4956 49.6373 17.8509 47.9818 19.3427L47.6635 19.6338L44.6436 17.9146L44.4253 17.8054C44.2798 17.76 43.9614 17.8782 43.5157 18.3603L39.9773 22.217C39.3042 22.9538 39.0495 23.9907 39.2678 24.4365L40.6231 27.1744L40.3866 27.4746C38.5401 29.8032 36.8209 32.2682 35.2564 34.806L34.9835 35.2517L32.2911 34.0056C32.0273 33.8782 31.2996 34.2875 30.8266 35.1789L28.2342 39.9907C27.8067 40.7912 27.8522 41.4462 28.0796 41.6918L30.8084 43.1744L30.5901 43.6656C29.3985 46.3217 28.3707 49.0141 27.552 51.6701L27.452 52.0067L24.1319 52.6798C23.5952 52.7889 22.8312 53.5894 22.5947 54.5627L21.403 59.5019C21.2757 60.0112 21.3576 60.3569 21.4849 60.466L21.1029 60.9208L21.6304 60.5388L25.2325 62.5854L25.1962 62.9766C25.0142 64.6684 24.9323 66.2876 24.9323 67.8976V68.3614L21.394 70.8356C20.7027 71.3177 20.166 72.3819 20.2388 73.1187L20.639 77.3302C20.6481 77.4212 20.6845 77.6576 20.8755 77.7395L27.6703 81.6235L24.6231 85.4166C23.9591 86.2443 23.8499 87.2267 24.0682 87.536L25.942 90.2194C26.2786 90.5195 30.4264 93.3848 32.9278 95.0948L44.8801 102.008L50.265 95.5588L48.3639 93.3757L48.3366 93.3666ZM67.7112 91.8566L72.0682 94.5855L75.7886 85.3984C75.5976 85.6167 75.4884 85.735 75.4884 85.735L75.3883 85.8441L75.2428 85.8896C74.8335 86.0351 65.037 89.3643 60.962 89.8555C59.4702 90.0374 56.9142 90.0738 53.3576 89.9737L52.9392 92.5025C52.821 93.2029 52.4844 93.8942 52.0296 94.4491L52.2752 98.5696L57.4236 101.953C62.7994 93.8942 63.0177 93.7304 63.0995 93.6668C63.2996 93.4939 64.655 91.9112 65.8557 90.4831L66.3559 89.8919L67.7112 91.8475V91.8566ZM99.2474 54.9266L95.1087 52.5434C95.1087 52.5434 95.1087 52.6253 95.1087 52.6616C95.145 53.5531 94.7266 55.1085 93.7897 57.528L94.2718 56.864L98.2559 55.5997L99.2474 54.9266Z" fill="#16110D"/>
<path d="M41.7852 90.5008V78.876C45.751 80.1767 50.7357 79.44 56.1661 76.3109C69.0552 68.8703 79.4975 50.7782 79.4975 35.897C79.4975 30.3029 78.024 25.9641 75.4952 23.117L91.0314 20.7793C90.8767 21.0067 90.7039 21.225 90.5129 21.416L87.4475 24.3359C87.4657 24.4269 87.4748 24.5269 87.493 24.627C88.1752 24.7361 88.8301 24.8635 88.8301 24.8635C88.8301 24.8635 90.5584 26.2188 92.0319 28.6838C93.5055 31.1488 96.0979 36.8157 96.0979 36.8157C96.0979 36.8157 94.3696 49.7504 94.497 52.6975C94.6243 55.6537 88.4572 67.7242 87.6021 70.071C86.738 72.4087 75.0404 85.3433 75.0404 85.3433C75.0404 85.3433 64.9438 88.7907 60.8778 89.2819C59.0586 89.5002 55.8477 89.473 52.846 89.382L52.3366 92.4201C52.1547 93.5116 51.3087 94.6304 50.4537 94.9124L48.9165 92.7112C48.0614 92.9931 47.5157 92.3382 47.6976 91.2467L46.2241 90.0642C44.6868 90.3644 43.2041 90.5099 41.7852 90.5008Z" fill="#16110D"/>
<path d="M48.6515 93.3664C48.2786 93.3846 47.9056 93.2845 47.6236 93.0389C47.2325 92.7024 47.0324 92.1566 47.0688 91.5017L46.0591 90.6922C44.6129 90.9651 43.1666 91.0833 41.7749 91.0833H41.1836V78.0486L41.9659 78.3033C45.9409 79.6041 50.7527 78.7399 55.8647 75.7837C68.5628 68.4522 78.896 50.5512 78.896 35.8883C78.896 30.6216 77.568 26.3465 75.0484 23.4994L74.3207 22.6807L92.249 19.9883L91.5214 21.098C91.3394 21.38 91.1302 21.6256 90.9119 21.8348L88.456 24.1725C88.7471 24.2271 88.938 24.2635 88.938 24.2635L89.0745 24.2908L89.1837 24.3817C89.2564 24.4454 91.012 25.8371 92.531 28.3658C94.0046 30.8308 96.5242 36.3249 96.6242 36.5523L96.697 36.7069L96.6788 36.8797C96.6606 37.0071 94.9597 49.7962 95.0779 52.6615C95.1689 54.7627 92.6402 60.4022 89.8204 66.4966C89.0108 68.2521 88.3741 69.6347 88.1376 70.2624C87.2644 72.6455 76.6584 84.3977 75.4577 85.7257L75.3576 85.8349L75.2121 85.8803C74.8028 86.0259 65.0063 89.355 60.9312 89.8462C59.4395 90.0281 56.8835 90.0645 53.3269 89.9645L52.9085 92.4932C52.6902 93.803 51.6896 95.1038 50.6253 95.4585L50.207 95.5949L48.6333 93.3482L48.6515 93.3664ZM52.863 88.782C56.6197 88.9002 59.303 88.873 60.8039 88.691C64.4969 88.2453 73.4565 85.2436 74.7027 84.8252C79.3781 79.6495 86.4458 71.4812 87.0461 69.8621C87.2917 69.189 87.9466 67.7882 88.7653 66.0145C90.7209 61.7848 93.9955 54.708 93.9045 52.7251C93.7863 49.9053 95.278 38.5079 95.4872 36.907C95.0597 35.9792 92.8312 31.1765 91.5214 28.9934C90.3298 27.0014 88.9472 25.7552 88.5651 25.4278C88.3377 25.3823 87.8739 25.3004 87.4009 25.2276L86.9824 25.164L86.8005 24.1452L89.4293 21.6438L76.6038 23.5721C78.8778 26.6011 80.0785 30.8399 80.0785 35.9155C80.0785 50.9605 69.4815 69.3164 56.4469 76.8388C51.353 79.7769 46.5048 80.7592 42.3661 79.6859V89.919C43.585 89.8917 44.8402 89.7553 46.0955 89.5006L46.3684 89.446L48.3332 91.0196L48.2786 91.3653C48.2058 91.7837 48.2786 92.0748 48.3968 92.1658C48.4787 92.2385 48.6242 92.2112 48.7334 92.1658L49.1518 92.0293L50.6435 94.1668C51.162 93.7848 51.635 93.039 51.7533 92.3386L52.3445 88.782L52.863 88.8002V88.782Z" fill="#16110D"/>
<path d="M31.4648 79.9416L31.865 84.1531C31.956 85.1081 32.7383 85.381 33.6115 84.7807L36.9952 82.4157C37.4682 84.5078 38.1413 86.3998 38.9964 88.0735L35.9856 91.821C35.2306 92.767 34.9668 94.0314 35.4034 94.659L37.3409 97.4151C37.7775 98.0336 38.7508 97.779 39.5058 96.833L42.5893 92.9944C43.8264 94.1769 45.2272 95.1229 46.7554 95.8233L44.6269 100.444C44.1084 101.563 44.2721 102.618 44.9816 102.8L48.1107 103.619C48.8202 103.801 49.8116 103.055 50.321 101.936L52.4859 97.2514C54.2596 97.3787 56.1334 97.2514 58.089 96.8603L57.3159 101.499C57.134 102.591 57.6797 103.246 58.5347 102.964L62.3188 101.708C63.1738 101.427 64.0197 100.308 64.2016 99.2162L64.9748 94.5499C65.9754 94.0769 66.9941 93.5584 68.0311 92.9581C69.0589 92.3668 70.0777 91.7119 71.0874 91.0206L71.8605 94.7864C72.0425 95.6687 72.8884 95.8142 73.7434 95.1138L77.5274 92.003C78.3824 91.3026 78.9282 90.0109 78.7463 89.1286L77.9731 85.381C79.9287 83.5072 81.8026 81.4697 83.5763 79.3048L85.7412 81.497C86.2596 82.0154 87.2511 81.6243 87.9515 80.6238L91.0806 76.194C91.7901 75.1934 91.9447 73.9563 91.4353 73.4378L89.3068 71.2821C90.835 68.8079 92.2358 66.252 93.4728 63.6323L96.5564 63.9052C97.3114 63.9688 98.2846 63.1138 98.7212 61.9859L100.659 57.0012C101.095 55.8733 100.841 54.9 100.077 54.8363L97.0658 54.5635C97.9117 51.9074 98.5848 49.2423 99.0669 46.6044L102.451 45.058C103.324 44.6578 104.106 43.4845 104.197 42.4202L104.597 37.7448C104.688 36.6897 104.061 36.153 103.187 36.5441L99.8947 38.045C99.8947 37.954 99.8947 37.863 99.8947 37.7721C99.8947 35.3889 99.6945 33.1786 99.3125 31.1319L102.378 28.2121C103.215 27.4208 103.67 26.12 103.397 25.3196L102.205 21.763C101.932 20.9534 101.041 20.9443 100.204 21.7448L97.2295 24.5737C96.3745 22.8091 95.3194 21.2718 94.1005 19.9711L96.3745 16.2962C97.0294 15.2411 97.0749 14.0586 96.4928 13.6402L93.9003 11.8119C93.3182 11.4025 92.3086 11.921 91.6627 12.9671L89.4433 16.5509C87.8606 15.8051 86.1232 15.3321 84.2767 15.132L85.4683 11.3479C85.823 10.22 85.4683 9.34684 84.6678 9.39232L81.1294 9.61973C80.329 9.6743 79.3921 10.6294 79.0374 11.7573L77.8639 15.4867C75.8446 15.896 73.7252 16.5873 71.5512 17.5697V14.2496C71.5512 13.2399 70.8418 12.8306 69.9685 13.3309L66.1027 15.5685C65.2295 16.0779 64.52 17.3059 64.52 18.3156V21.6356C62.346 23.1729 60.2266 24.9193 58.2073 26.8477L57.0339 24.4736C56.6792 23.755 55.7423 23.8823 54.9418 24.7556L51.4034 28.6124C50.603 29.4856 50.2482 30.7772 50.603 31.4958L51.7946 33.9062C49.939 36.2439 48.2107 38.7181 46.628 41.3014L44.4086 40.2735C43.7536 39.9733 42.753 40.6101 42.1709 41.7016L39.5785 46.5134C38.9964 47.605 39.0419 48.7329 39.6968 49.033L41.9708 50.0882C40.7519 52.7897 39.7059 55.5367 38.8418 58.3019L35.8673 58.9023C35.0305 59.0751 34.1391 60.1121 33.8662 61.2309L32.6746 66.1701C32.4017 67.2889 32.8565 68.0621 33.6933 67.8892L36.7587 67.2707C36.3858 69.7449 36.1766 72.1917 36.1766 74.5749C36.1766 74.6658 36.1766 74.7568 36.1766 74.8477L32.8838 77.1491C32.0106 77.7585 31.3829 79.0228 31.4739 79.9779L31.4648 79.9416ZM44.6905 69.6175C44.6905 54.7363 55.1328 36.6442 68.022 29.2036C80.9111 21.763 91.3534 27.7937 91.3534 42.6749C91.3534 57.5561 80.9111 75.6482 68.022 83.0888C55.1328 90.5294 44.6905 84.4987 44.6905 69.6175Z" fill="#D3F468"/>
<path d="M31.8278 81.8426L32.1006 84.6624C32.419 85.0172 32.9738 85.0263 33.5742 84.6078L36.958 82.2428C37.431 84.3349 38.1041 86.2269 38.9591 87.9006L38.6226 88.319C38.85 88.883 39.0955 89.4469 39.3593 89.9654L36.3485 93.713C36.0393 94.095 35.8391 94.5407 35.7027 94.9682L37.2945 97.2332C37.7311 97.8517 38.7044 97.597 39.4594 96.651L42.543 92.8125C43.78 93.995 45.1808 94.941 46.7089 95.6414L46.0177 97.1513C46.3724 97.3514 46.7453 97.5424 47.1183 97.7153L44.9898 102.336C44.9534 102.427 44.917 102.509 44.8897 102.6C44.9079 102.6 44.917 102.618 44.9352 102.618L48.0643 103.437C48.7738 103.619 49.7653 102.873 50.2746 101.754L52.4395 97.0694C54.2132 97.1968 56.087 97.0694 58.0427 96.6783L57.6788 98.8796C57.9335 98.8341 58.1882 98.8068 58.452 98.7522L57.7789 102.773C57.979 102.864 58.2155 102.873 58.4975 102.782L62.2814 101.527C63.1365 101.245 63.9824 100.126 64.1643 99.0342L64.9375 94.3679C65.9381 93.8949 66.9568 93.3764 67.9938 92.7761C69.0217 92.1849 70.0404 91.5299 71.0501 90.8386L71.8233 94.6044C72.0052 95.4867 72.8511 95.6323 73.7061 94.9319L77.4901 91.821C78.2815 91.1661 78.7999 90.02 78.7272 89.1468L78.336 87.2639C78.336 87.2639 78.3452 87.2548 78.3542 87.2457L77.9358 85.1991C79.8915 83.3253 81.7653 81.2877 83.539 79.1229L85.7038 81.3151C86.2223 81.8335 87.2138 81.4424 87.9142 80.4418L91.0433 76.012C91.2616 75.7028 91.4071 75.3662 91.5163 75.0387L89.6607 73.1649C89.8699 72.8193 90.0609 72.4645 90.2701 72.1189L89.2604 71.091C90.7886 68.6169 92.1894 66.0609 93.4265 63.4412L96.51 63.7141C97.265 63.7778 98.2383 62.9228 98.6749 61.7948L100.612 56.8102C100.612 56.8102 100.621 56.7738 100.631 56.7647C100.567 56.7465 100.512 56.7192 100.44 56.7192L97.4287 56.4463C97.6379 55.7914 97.8381 55.1274 98.0291 54.4634L97.0285 54.3724C97.8744 51.7163 98.5475 49.0512 99.0296 46.4133L102.413 44.867C103.287 44.4668 104.069 43.2934 104.16 42.2292L104.487 38.3997C104.242 38.2632 103.923 38.2633 103.55 38.427L100.258 39.9279C100.258 39.8369 100.258 39.7459 100.258 39.6549C100.258 38.9909 100.239 38.336 100.203 37.6993L99.8392 37.863C99.8392 37.7721 99.8392 37.6811 99.8392 37.5902C99.8392 35.207 99.6391 32.9966 99.257 30.95L102.322 28.0302C102.868 27.5117 103.25 26.7658 103.368 26.0927L102.55 23.6459C102.277 22.8363 101.386 22.8272 100.549 23.6276L97.5743 26.4566C96.7192 24.6919 95.6641 23.1546 94.4452 21.8539L95.0183 20.9261C94.709 20.5259 94.3815 20.1439 94.045 19.78L96.319 16.1052C96.4646 15.8687 96.5737 15.6322 96.6556 15.3957L94.2451 13.6947C93.6629 13.2854 92.6533 13.8039 92.0075 14.85L89.788 18.4338C88.2053 17.6879 86.4679 17.2149 84.6214 17.0148L85.2309 15.0955C84.8943 15.0409 84.5669 14.9864 84.2212 14.95L85.3582 11.3298C85.2491 11.2934 85.1399 11.2661 85.0126 11.2752L81.4742 11.5026C80.6737 11.5572 79.7369 12.5122 79.3821 13.6402L78.2087 17.3695C76.1894 17.7789 74.07 18.4702 71.896 19.4526V17.2149C71.7596 17.2695 71.6231 17.3241 71.4958 17.3877V15.1501C71.2047 14.9409 70.7863 14.9409 70.3133 15.2138L66.4474 17.4514C65.5742 17.9608 64.8647 19.1888 64.8647 20.1985V23.5185C62.6908 25.0557 60.5714 26.8022 58.5521 28.7306L57.3787 26.3565C57.0239 25.6379 56.087 25.7652 55.2865 26.6384L51.7482 30.4952C51.3389 30.95 51.0478 31.5049 50.9023 32.0415L51.73 33.7061C51.6026 33.8699 51.4844 34.0427 51.3571 34.2064L52.1393 35.771C50.2837 38.1086 48.5555 40.5828 46.9728 43.1661L44.7533 42.1382C44.0984 41.838 43.0978 42.4748 42.5157 43.5663L39.9233 48.3781C39.8323 48.5418 39.7687 48.6964 39.705 48.8602L41.9062 49.879C41.6697 50.3975 41.4514 50.925 41.224 51.4435L42.3065 51.9438C41.0876 54.6453 40.0324 57.3923 39.1774 60.1576L36.203 60.7579C35.3661 60.9307 34.4747 61.9676 34.2018 63.0865L33.1012 67.6436C33.2559 67.6982 33.4287 67.7164 33.6197 67.68L36.6851 67.0615C36.5759 67.7982 36.485 68.535 36.4031 69.2718L37.0944 69.1354C36.7214 71.6095 36.5123 74.0563 36.5123 76.4395C36.5123 76.5305 36.5123 76.6215 36.5123 76.7124L33.2195 79.0137C32.3463 79.6232 31.7186 80.8875 31.8095 81.8426H31.8278ZM45.3445 75.5572C44.8988 73.7289 44.6533 71.6914 44.6533 69.4537C44.6533 54.5725 55.0955 36.4804 67.9847 29.0398C79.6368 22.3178 89.2877 26.6021 91.0342 38.4725C91.4799 40.3008 91.7255 42.3383 91.7255 44.576C91.7255 59.4572 81.2832 77.5493 68.394 84.9899C56.751 91.7119 47.091 87.4276 45.3445 75.5572Z" fill="white"/>
<path d="M47.9475 104.182L44.8184 103.364C44.4182 103.263 44.0907 102.981 43.9088 102.59C43.6086 101.963 43.6723 101.062 44.0816 100.189L45.9645 96.1048C44.7729 95.5045 43.6632 94.7495 42.6444 93.8581L39.9611 97.2055C39.3607 97.9513 38.624 98.3698 37.9418 98.3425C37.4961 98.3243 37.1049 98.1151 36.8411 97.7512L34.9037 95.0042C34.3033 94.1492 34.5671 92.6301 35.504 91.4567L38.2783 88.0093C37.5961 86.6085 37.0413 85.0622 36.6137 83.4158L33.9395 85.2805C33.321 85.7171 32.6569 85.8263 32.1294 85.5807C31.6473 85.3533 31.3289 84.8621 31.2743 84.2253L30.8741 80.0138C30.765 78.8495 31.4927 77.376 32.5387 76.6392L35.5677 74.5198C35.5677 72.4368 35.7223 70.2447 36.0316 67.9979L33.794 68.4528C33.2664 68.5619 32.7934 68.4255 32.4477 68.0707C32.0111 67.6159 31.8747 66.8609 32.0839 66.015L33.2755 61.0758C33.6029 59.7387 34.6853 58.5198 35.7314 58.3015L38.3602 57.774C39.1424 55.3089 40.0794 52.8257 41.1709 50.3697L39.4244 49.5602C39.0606 49.3964 38.7968 49.0872 38.6604 48.6688C38.433 47.9866 38.5694 47.0769 39.0333 46.2219L41.6257 41.41C42.3807 40.0002 43.6814 39.2816 44.6365 39.7182L46.3738 40.5278C47.811 38.2173 49.3938 35.9706 51.0765 33.8239L50.0487 31.75C49.5757 30.804 49.9668 29.2759 50.9492 28.2026L54.4876 24.3458C55.1061 23.6636 55.8337 23.318 56.4887 23.418C56.9526 23.4817 57.3346 23.7637 57.5438 24.2003L58.3625 25.8558C60.1726 24.1821 62.0282 22.654 63.902 21.3168V18.2969C63.902 17.078 64.7297 15.6499 65.7849 15.0405L69.6507 12.8029C70.2602 12.4482 70.8878 12.4118 71.3608 12.6938C71.8429 12.9757 72.1248 13.5306 72.1248 14.231V16.6505C73.8986 15.9047 75.6632 15.3407 77.3824 14.9678L78.4557 11.5658C78.8923 10.1741 80.0203 9.08257 81.0754 9.0189L84.6047 8.7915C85.1232 8.75511 85.5234 8.94615 85.8145 9.31909C86.2238 9.83756 86.2966 10.638 86.0146 11.5203L85.0322 14.6312C86.5057 14.8495 87.8975 15.2406 89.1891 15.7955L91.1357 12.6482C91.6451 11.8205 92.3727 11.2475 93.0731 11.1019C93.5007 11.0201 93.9009 11.0928 94.2193 11.3202L96.8116 13.1486C97.6758 13.758 97.6939 15.2406 96.8571 16.596L94.8196 19.8887C95.7929 20.9803 96.6479 22.2173 97.3756 23.5817L99.777 21.2986C100.405 20.6983 101.123 20.4345 101.742 20.5892C102.215 20.7074 102.579 21.0531 102.742 21.5624L103.934 25.119C104.28 26.1377 103.761 27.6841 102.76 28.6301L99.9316 31.3316C100.25 33.169 100.432 35.1065 100.459 37.1076L102.906 35.9888C103.488 35.725 104.07 35.7432 104.507 36.0525C104.989 36.3891 105.216 37.0166 105.153 37.7716L104.752 42.447C104.643 43.7114 103.725 45.0849 102.66 45.567L99.5587 46.9769C99.1311 49.2782 98.549 51.6432 97.8213 53.9991L100.104 54.1992C100.55 54.2356 100.923 54.4721 101.169 54.8541C101.523 55.4362 101.532 56.2731 101.187 57.1736L99.2494 62.1583C98.7036 63.5591 97.4938 64.5323 96.4751 64.4596L93.8008 64.223C92.6729 66.5698 91.3994 68.8984 90.0259 71.1543L91.827 72.9826C92.5547 73.7194 92.4364 75.2384 91.5359 76.5028L88.4068 80.9326C87.852 81.7239 87.1061 82.2242 86.4148 82.2788C85.9873 82.3152 85.578 82.1697 85.2869 81.8786L83.5859 80.1594C81.985 82.0787 80.3114 83.8888 78.5922 85.5534L79.3017 88.9826C79.5291 90.0742 78.9014 91.5932 77.8736 92.4391L74.0896 95.55C73.4529 96.0684 72.7616 96.2595 72.1885 96.0502C71.6973 95.8774 71.3699 95.4681 71.2516 94.886L70.6513 91.9843C69.8508 92.5119 69.0595 93.0031 68.2954 93.4397C67.3767 93.9672 66.4307 94.4675 65.4756 94.9223L64.7479 99.2794C64.5296 100.589 63.529 101.89 62.4648 102.245L58.6808 103.5C58.126 103.682 57.5893 103.6 57.2073 103.273C56.7434 102.881 56.5615 102.19 56.6888 101.381L57.3255 97.5784C55.7792 97.8331 54.2601 97.9241 52.8139 97.8513L50.8218 102.172C50.2488 103.409 49.2209 104.228 48.2931 104.228C48.1658 104.228 48.0384 104.209 47.9202 104.182H47.9475ZM52.5137 96.6506C54.2419 96.7689 56.0702 96.6415 57.9622 96.2686L58.8082 96.1048L57.8986 101.59C57.8258 102.017 57.8985 102.299 58.0168 102.39C58.0987 102.463 58.2442 102.436 58.3443 102.39L62.1282 101.135C62.7741 100.917 63.4654 99.9707 63.6109 99.1066L64.4387 94.131L64.7207 93.9946C65.7394 93.5216 66.7491 92.994 67.7315 92.43C68.7047 91.8661 69.7144 91.2294 70.7423 90.5199L71.479 90.0105L72.4341 94.6495C72.4614 94.7586 72.5069 94.8951 72.607 94.9314C72.7434 94.9678 73.0254 94.9041 73.3619 94.6313L77.1459 91.5204C77.8281 90.9655 78.3011 89.8831 78.1646 89.2191L77.3278 85.1532L77.5643 84.9258C79.4836 83.0883 81.3574 81.0599 83.122 78.9041L83.5405 78.3948L86.1692 81.0508C86.1692 81.0508 86.242 81.1145 86.3602 81.1054C86.6331 81.0872 87.0879 80.8143 87.479 80.2504L90.6081 75.8206C91.2175 74.9564 91.263 74.0559 91.0265 73.8194L88.5706 71.3271L88.8162 70.9269C90.3352 68.4709 91.7269 65.9149 92.9549 63.3408L93.1277 62.9678L96.6206 63.2771C96.9753 63.3316 97.794 62.7313 98.1851 61.7307L100.123 56.7461C100.35 56.1548 100.323 55.6909 100.204 55.4817C100.159 55.409 100.113 55.3908 100.05 55.3817L96.3022 55.0451L96.5296 54.3356C97.3756 51.6795 98.0487 49.0326 98.5126 46.4493L98.5672 46.14L102.233 44.4664C102.906 44.1571 103.561 43.1565 103.634 42.3197L104.034 37.6443C104.07 37.2623 103.97 37.053 103.888 36.9985C103.807 36.9348 103.652 36.9621 103.461 37.0439L99.3222 38.9359L99.3404 37.7352C99.3404 35.4521 99.1493 33.26 98.7673 31.2043L98.7127 30.8859L102.006 27.7478C102.733 27.0565 103.042 25.9922 102.87 25.4737L101.678 21.9171C101.623 21.7443 101.542 21.7262 101.514 21.7171C101.351 21.6716 101.014 21.7898 100.65 22.1355L97.0845 25.5283L96.7298 24.7915C95.9111 23.0997 94.8924 21.5988 93.7008 20.3344L93.3915 20.007L95.902 15.941C96.4387 15.0769 96.4205 14.2492 96.184 14.0854L93.5916 12.2571C93.5461 12.2207 93.4643 12.2117 93.3642 12.239C93.0822 12.2935 92.6001 12.5937 92.1999 13.2486L89.7076 17.2873L89.2255 17.0599C87.7065 16.3504 86.0328 15.8865 84.2408 15.6955L83.5223 15.6136L84.9321 11.1383C85.105 10.5925 85.0504 10.1923 84.9321 10.0286C84.9048 9.99217 84.8594 9.93763 84.732 9.95582L81.1937 10.1832C80.7025 10.2105 79.9293 10.9564 79.6291 11.9024L78.3466 15.9683L78.0009 16.0411C75.9907 16.4504 73.9168 17.1326 71.8156 18.0786L70.9787 18.4515V14.2128C70.9787 13.9035 70.8878 13.7489 70.815 13.7034C70.7331 13.6579 70.5512 13.6579 70.2875 13.8126L66.4216 16.0502C65.7394 16.4413 65.1299 17.4873 65.1299 18.2787V21.9081L64.8753 22.09C62.7559 23.5726 60.6638 25.31 58.6263 27.2475L58.0441 27.8023L56.5069 24.7096C56.4523 24.6005 56.3977 24.5823 56.3431 24.5732C56.143 24.546 55.7701 24.7006 55.379 25.1281L51.8406 28.9848C51.1675 29.7216 50.9128 30.7586 51.1311 31.2043L52.4864 33.9422L52.2499 34.2333C50.4034 36.571 48.6751 39.036 47.1197 41.5647L46.8468 42.0104L44.1544 40.7643C43.8906 40.6369 43.1629 41.0462 42.6899 41.9376L40.0976 46.7495C39.7337 47.4226 39.7155 47.9865 39.8065 48.2594C39.8429 48.3595 39.8883 48.4232 39.9429 48.4505L42.7536 49.7512L42.508 50.2878C41.2891 52.9894 40.2431 55.7273 39.4062 58.438L39.3062 58.7745L35.9861 59.4476C35.4494 59.5568 34.6854 60.3572 34.4489 61.3305L33.2573 66.2697C33.139 66.7518 33.2027 67.0974 33.3301 67.2247C33.3483 67.2429 33.4028 67.3067 33.5847 67.2703L37.4779 66.4789L37.3505 67.3157C36.9685 69.8172 36.7775 72.2458 36.7775 74.6472V75.1111L33.2391 77.5852C32.5478 78.0673 32.0111 79.1315 32.0839 79.8683L32.4841 84.0798C32.5023 84.2799 32.566 84.4255 32.657 84.4709C32.757 84.5164 32.9844 84.4892 33.2936 84.2709L37.396 81.4056L37.587 82.2697C38.0418 84.289 38.6968 86.1446 39.5336 87.791L39.7064 88.1276L36.45 92.1754C35.7769 93.0031 35.6769 93.9854 35.8952 94.2947L37.8326 97.0508C37.8781 97.1145 37.9236 97.1327 37.9964 97.1418C38.1965 97.1418 38.6513 96.9417 39.0515 96.4414L42.5353 92.1026L42.9992 92.5483C44.1908 93.6762 45.537 94.5949 47.0106 95.268L47.5563 95.5136L45.1731 100.671C44.8911 101.29 44.882 101.817 45.0003 102.072C45.0549 102.181 45.1095 102.199 45.1368 102.208L48.2658 103.027C48.5933 103.109 49.3482 102.627 49.794 101.672L52.1317 96.6142L52.541 96.6415L52.5137 96.6506ZM51.222 85.235C46.6285 82.579 44.0907 77.0303 44.0907 69.617C44.0907 54.5721 54.6877 36.2162 67.7224 28.6937C74.1442 24.9825 80.2204 24.4004 84.8139 27.0565C89.4074 29.7125 91.9452 35.2611 91.9452 42.6744C91.9452 57.7193 81.3483 76.0752 68.3136 83.5977C64.5478 85.7717 60.8912 86.8723 57.5984 86.8723C55.2789 86.8723 53.1231 86.3266 51.222 85.235ZM67.7224 82.5698C80.4205 75.2384 90.7537 57.3373 90.7537 42.6744C90.7537 35.6977 88.4342 30.5221 84.2136 28.0843C80.0021 25.6466 74.3534 26.2287 68.3136 29.7216C55.6154 37.053 45.2823 54.9541 45.2823 69.617C45.2823 76.5937 47.6018 81.7694 51.8224 84.2072C56.0339 86.6449 61.6826 86.0627 67.7315 82.5698H67.7224Z" fill="#16110D"/>
<path d="M79.9617 5.81076L79.3711 6.8457L84.8224 9.95631L85.4129 8.92137L79.9617 5.81076Z" fill="#16110D"/>
<path d="M66.3061 8.22173L65.7188 9.24805L77.561 16.0247L78.1483 14.9984L66.3061 8.22173Z" fill="#16110D"/>
<path d="M64.3077 8.62495L63.7188 9.65039L70.6127 13.6098L71.2016 12.5843L64.3077 8.62495Z" fill="#16110D"/>
<path d="M52.9543 14.3779L52.3672 15.4043L64.2106 22.1789L64.7978 21.1525L52.9543 14.3779Z" fill="#16110D"/>
<path d="M47.8762 18.3876L47.2891 19.4141L56.2743 24.5537L56.8615 23.5272L47.8762 18.3876Z" fill="#16110D"/>
<path d="M40.216 26.583L39.6289 27.6094L51.4724 34.384L52.0595 33.3575L40.216 26.583Z" fill="#16110D"/>
<path d="M32.8451 32.9913L32.2578 34.0176L44.1001 40.7942L44.6874 39.7679L32.8451 32.9913Z" fill="#16110D"/>
<path d="M30.3207 42.9345L29.7617 43.9766L38.9236 48.8912L39.4826 47.8492L30.3207 42.9345Z" fill="#16110D"/>
<path d="M27.2631 50.962L26.6758 51.9883L38.5181 58.7649L39.1054 57.7386L27.2631 50.962Z" fill="#16110D"/>
<path d="M24.8869 62.4404L24.3125 63.4844L32.4334 67.9525L33.0078 66.9085L24.8869 62.4404Z" fill="#16110D"/>
<path d="M24.5988 67.5224L24.0117 68.5488L35.8552 75.3234L36.4423 74.297L24.5988 67.5224Z" fill="#16110D"/>
<path d="M27.0277 81.3017L26.4688 82.3438L31.719 85.1601L32.278 84.1181L27.0277 81.3017Z" fill="#16110D"/>
<path d="M32.9391 84.5009L32.4297 85.5781L38.712 88.5491L39.2214 87.4719L32.9391 84.5009Z" fill="#16110D"/>
<path d="M35.4336 104.526L37.18 103.307C37.18 103.261 37.18 103.216 37.18 103.161C37.18 102.315 37.2346 101.451 37.3255 100.578L35.5973 99.5958C35.5518 99.5776 35.5063 99.5594 35.47 99.523C35.2971 99.3774 35.2335 99.0773 35.3244 98.6953L35.9611 96.0756C36.1067 95.4843 36.5797 94.9295 37.0254 94.8385L38.6081 94.5201C39.0538 93.0829 39.5996 91.6458 40.2363 90.2359L39.3358 89.7265L39.0629 89.5992C39.0084 89.5719 38.972 89.5355 38.9356 89.4991C38.7264 89.2626 38.7446 88.7532 39.0084 88.262L40.3819 85.706C40.6911 85.1239 41.2278 84.7873 41.5735 84.9511L42.7468 85.4968C43.5837 84.1324 44.5115 82.8135 45.4939 81.5764L44.8571 80.3029C44.6661 79.9209 44.8571 79.2387 45.2846 78.7748L47.1584 76.7282C47.4495 76.4098 47.7315 76.2734 47.968 76.3462H48.0134L48.0771 76.3916C48.1226 76.4098 48.1044 76.3916 48.1408 76.428L49.5507 77.2285C50.4239 76.4462 51.3153 75.7185 52.2431 75.0727V73.308C52.2431 72.7714 52.6252 72.1165 53.08 71.8527L55.1357 70.6702C55.3904 70.5247 55.6178 70.5247 55.7724 70.652L58.2739 72.0801C58.6286 71.98 58.9742 71.8891 59.3199 71.8163L59.9475 69.8333C60.1385 69.233 60.6297 68.7236 61.0573 68.6963L62.931 68.5781C62.9947 68.5781 63.0493 68.5781 63.1039 68.5963C63.1585 68.6145 63.2039 68.6418 63.2403 68.6782L66.5786 70.5792L66.6423 70.4701C66.9879 69.9152 67.5155 69.6332 67.8339 69.8515L74.1192 73.4445L73.9555 75.8368L78.2125 78.42L77.512 79.93L76.1113 84.5417L79.4495 86.5156C79.4495 86.5156 79.4677 86.552 79.4586 86.561L77.8122 88.7168L74.6741 94.6657L77.4939 96.2848C77.4939 96.2848 77.5212 96.3303 77.4939 96.3484L76.5661 96.9761L74.5103 97.631L72.7093 100.114C73.6099 98.0858 74.4831 95.9664 74.4467 95.1478C74.383 93.5832 75.2926 86.7157 75.2926 86.7157C75.2926 86.7157 73.9191 83.7049 73.1368 82.4041C72.3546 81.0943 71.4359 80.3757 71.4359 80.3757C71.4359 80.3757 71.0902 80.3029 70.7264 80.2484C70.7264 80.1938 70.7082 80.1483 70.6991 80.0937L72.3273 78.5474C72.4274 78.4473 72.5274 78.3291 72.6002 78.2108L64.35 79.4479C44.4387 86.2518 46.458 110.238 46.458 110.238V115.205C47.213 115.205 47.9953 115.141 48.8139 114.977L49.3961 115.605C49.296 116.187 49.5871 116.533 50.0419 116.387L51.0516 117.551C51.5064 117.397 51.9521 116.806 52.0521 116.223L52.325 114.613C53.9168 114.668 55.6269 114.677 56.591 114.559C58.7468 114.295 64.1044 112.467 64.1044 112.467C64.1044 112.467 64.6684 111.839 65.4688 110.939L62.74 117.679C62.7036 117.77 62.5945 117.806 62.5126 117.752L59.9839 116.169L59.4654 115.414C59.4654 115.414 58.0919 117.051 57.9646 117.142C57.8372 117.242 54.8446 121.727 54.8446 121.727L51.7156 119.671L51.5882 117.597L48.2136 121.645C48.1772 121.69 48.1044 121.699 48.059 121.663L41.5735 117.915C41.5735 117.915 37.8804 115.396 37.7986 115.277L36.7707 113.813C36.5342 113.485 36.6798 112.812 37.08 112.312L38.4717 110.584L35.188 108.71C35.0334 108.646 34.9242 108.483 34.906 108.246L34.6877 106.008C34.6422 105.499 34.9788 104.835 35.4336 104.508V104.526Z" fill="#D3F468"/>
<path d="M51.197 119.998L51.1333 118.989L48.6137 122C48.3954 122.273 47.9952 122.309 47.7859 122.136L41.2732 118.37C37.5074 115.796 37.4346 115.696 37.3619 115.596L36.334 114.131C35.9611 113.604 36.1066 112.685 36.6615 111.985L37.662 110.748L34.9696 109.201C34.633 109.056 34.4147 108.728 34.3692 108.301L34.1509 106.063C34.0872 105.363 34.5057 104.508 35.1242 104.08L36.6432 103.016C36.6432 102.334 36.6887 101.606 36.7524 100.86L35.4062 100.087C35.297 100.051 35.2061 99.9962 35.1151 99.9234C34.7785 99.6414 34.6603 99.1321 34.7968 98.5681L35.4335 95.9484C35.6245 95.148 36.2612 94.4476 36.9071 94.3203L38.1805 94.0655C38.5625 92.8739 39.0173 91.6733 39.5358 90.4635L38.8172 90.0814C38.699 90.0269 38.5989 89.9541 38.508 89.8449C38.135 89.4265 38.135 88.6989 38.508 88.0076L39.8814 85.4516C40.3362 84.6056 41.1549 84.1781 41.7643 84.4601L42.5193 84.8057C43.2379 83.6596 44.0202 82.5499 44.8388 81.4947L44.3568 80.5215C44.0657 79.9393 44.284 79.0297 44.8661 78.393L46.7399 76.3464C47.3039 75.7278 47.8042 75.7187 48.0861 75.8097L49.4597 76.5556C50.2055 75.9007 50.9514 75.3003 51.6882 74.7728V73.281C51.6882 72.5533 52.1612 71.7256 52.7979 71.3617L54.8536 70.1792C55.2902 69.9245 55.7542 69.9336 56.0179 70.1519L58.3283 71.4709C58.5194 71.4163 58.7104 71.3708 58.8923 71.3253L59.429 69.6426C59.6837 68.8239 60.3659 68.1781 61.0117 68.1417L62.8855 68.0234C63.0128 68.0234 63.131 68.0235 63.2493 68.069C63.3675 68.1053 63.4767 68.169 63.4949 68.1963L66.4148 69.8609C66.6876 69.5425 67.0242 69.3242 67.3516 69.2605C67.6336 69.206 67.9065 69.2605 68.0884 69.3879L74.6649 73.1445L74.5011 75.5459L78.8946 78.202L78.0213 80.0666L76.7388 84.2781L79.9315 86.1701L80.0225 86.6795L78.276 88.9535L75.3744 94.4476L77.7393 95.812L78.0213 95.9848L78.0395 96.285V96.6215L76.8662 97.422L74.8377 98.086L70.1532 104.517L72.2181 99.8962C73.6462 96.6943 73.9281 95.5573 73.9099 95.1662C73.8463 93.6835 74.6103 87.8438 74.7468 86.7978C74.4648 86.1974 73.3459 83.787 72.6819 82.6773C72.0998 81.7131 71.4449 81.0854 71.1993 80.8762C71.0719 80.8489 70.8627 80.8126 70.6444 80.7853L70.2442 80.5761L70.1259 79.9211L71.1083 78.9843L64.5228 79.9666C45.2391 86.5613 46.9673 109.975 46.9946 110.257V114.677C47.5585 114.65 48.1316 114.586 48.7138 114.468L49.0048 114.413L49.969 115.45L49.9236 115.705C49.9054 115.787 49.9145 115.851 49.9145 115.887L50.2237 115.787L51.1697 116.879C51.3425 116.706 51.4972 116.433 51.5426 116.16L51.8883 114.086L52.3522 114.104C54.317 114.168 55.7541 114.15 56.5364 114.059C58.4284 113.831 62.9855 112.312 63.8132 112.039C64.0043 111.83 64.4773 111.303 65.0867 110.611L67.1424 108.292L63.2493 117.906C63.1765 118.097 63.0219 118.234 62.8218 118.298C62.6308 118.361 62.4216 118.334 62.2487 118.225L59.72 116.642L59.438 116.315C58.392 117.552 58.3556 117.552 58.3647 117.533C58.1737 117.77 56.3818 120.426 55.2993 122.054L55.0082 122.491L51.2152 120.008L51.197 119.998ZM49.8326 116.979C49.6052 116.979 49.396 116.897 49.2231 116.751C48.9775 116.542 48.8502 116.215 48.8502 115.823L48.6228 115.578C47.886 115.705 47.1311 115.769 46.4488 115.76H45.9213V110.311C45.9031 110.066 44.093 85.8336 64.259 78.9478L73.6643 77.5289L73.0276 78.5204C72.9184 78.6841 72.8002 78.8296 72.6729 78.957L71.6632 79.9211L71.7451 79.9848C71.7451 79.9848 72.7456 80.7762 73.5734 82.1588C74.3647 83.4777 75.7018 86.4067 75.7564 86.5249L75.8201 86.6613L75.8019 86.816C75.8019 86.8615 75.3562 90.1815 75.1106 92.683L77.3664 88.4169L78.6672 86.7068L75.4563 84.8057L77.0117 79.7301L77.5119 78.6568L73.3823 76.1553L73.5461 73.7722L67.5608 70.3339C67.5062 70.3339 67.2789 70.443 67.0697 70.7705L66.7331 71.3162L62.931 69.1241L61.0572 69.2423C60.9207 69.2423 60.566 69.5516 60.4204 70.0064L59.7019 72.2804L59.3926 72.3441C59.0651 72.4078 58.7195 72.4987 58.3829 72.5988L58.1646 72.6625L55.463 71.0979C55.463 71.0979 55.4267 71.0979 55.363 71.1434L53.3073 72.3259C53.0071 72.4987 52.7342 72.9808 52.7342 73.3265V75.364L52.5068 75.5186C51.6336 76.128 50.7513 76.8466 49.869 77.638L49.587 77.8927L47.8042 76.8649C47.8042 76.8649 47.6677 76.9194 47.5131 77.0923L45.6393 79.1389C45.3209 79.4845 45.2391 79.9484 45.3027 80.0758L46.085 81.6494L45.8758 81.9132C44.9025 83.1411 43.9929 84.4419 43.1652 85.7881L42.9196 86.1883L41.346 85.4607C41.2732 85.4607 41.0094 85.6153 40.8093 85.9791L39.4357 88.5352C39.2538 88.8717 39.272 89.1264 39.2538 89.1355L40.882 90.0269L40.6819 90.4726C40.0543 91.8825 39.5085 93.3015 39.081 94.6932L38.99 94.9934L37.098 95.3754C36.9161 95.4118 36.5614 95.7665 36.4523 96.2122L35.8155 98.8319C35.77 99.0229 35.7973 99.123 35.8337 99.1412L37.8712 100.296L37.8348 100.642C37.7439 101.524 37.6893 102.379 37.6893 103.171V103.589L35.7155 104.972C35.3789 105.208 35.1606 105.699 35.1879 105.981L35.4244 108.265L39.2538 110.448L37.4801 112.658C37.1799 113.031 37.1436 113.431 37.189 113.522L38.1532 114.905C38.3624 115.087 40.5364 116.587 41.828 117.47L48.0133 121.054L50.6421 117.906L49.8235 116.96L49.8326 116.979ZM61.6939 115.068L62.4216 117.088L64.0406 113.076C62.9673 113.44 58.6012 114.877 56.6546 115.114C55.8724 115.205 54.5716 115.232 52.7797 115.187L52.5887 116.342C52.525 116.724 52.3522 117.106 52.1157 117.415L52.2339 119.407L54.699 121.026C57.4551 116.897 57.5642 116.815 57.6279 116.769C57.7462 116.66 58.4557 115.832 59.0651 115.096L59.5108 114.559L61.703 115.059L61.6939 115.068ZM76.5387 96.376L74.9559 95.4664C74.9105 95.8575 74.7741 96.3941 74.5285 97.0945L76.3295 96.5215L76.5387 96.376Z" fill="#16110D"/>
<path d="M46.4492 115.233V109.066C48.5504 109.757 51.1974 109.366 54.0808 107.702C60.9211 103.754 66.4606 94.1486 66.4606 86.2532C66.4606 83.2879 65.6783 80.9866 64.3412 79.4675L72.5914 78.2305C72.5095 78.3487 72.4185 78.467 72.3185 78.567L70.6903 80.1134C70.6993 80.1679 70.7085 80.2134 70.7176 80.268C71.0814 80.3226 71.427 80.3953 71.427 80.3953C71.427 80.3953 72.3458 81.1139 73.1281 82.4238C73.9103 83.7336 75.2838 86.7353 75.2838 86.7353C75.2838 86.7353 74.3651 93.5938 74.4379 95.1674C74.5016 96.7319 71.2361 103.145 70.7812 104.382C70.3264 105.619 64.1138 112.486 64.1138 112.486C64.1138 112.486 58.7562 114.315 56.6004 114.578C55.6362 114.697 53.9353 114.678 52.3344 114.633L52.0615 116.243C51.9614 116.825 51.5157 117.416 51.0609 117.571L50.2423 116.407C49.7875 116.561 49.4964 116.207 49.5964 115.624L48.8142 114.997C47.9955 115.161 47.2133 115.233 46.4583 115.224L46.4492 115.233Z" fill="#16110D"/>
<path d="M49.9879 116.971C49.7695 116.961 49.5785 116.889 49.4148 116.743C49.1783 116.543 49.0509 116.234 49.0418 115.861L48.6689 115.561C47.9139 115.697 47.1408 115.761 46.4495 115.752H45.9219V108.32L46.6223 108.548C48.6689 109.221 51.1612 108.766 53.8173 107.229C60.4938 103.372 65.9333 93.9575 65.9333 86.244C65.9333 83.5061 65.242 81.2775 63.9412 79.8131L63.2954 79.0763L73.674 77.5117L73.0373 78.5032C72.9282 78.6669 72.8099 78.8125 72.6825 78.9398L71.6729 79.904L71.7548 79.9677C71.7548 79.9677 72.7554 80.759 73.5831 82.1417C74.3745 83.4606 75.7116 86.3895 75.7661 86.5078L75.8298 86.6442L75.8116 86.7988C75.8025 86.8625 74.902 93.63 74.9657 95.1399C75.0112 96.3042 73.7195 99.2059 72.155 102.59C71.7457 103.472 71.3909 104.236 71.2727 104.564C70.7997 105.837 65.5512 111.686 64.5052 112.841L64.4142 112.941L64.2869 112.986C64.0686 113.059 58.8474 114.833 56.6643 115.106C55.8821 115.197 54.5813 115.224 52.7894 115.179L52.5984 116.334C52.4711 117.116 51.8889 117.862 51.2431 118.071L50.8701 118.199L50.006 116.971H49.9879ZM52.3437 114.105C54.3085 114.169 55.7457 114.151 56.5279 114.06C58.4199 113.832 62.9771 112.313 63.8048 112.04C66.188 109.403 69.9719 105.037 70.2721 104.209C70.4086 103.845 70.7542 103.099 71.1908 102.153C72.155 100.07 73.9469 96.1951 73.9014 95.1945C73.8378 93.7118 74.6018 87.8722 74.7383 86.8262C74.4563 86.2258 73.3375 83.8153 72.6735 82.7056C72.0913 81.7414 71.4364 81.1138 71.1908 80.9046C71.0635 80.8773 70.8542 80.8409 70.6359 80.8136L70.2357 80.6044L70.1175 79.9495L71.0998 79.0126L65.3238 79.8858C66.4245 81.5049 67.0066 83.6971 67.0066 86.2804C67.0066 94.3304 61.3307 104.154 54.3631 108.184C51.7161 109.712 49.1965 110.249 46.9952 109.785V114.715C47.5592 114.687 48.1322 114.624 48.7144 114.506L48.96 114.46L50.1788 115.433L50.1243 115.743C50.1061 115.824 50.1152 115.888 50.1152 115.925L50.4608 115.806L51.2067 116.87C51.3613 116.698 51.5069 116.443 51.5432 116.188L51.8889 114.114L52.3528 114.133L52.3437 114.105Z" fill="#16110D"/>
<path d="M40.9746 109.628L41.1929 111.866C41.2383 112.375 41.6568 112.521 42.1207 112.193L43.9126 110.938C44.1673 112.048 44.522 113.048 44.9769 113.94L43.3759 115.932C42.9757 116.432 42.8392 117.105 43.0666 117.432L44.0945 118.897C44.331 119.224 44.8404 119.088 45.2406 118.588L46.8779 116.55C47.5328 117.178 48.2787 117.678 49.0882 118.051L47.9603 120.498C47.6875 121.089 47.7693 121.653 48.1423 121.744L49.8069 122.181C50.1798 122.281 50.7074 121.88 50.9802 121.289L52.1264 118.806C53.0633 118.87 54.0638 118.806 55.1008 118.597L54.6915 121.053C54.5914 121.635 54.8825 121.981 55.3373 121.835L57.3475 121.171C57.8023 121.016 58.2481 120.425 58.3481 119.843L58.7574 117.369C59.2941 117.123 59.8308 116.841 60.3765 116.523C60.9223 116.205 61.4589 115.859 61.9956 115.495L62.4049 117.496C62.505 117.969 62.9507 118.042 63.4055 117.669L65.4157 116.013C65.8705 115.641 66.1616 114.958 66.0616 114.485L65.6522 112.502C66.6892 111.511 67.6898 110.429 68.6267 109.273L69.7728 110.438C70.0457 110.71 70.5732 110.51 70.9462 109.974L72.6108 107.618C72.9837 107.081 73.0655 106.426 72.7926 106.153L71.6647 105.007C72.4743 103.697 73.2202 102.333 73.8751 100.95L75.5124 101.096C75.9126 101.132 76.4311 100.677 76.6585 100.077L77.6863 97.4302C77.9228 96.8299 77.7773 96.3205 77.3771 96.2841L75.7762 96.1386C76.231 94.7287 76.5857 93.3188 76.8404 91.9089L78.6324 91.0903C79.0963 90.881 79.5056 90.2534 79.5601 89.6894L79.7785 87.2062C79.824 86.6422 79.4874 86.3603 79.0326 86.5695L77.2861 87.3699C77.2861 87.3244 77.2861 87.2699 77.2861 87.2244C77.2861 85.9601 77.177 84.7866 76.9769 83.7042L78.6051 82.1579C79.0508 81.7395 79.2873 81.0482 79.1418 80.6206L78.505 78.7286C78.3595 78.3011 77.8865 78.292 77.4408 78.7195L75.8581 80.2204C75.4033 79.2835 74.8484 78.4649 74.2026 77.7827L75.4123 75.827C75.758 75.2721 75.7853 74.6354 75.476 74.4171L74.1025 73.4438C73.7932 73.2255 73.2565 73.4984 72.9109 74.0624L71.7375 75.9635C70.9007 75.5632 69.9729 75.3176 68.9905 75.2085L69.6272 73.1982C69.8182 72.5979 69.6273 72.134 69.1997 72.1613L67.3259 72.2795C66.8984 72.3068 66.4072 72.8162 66.2162 73.4165L65.5886 75.3995C64.5152 75.6178 63.3964 75.9816 62.2412 76.5001V74.7355C62.2412 74.1988 61.8683 73.9805 61.4044 74.2534L59.3487 75.4359C58.8848 75.6997 58.5118 76.3546 58.5118 76.8912V78.6559C57.3566 79.4654 56.2378 80.4023 55.1645 81.4211L54.5368 80.1658C54.3458 79.7838 53.8546 79.8475 53.4271 80.3114L51.5533 82.358C51.1258 82.8219 50.9348 83.5041 51.1258 83.8861L51.7625 85.1596C50.7801 86.3967 49.8615 87.7156 49.0155 89.08L47.8421 88.5343C47.4964 88.3705 46.9689 88.7161 46.6505 89.2892L45.277 91.8452C44.9677 92.4273 44.995 93.0186 45.3407 93.1823L46.5505 93.7372C45.9046 95.1744 45.3498 96.6297 44.895 98.0942L43.3123 98.4126C42.8665 98.5036 42.3936 99.0584 42.248 99.6496L41.6113 102.269C41.4658 102.861 41.7114 103.27 42.148 103.179L43.7762 102.851C43.5761 104.161 43.4669 105.462 43.4669 106.726C43.4669 106.772 43.4669 106.817 43.4669 106.872L41.7204 108.091C41.2565 108.409 40.92 109.082 40.9746 109.592V109.628ZM47.9968 104.152C47.9968 96.2568 53.5363 86.6513 60.3765 82.7036C67.2168 78.7559 72.7563 81.9577 72.7563 89.8531C72.7563 97.7485 67.2168 107.354 60.3765 111.302C53.5363 115.249 47.9968 112.048 47.9968 104.152Z" fill="#D3F468"/>
<path d="M42.1125 112.102L43.9045 110.847C44.1592 111.956 44.5139 112.957 44.9687 113.848L44.3774 114.576C44.5502 115.058 44.7504 115.522 44.9687 115.959L43.4315 117.869L44.0863 118.797C44.3228 119.124 44.8322 118.988 45.2325 118.487L46.8697 116.45C47.5247 117.078 48.2706 117.578 49.0801 117.951L48.3069 119.624C48.5616 119.779 48.8073 119.934 49.0801 120.061L48.3251 121.698L49.7987 122.08C50.1717 122.18 50.6992 121.78 50.9721 121.189L52.1182 118.706C53.0551 118.769 54.0557 118.706 55.0926 118.497L54.7288 120.661C54.847 120.643 54.9653 120.634 55.0926 120.616L54.9107 121.698C55.0199 121.771 55.1563 121.798 55.3291 121.744L57.3393 121.08C57.7942 120.925 58.2399 120.334 58.3399 119.752L58.7493 117.278C59.286 117.032 59.8226 116.75 60.3684 116.432C60.9141 116.113 61.4508 115.768 61.9875 115.404L62.3968 117.405C62.4968 117.878 62.9426 117.951 63.3974 117.578L65.4076 115.922C65.5804 115.786 65.7169 115.595 65.826 115.395L65.6441 114.522C65.7623 114.403 65.8806 114.276 65.9988 114.158L65.635 112.411C66.6719 111.42 67.6725 110.337 68.6094 109.182L69.7555 110.346C70.0284 110.619 70.556 110.419 70.9289 109.883L72.4025 107.8L71.6475 107.035C71.9204 106.599 72.166 106.153 72.4207 105.707L71.6475 104.925C72.4571 103.615 73.2029 102.251 73.8579 100.868L75.4952 101.014C75.8954 101.05 76.4139 100.595 76.6413 99.9951L77.2962 98.3033L75.7589 98.1668C75.9772 97.4846 76.1774 96.7933 76.3502 96.1111L75.7589 96.0565C76.2137 94.6466 76.5685 93.2368 76.8232 91.8269L78.6151 91.0082C79.079 90.799 79.4883 90.1714 79.5429 89.6074L79.6248 88.7069C79.4883 88.5431 79.2791 88.4886 79.0153 88.6068L77.2689 89.4073C77.2689 89.3618 77.2689 89.3072 77.2689 89.2618C77.2689 87.9974 77.1597 86.824 76.9596 85.7416L77.1961 85.5142C77.1415 84.8593 77.0688 84.2225 76.9596 83.6222L78.5878 82.0758C78.6788 81.9849 78.7606 81.8848 78.8334 81.7756L78.4969 80.766C78.3513 80.3385 77.8783 80.3294 77.4326 80.7569L75.8499 82.2578C75.3951 81.3209 74.8402 80.5022 74.1944 79.82L74.9312 78.6284C74.6947 78.301 74.4582 77.9917 74.1944 77.7097L75.1131 76.2179L74.0853 75.4903C73.776 75.272 73.2393 75.5448 72.8937 76.1088L71.7203 78.0099C70.8834 77.6097 69.9557 77.3641 68.9733 77.2549L69.6009 75.2629C69.3917 75.2265 69.1916 75.1719 68.9733 75.1446L69.2644 74.235C69.2644 74.235 69.2189 74.2168 69.1825 74.2168L67.3087 74.3351C66.8812 74.3623 66.3899 74.8717 66.1989 75.4721L65.5713 77.455C64.498 77.6733 63.3791 78.0372 62.2239 78.5556V76.791C62.2239 76.2543 61.851 76.0361 61.3871 76.3089L59.3314 77.4914C58.8675 77.7552 58.4946 78.4101 58.4946 78.9468V80.7114C57.3394 81.521 56.2206 82.4578 55.1472 83.4766L54.5196 82.2214C54.3286 81.8394 53.8373 81.903 53.4098 82.3669L51.536 84.4135C51.536 84.4135 51.4815 84.4863 51.4542 84.5318L51.7453 85.1139C51.527 85.3868 51.3269 85.6779 51.1177 85.9599L51.7453 87.2242C50.7629 88.4613 49.8442 89.7802 48.9983 91.1447L47.8249 90.5989C47.4792 90.4351 46.9517 90.7808 46.6333 91.3538L45.6054 93.264L46.5241 93.6915C46.2604 94.2737 46.0239 94.874 45.7874 95.4653L46.5241 95.811C45.8783 97.2481 45.3235 98.7035 44.8686 100.168L43.2859 100.486C42.8402 100.577 42.3672 101.132 42.2217 101.723L41.8851 103.124C41.9579 103.142 42.0398 103.161 42.1307 103.142L43.7589 102.815C43.6497 103.543 43.577 104.261 43.5224 104.98L43.7589 104.934C43.5588 106.244 43.4497 107.545 43.4497 108.809C43.4497 108.855 43.4497 108.9 43.4497 108.955L41.7032 110.174C41.4394 110.356 41.2211 110.665 41.0938 110.983L41.1756 111.793C41.2211 112.302 41.6395 112.448 42.1034 112.12L42.1125 112.102ZM48.0432 105.107C48.0159 104.761 47.9977 104.425 47.9977 104.061C47.9977 96.1656 53.5372 86.5602 60.3775 82.6125C67.2177 78.6648 72.7572 81.8666 72.7572 89.762C72.7572 90.1168 72.7299 90.4715 72.7118 90.8354C72.739 91.181 72.7572 91.5176 72.7572 91.8814C72.7572 99.7768 67.2177 109.382 60.3775 113.33C53.5372 117.278 47.9977 114.076 47.9977 106.18C47.9977 105.826 48.025 105.471 48.0432 105.107Z" fill="white"/>
<path d="M49.6699 122.699L48.0053 122.262C47.7324 122.189 47.505 121.998 47.3777 121.735C47.1867 121.334 47.223 120.807 47.4686 120.279L48.3873 118.296C47.8689 118.023 47.3867 117.696 46.941 117.314L45.6585 118.915C45.2947 119.36 44.8581 119.642 44.4124 119.597C44.1031 119.588 43.8393 119.442 43.6574 119.197L42.6295 117.732C42.2566 117.205 42.4021 116.286 42.9569 115.586L44.3396 113.857C44.0394 113.221 43.7847 112.529 43.5755 111.802L42.4112 112.611C42.0201 112.893 41.5835 112.948 41.2287 112.793C40.9013 112.638 40.692 112.32 40.6466 111.902L40.4283 109.664C40.3646 108.964 40.783 108.109 41.4016 107.681L42.9206 106.626C42.9206 105.644 42.9933 104.607 43.1298 103.551L42.2384 103.733C41.8927 103.797 41.5562 103.706 41.3288 103.47C41.0468 103.169 40.9558 102.706 41.0832 102.178L41.7199 99.5583C41.9109 98.7579 42.5476 98.0574 43.1935 97.9301L44.4669 97.6754C44.8581 96.4656 45.3129 95.2468 45.8404 94.037L45.1037 93.7004C44.8581 93.5913 44.6761 93.3729 44.5852 93.1001C44.4487 92.6816 44.5215 92.1359 44.7944 91.6265L46.1679 89.0705C46.6227 88.2246 47.4323 87.7971 48.0508 88.0791L48.7967 88.4247C49.5153 87.2785 50.2975 86.1689 51.1162 85.1137L50.634 84.1404C50.343 83.5583 50.5704 82.6487 51.1434 82.021L53.0172 79.9744C53.3993 79.556 53.8541 79.3559 54.2725 79.4196C54.5908 79.465 54.8546 79.656 55.0002 79.9562L55.3094 80.5748C56.1827 79.7834 57.0741 79.0557 57.9655 78.4099V76.9181C57.9655 76.1905 58.4385 75.3627 59.0752 74.9989L61.131 73.8163C61.5221 73.5889 61.9314 73.5707 62.2589 73.7618C62.5863 73.9528 62.7682 74.3167 62.7682 74.7624V75.7266C63.5778 75.3991 64.3874 75.1535 65.1696 74.9716L65.7063 73.2888C65.961 72.4702 66.6432 71.8243 67.289 71.7879L69.1628 71.6697C69.4902 71.6515 69.7904 71.7789 69.9814 72.0335C70.2452 72.3701 70.2907 72.8613 70.127 73.398L69.6813 74.8078C70.3271 74.917 70.9365 75.0989 71.5187 75.3263L72.4555 73.8163C72.7557 73.3252 73.1924 72.9886 73.6199 72.8977C73.9019 72.8431 74.1838 72.8977 74.4021 73.0432L75.7756 74.0165C76.3305 74.4076 76.3669 75.3172 75.8575 76.1359L74.8569 77.7459C75.2844 78.237 75.6665 78.7828 76.003 79.3741L77.0764 78.3553C77.4675 77.9824 77.9223 77.8277 78.3225 77.9278C78.6409 78.0097 78.8956 78.2462 79.0047 78.5827L79.6415 80.4747C79.8507 81.1023 79.5596 81.9937 78.9593 82.5668L77.5403 83.9221C77.6858 84.7681 77.7677 85.6595 77.7949 86.5782L78.7955 86.1234C79.1776 85.9505 79.5687 85.9687 79.8598 86.1779C80.1781 86.4053 80.3328 86.8055 80.2964 87.2876L80.0781 89.7709C80.0144 90.5259 79.4868 91.3172 78.841 91.6083L77.2947 92.3087C77.0855 93.4184 76.8035 94.5555 76.467 95.6925L77.4129 95.7743C77.7222 95.8016 77.9769 95.9653 78.1406 96.2291C78.368 96.593 78.3771 97.1114 78.1679 97.6481L77.1401 100.295C76.8217 101.123 76.1031 101.723 75.4482 101.65L74.1747 101.541C73.6108 102.696 72.9831 103.843 72.31 104.961L73.1469 105.807C73.6108 106.271 73.5471 107.199 73.0195 107.954L71.355 110.31C71.0184 110.783 70.5727 111.083 70.1361 111.119C69.845 111.156 69.563 111.047 69.3629 110.847L68.6261 110.101C67.853 111.019 67.0343 111.902 66.1974 112.711L66.5431 114.412C66.6795 115.076 66.3248 115.959 65.7154 116.459L63.7051 118.114C63.3049 118.442 62.8683 118.551 62.4863 118.414C62.1588 118.296 61.9223 118.014 61.8495 117.632L61.5948 116.404C61.2583 116.623 60.9217 116.823 60.6034 117.014C60.1486 117.277 59.6756 117.523 59.1935 117.76L58.8296 119.961C58.7023 120.743 58.1201 121.489 57.4743 121.698L55.4641 122.362C55.1002 122.48 54.7364 122.426 54.4726 122.198C54.1634 121.935 54.0451 121.498 54.127 120.989L54.418 119.26C53.7358 119.351 53.0627 119.388 52.426 119.37L51.4254 121.534C51.0888 122.271 50.4522 122.753 49.8791 122.753C49.7972 122.753 49.7154 122.744 49.6335 122.717L49.6699 122.699ZM52.1622 118.278C53.0536 118.342 54.0087 118.278 55.0002 118.078L55.7551 117.932L55.2185 121.152C55.2003 121.234 55.2094 121.298 55.2094 121.334L57.1923 120.679C57.4288 120.598 57.7654 120.188 57.8291 119.77L58.2839 117.023L58.5385 116.904C59.0752 116.659 59.6028 116.377 60.1213 116.086C60.6306 115.795 61.1674 115.449 61.704 115.085L62.368 114.63L62.8683 117.396C62.8683 117.396 62.9501 117.396 63.0866 117.277L65.0968 115.622C65.4243 115.358 65.6153 114.858 65.5608 114.612L65.0877 112.338L65.2969 112.138C66.3157 111.165 67.2981 110.101 68.2259 108.964L68.5988 108.509L70.0906 110.055C70.1361 110.055 70.3362 109.964 70.5272 109.691L72.1918 107.335C72.4556 106.963 72.4647 106.608 72.4374 106.553L71.0093 105.116L71.2276 104.761C72.0281 103.461 72.7649 102.114 73.4107 100.75L73.5653 100.413L75.5664 100.595C75.6665 100.595 76.003 100.359 76.1759 99.913L77.2037 97.2661C77.3038 97.0114 77.2856 96.8385 77.3401 96.8385L75.0843 96.6384L75.2845 96.0108C75.7302 94.61 76.0849 93.2092 76.3305 91.8539L76.376 91.581L78.4226 90.6441C78.6864 90.5259 79.0048 90.0892 79.0412 89.6799L79.2595 87.1967C79.2686 87.0421 79.2595 87.0603 79.2595 87.0876L77.513 87.888L76.7671 88.0881V87.2604C76.7671 86.0597 76.6671 84.9136 76.467 83.8311L76.4124 83.5492L78.2497 81.8027C78.5863 81.4844 78.7137 81.0023 78.65 80.8203L78.0951 78.9739C78.0951 78.9739 77.9678 79.0011 77.8223 79.1376L75.7211 81.1387L75.4027 80.4838C74.9752 79.6015 74.4476 78.8283 73.8291 78.1734L73.5471 77.8732L74.9661 75.5719C75.1844 75.2172 75.1844 74.917 75.1753 74.8806L73.8564 73.9346C73.8018 73.9346 73.5744 74.0438 73.3652 74.3712L71.9371 76.6725L71.5096 76.4724C70.7273 76.0995 69.8632 75.863 68.9354 75.7629L68.2896 75.6901L69.1173 73.0614C69.181 72.8704 69.1719 72.743 69.1992 72.7158L67.3527 72.834C67.2162 72.834 66.8615 73.1432 66.7159 73.598L65.9973 75.8721L65.6881 75.9357C64.642 76.145 63.5505 76.5088 62.4499 77L61.704 77.3365V74.7533C61.704 74.7533 61.704 74.7169 61.704 74.7078C61.6949 74.7078 61.6767 74.7169 61.6585 74.7351L59.6028 75.9175C59.3026 76.0904 59.0298 76.5634 59.0298 76.9181V78.9557L58.8024 79.1103C57.6926 79.8925 56.5829 80.8022 55.5095 81.8209L54.9911 82.3212L54.127 80.4656C54.127 80.4656 53.9723 80.502 53.7995 80.693L51.9257 82.7396C51.6074 83.0852 51.5255 83.5492 51.5801 83.6765L52.3623 85.2501L52.1531 85.5139C51.1799 86.7419 50.2702 88.0426 49.4425 89.3888L49.1969 89.7891L47.6323 89.0523C47.5596 89.0523 47.2958 89.2069 47.0957 89.5708L45.7222 92.1268C45.5403 92.4633 45.5585 92.718 45.5403 92.7271L47.223 93.5094L47.0047 93.9915C46.3589 95.4196 45.8131 96.8659 45.3674 98.2939L45.2764 98.5941L43.3936 98.9761C43.2026 99.0125 42.8569 99.3673 42.7478 99.813L42.111 102.433C42.0746 102.569 42.0837 102.66 42.0656 102.687L44.4033 102.214L44.285 102.969C44.0849 104.288 43.9848 105.562 43.9848 106.762V107.181L42.011 108.563C41.6744 108.8 41.4561 109.291 41.4834 109.573L41.629 111.829C41.629 111.829 41.7017 111.811 41.7927 111.756L44.2304 110.046L44.4033 110.819C44.6397 111.874 44.9854 112.839 45.422 113.703L45.5766 114.012L43.7665 116.268C43.4663 116.641 43.43 117.041 43.4754 117.132L44.4215 118.551C44.4669 118.551 44.6307 118.478 44.8035 118.26L46.8046 115.777L47.223 116.177C47.8325 116.759 48.5329 117.232 49.2878 117.578L49.7699 117.796L48.4146 120.734C48.2782 121.034 48.2964 121.243 48.2509 121.243L49.8973 121.671C49.9791 121.671 50.2793 121.48 50.4703 121.071L51.7711 118.251L52.1349 118.278H52.1622ZM51.3527 112.629C48.8422 111.183 47.4595 108.172 47.4595 104.152C47.4595 96.1018 53.1355 86.2689 60.1031 82.2484C63.5778 80.2382 66.8797 79.9289 69.3902 81.3843C71.9007 82.8306 73.2833 85.8414 73.2833 89.8618C73.2833 97.9119 67.6073 107.736 60.6397 111.765C58.6022 112.939 56.6284 113.53 54.8455 113.53C53.5721 113.53 52.3987 113.23 51.3527 112.629ZM60.1122 110.847C66.7887 106.99 72.2281 97.5753 72.2281 89.8618C72.2281 86.2416 71.0366 83.5583 68.8626 82.303C66.6978 81.0477 63.7779 81.357 60.6397 83.1671C53.9632 87.0239 48.5237 96.4383 48.5237 104.152C48.5237 107.772 49.7153 110.455 51.8802 111.702C54.0451 112.957 56.965 112.648 60.1031 110.837L60.1122 110.847Z" fill="#16110D"/>
<path d="M69.5543 73.9597L68.9766 74.8535L71.4516 76.4535L72.0294 75.5597L69.5543 73.9597Z" fill="#16110D"/>
<path d="M66.8328 70.1251L66.3008 71.0469L69.2709 72.761L69.8029 71.8392L66.8328 70.1251Z" fill="#16110D"/>
<path d="M59.5632 71.3339L59.0352 72.2578L65.3213 75.8506L65.8494 74.9267L59.5632 71.3339Z" fill="#16110D"/>
<path d="M58.534 71.6671L58.0038 72.5898L61.6318 74.6744L62.162 73.7516L58.534 71.6671Z" fill="#16110D"/>
<path d="M52.4972 74.6836L51.9688 75.6074L58.2537 79.2025L58.7821 78.2786L52.4972 74.6836Z" fill="#16110D"/>
<path d="M49.7997 76.7787L49.2656 77.6992L53.9234 80.4014L54.4574 79.4809L49.7997 76.7787Z" fill="#16110D"/>
<path d="M45.7356 81.1037L45.207 82.0273L51.4913 85.6235L52.0199 84.6998L45.7356 81.1037Z" fill="#16110D"/>
<path d="M41.7979 84.4512L41.2695 85.375L47.5545 88.9701L48.0829 88.0463L41.7979 84.4512Z" fill="#16110D"/>
<path d="M40.4833 89.7865L39.9492 90.707L45.0634 93.674L45.5974 92.7534L40.4833 89.7865Z" fill="#16110D"/>
<path d="M38.8761 94.1426L38.3477 95.0664L44.6326 98.6615L45.161 97.7377L38.8761 94.1426Z" fill="#16110D"/>
<path d="M37.5714 100.082L37.043 101.006L41.4566 103.531L41.9851 102.607L37.5714 100.082Z" fill="#16110D"/>
<path d="M37.4386 102.799L36.9102 103.723L43.1951 107.318L43.7235 106.394L37.4386 102.799Z" fill="#16110D"/>
<path d="M38.7316 110.156L38.207 111.082L41.2858 112.826L41.8103 111.9L38.7316 110.156Z" fill="#16110D"/>
<path d="M44.6843 114.394L45.2392 113.485L42.383 111.738L41.8281 112.639L44.6843 114.394Z" fill="#16110D"/>
</svg>
