<svg width="124" height="124" viewBox="0 0 124 124" fill="none" xmlns="http://www.w3.org/2000/svg">
<path d="M11.7891 91.0702V33.9902L60.3691 62.3202V119.41L11.7891 91.0702Z" fill="#D3F468"/>
<path d="M11.7891 33.9899L63.3191 3.91992L112.589 31.9599L60.3691 62.3199L11.7891 33.9899Z" fill="#D3F468"/>
<path d="M11.7812 37.5798L63.3213 7.50977L112.581 35.5398L60.3613 65.9098L11.7812 37.5798Z" fill="white"/>
<path d="M113.39 32.41V31.4901L112.59 31.04L63.32 3L11.79 33.07L11 33.53V34.44V91.52L59.58 119.86L60.37 120.32L61.17 119.86L113.39 89.5V32.41ZM13.37 33.9901L63.33 4.83002L111 31.96L60.32 61.36L32.78 45.31L13.37 33.9901ZM12.59 90.61V35.37L33.23 47.4L59.58 62.76V118.02L12.59 90.61Z" fill="#16110D"/>
<path d="M95.2991 65.5203L79.6591 74.5503C77.5191 75.7803 75.7891 74.4702 75.7891 71.6302C75.7891 68.7802 77.5191 65.4703 79.6591 64.2403L95.2991 55.2103C97.4391 53.9803 99.1691 55.2902 99.1691 58.1302C99.1691 60.9802 97.4391 64.2903 95.2991 65.5203Z" fill="white"/>
<path d="M79.6591 64.3104C77.5191 65.5404 75.7891 68.8504 75.7891 71.7004C75.7891 72.0804 76.0891 72.3505 76.1391 72.6705C76.3991 72.5905 76.4091 72.5605 76.6891 72.4005L92.329 63.3704C94.469 62.1404 96.1991 58.8305 96.1991 55.9805C96.1991 55.6005 96.1691 55.2604 96.1091 54.9404C95.8491 55.0204 95.5791 55.1305 95.2991 55.2905L79.6591 64.3204V64.3104Z" fill="#D3F468"/>
<path d="M98.2388 54.2906C97.7888 54.0306 97.2888 53.9207 96.7588 53.9307V53.8906L96.6088 53.9307C96.0588 53.9707 95.4788 54.1607 94.8888 54.4907L79.2488 63.5206C76.8488 64.9006 74.9688 68.4606 74.9688 71.6206C74.9688 71.6306 74.9688 71.6406 74.9688 71.6506C74.9688 71.6606 74.9688 71.6806 74.9688 71.6906C74.9688 71.7106 74.9788 71.7306 74.9788 71.7606C75.0088 73.4806 75.6287 74.8306 76.7087 75.4506C77.1387 75.7006 77.6088 75.8206 78.1088 75.8206C78.7288 75.8206 79.3888 75.6306 80.0588 75.2506L95.6988 66.2206C98.0988 64.8406 99.9788 61.2806 99.9788 58.1206C99.9788 56.3306 99.3388 54.9306 98.2288 54.2906H98.2388ZM76.6288 71.2706C76.7888 68.8206 78.2888 66.0306 80.0688 65.0106L95.3888 56.1606C95.3088 58.6606 93.7588 61.5906 91.9288 62.6506L76.6188 71.4907C76.6188 71.4207 76.6288 71.3406 76.6388 71.2706H76.6288ZM94.8888 64.8106L79.2488 73.8406C78.7788 74.1106 78.0887 74.3706 77.5287 74.0406C77.2587 73.8806 77.0388 73.5906 76.8788 73.2106C76.9488 73.1706 76.9987 73.1406 77.0887 73.0906L92.7288 64.0606C95.1288 62.6806 97.0088 59.1206 97.0088 55.9606C97.0088 55.8206 96.9788 55.7106 96.9788 55.5806C97.1288 55.6006 97.2788 55.6106 97.4188 55.6906C97.9988 56.0306 98.3488 56.9307 98.3488 58.1107C98.3488 60.6507 96.7688 63.7107 94.8888 64.8007V64.8106Z" fill="#16110D"/>
<path d="M83.3619 16.2705L31.4219 46.3605V61.2705L43.1919 68.1305V53.1505L95.2319 23.0305L83.3619 16.2705Z" fill="#D3F468"/>
<path d="M94.5906 20.8007L81.1206 13.1406L29.1806 43.2307L28.3906 43.6906V44.6107V59.5106L41.7506 67.3007V51.4006L94.5906 20.8106V20.8007ZM81.1306 14.9706L91.4006 20.8206L40.9506 50.0206L30.7706 44.1406L81.1306 14.9706ZM29.9806 58.5906V45.5206L40.1606 51.3906V64.5306L29.9806 58.5906Z" fill="#16110D"/>
<path d="M51.8082 107.71L41.9081 102C40.7581 101.34 39.8281 99.56 39.8281 98.03V88.1C39.8281 86.57 40.7581 85.86 41.9081 86.53L51.8082 92.24C52.9582 92.9 53.8882 94.68 53.8882 96.21V106.14C53.8882 107.67 52.9582 108.37 51.8082 107.71Z" fill="white"/>
<path d="M50.8483 105.26C50.4483 105.26 50.0283 105.14 49.6183 104.91L39.7183 99.2C38.3283 98.4 37.2383 96.35 37.2383 94.54V84.61C37.2383 83.51 37.6483 82.65 38.3583 82.24C38.9783 81.88 39.7682 81.92 40.5182 82.35L50.4183 88.06C51.8083 88.86 52.8883 90.91 52.8883 92.72V102.65C52.8883 103.75 52.4782 104.61 51.7682 105.02C51.4882 105.18 51.1683 105.26 50.8383 105.26H50.8483ZM39.2983 83.57C39.2483 83.57 39.1983 83.57 39.1583 83.6C38.9983 83.69 38.8383 84.04 38.8383 84.59V94.52C38.8383 95.75 39.6282 97.29 40.5182 97.81L50.4183 103.53C50.5283 103.6 50.8183 103.73 50.9783 103.64C51.1383 103.55 51.2983 103.2 51.2983 102.64V92.71C51.2983 91.48 50.5183 89.94 49.6183 89.42L39.7183 83.71C39.6383 83.66 39.4483 83.57 39.2883 83.57H39.2983Z" fill="#16110D"/>
</svg>
