<svg width="124" height="124" viewBox="0 0 124 124" fill="none" xmlns="http://www.w3.org/2000/svg">
<path d="M23.9915 107.077C26.4115 96.7769 31.6816 80.847 41.9216 74.767C43.8816 73.6069 46.5115 72.0269 48.0115 71.1369L48.6716 64.307C48.1016 64.027 47.5116 63.6969 46.9316 63.3169L46.8615 63.277L46.6415 63.117C45.2115 62.167 44.1215 60.997 43.7115 58.967L42.8915 55.397L40.0815 42.8869C39.9815 42.4969 39.8815 42.097 39.8115 41.677L39.7415 41.357H39.7615C39.6115 40.397 39.5015 39.407 39.4915 38.327C39.3615 27.347 46.9215 13.897 56.3615 8.29698C60.6915 5.72698 64.2416 5.12698 67.2816 6.41698L67.7115 6.55699L67.9415 6.68693C68.2915 6.84693 68.6415 7.03694 68.9615 7.25694L76.9515 11.667L77.3815 12.547L73.4915 15.477C73.6015 16.287 73.6815 17.137 73.6915 18.047C73.7015 19.087 73.7115 19.887 73.5815 20.967L73.5215 21.217L73.4415 21.8869C73.3615 22.4869 73.2816 22.817 73.1716 23.417L70.0015 43.367C69.4815 46.917 67.5916 51.7169 65.1716 55.2569L65.9815 60.657C67.4715 59.777 70.1415 58.0269 72.0815 56.8769C76.0815 54.5069 79.0215 54.357 81.7015 55.667L82.0615 55.8169L82.9915 56.337C82.9915 56.337 83.0116 56.337 83.0215 56.357L90.0115 60.247L88.4415 62.777C89.2915 64.367 90.0015 66.037 90.5715 67.607C91.7815 70.957 89.2615 76.6469 85.6015 78.827L57.9316 95.237L56.7315 95.9469L35.3515 108.627C35.0715 111.187 34.6215 114.647 34.3915 116.447C34.3115 117.037 33.6716 117.347 33.1616 117.057L25.3815 112.717C23.9915 111.937 23.3415 109.887 24.0015 107.097L23.9915 107.077Z" fill="#D3F468"/>
<path d="M24.7239 110.978C27.1439 100.678 32.414 84.7476 42.654 78.6676C44.614 77.5076 47.2439 75.9276 48.7439 75.0376L65.8739 84.4976L67.284 73.9476L59.3539 68.9576L49.9539 66.9976L49.424 64.2276C47.994 63.2776 47.7539 62.1676 47.3439 60.1276L43.6239 59.2876L40.8139 46.7776C40.7139 46.3876 40.614 45.9876 40.544 45.5676L40.4739 45.2476H40.4939C40.3439 44.2876 40.2339 43.2976 40.2239 42.2176C40.0939 31.2376 47.6539 17.7876 57.0939 12.1876C61.4239 9.61756 64.9739 9.01762 68.014 10.3076L68.4439 10.4476L68.674 10.5776C69.024 10.7376 69.3739 10.9276 69.6939 11.1476L77.684 15.5576L78.1139 16.4376L74.2239 19.3676C74.3339 20.1776 74.414 21.0276 74.424 21.9376C74.434 22.9776 74.4439 23.7776 74.3139 24.8576L74.2539 25.1076L74.174 25.7776C74.094 26.3776 74.014 26.7076 73.904 27.3076L70.7339 47.2576C70.2139 50.8076 68.324 55.6076 65.904 59.1476L66.7139 64.5476C68.2039 63.6676 70.8739 61.9176 72.8139 60.7676C76.8139 58.3976 79.754 58.2476 82.434 59.5576L82.794 59.7076L83.7239 60.2276C83.7239 60.2276 83.7439 60.2276 83.7539 60.2376L90.7439 64.1276L89.174 66.6576C90.024 68.2476 90.734 69.9176 91.304 71.4876C92.514 74.8376 89.9939 80.5276 86.3339 82.7076L58.664 99.1176L57.4639 99.8276L36.0839 112.508C35.8039 115.068 35.4439 112.418 35.2039 114.218C35.1239 114.808 34.4839 115.118 33.9739 114.828L28.294 114.418L28.054 111.798C26.664 111.018 24.0739 113.768 24.7239 110.978Z" fill="white"/>
<path d="M32.803 117.667L25.0129 113.327C23.2429 112.337 22.5729 109.867 23.2729 106.897C26.0029 95.267 31.393 80.147 41.5429 74.117L47.3128 70.677L47.8929 64.707C47.4329 64.467 46.953 64.187 46.423 63.847L46.2329 63.707C44.9929 62.887 43.5029 61.607 42.9929 59.107L39.3729 43.047C39.2629 42.637 39.1629 42.227 39.0929 41.817L38.933 40.967L38.9629 40.947C38.8329 40.027 38.7629 39.167 38.7529 38.317C38.6229 27.117 46.3529 13.357 55.9829 7.64701C60.5129 4.95701 64.3029 4.337 67.5129 5.697L68.0628 5.887L68.2429 5.98704C68.6329 6.16704 69.0028 6.367 69.3128 6.577L77.5029 11.097L78.303 12.727L74.2729 15.767C74.3729 16.567 74.423 17.277 74.433 17.997C74.433 18.947 74.4528 19.837 74.3128 21.087L74.1929 21.937C74.1329 22.387 74.0729 22.687 74.0029 23.057L70.7529 43.427C70.2129 47.107 68.3029 51.877 65.9629 55.387L66.5628 59.407C67.0828 59.087 67.6629 58.717 68.2629 58.337C69.4329 57.597 70.6829 56.807 71.7229 56.197C75.6829 53.847 78.9629 53.457 82.0029 54.937L91.053 59.917L89.303 62.737C90.033 64.147 90.6929 65.677 91.2729 67.287C92.5929 70.947 89.9229 77.047 85.9829 79.387L36.053 108.997C35.773 111.517 35.3529 114.747 35.1229 116.467C35.0529 116.977 34.7429 117.427 34.2729 117.657C34.0529 117.767 33.8128 117.827 33.5628 117.827C33.2928 117.827 33.033 117.757 32.793 117.627L32.803 117.667ZM81.803 56.487L81.4029 56.317C78.7729 55.037 76.0129 55.397 72.4729 57.497C71.4429 58.107 70.2029 58.887 69.0429 59.617C68.0229 60.257 67.0729 60.867 66.3729 61.277L65.433 61.837L64.423 55.067L64.5829 54.827C66.8829 51.457 68.7729 46.807 69.2929 43.237L72.4629 23.267L72.553 22.797C72.623 22.467 72.6729 22.187 72.7229 21.787L72.8128 21.027L72.8529 20.857C72.9629 19.857 72.9629 19.127 72.9529 18.037C72.9529 17.257 72.8829 16.467 72.7529 15.557L72.6929 15.127L76.4429 12.297L68.553 7.84702C68.253 7.65702 67.9429 7.48705 67.5729 7.30705L66.9829 7.077C64.1729 5.887 60.8129 6.48703 56.7229 8.91703C47.4929 14.387 40.0829 27.567 40.2129 38.307C40.2129 39.237 40.3129 40.187 40.4729 41.207L40.5229 41.527C40.5929 41.927 40.6829 42.307 40.7929 42.707L44.4129 58.797C44.7429 60.397 45.5028 61.467 47.0628 62.507L47.3229 62.687C47.8729 63.047 48.4429 63.367 48.9929 63.637L49.4429 63.867L48.7029 71.577L42.2929 75.397C32.0729 81.457 26.8829 97.957 24.7029 107.247C24.1729 109.517 24.5729 111.407 25.7229 112.057L33.6529 116.327C33.8929 114.527 34.3329 111.087 34.6129 108.527L34.6529 108.167L85.2129 78.177C88.5629 76.187 90.9629 70.877 89.8729 67.847C89.2629 66.157 88.5629 64.567 87.7829 63.117L87.5829 62.747L88.9629 60.517L81.7729 56.507L81.803 56.487Z" fill="#16110D"/>
<path d="M32.5642 111.856C34.9842 101.556 40.2542 85.6263 50.4942 79.5463C52.4542 78.3863 55.0842 76.8063 56.5842 75.9163L57.2442 69.0862C55.2442 68.0862 52.8743 66.6363 52.2743 63.7463L51.4542 60.1763L48.6442 47.6662C48.5442 47.2762 48.4442 46.8762 48.3742 46.4562L48.3043 46.1362H48.3242C48.1742 45.1762 48.0643 44.1863 48.0543 43.1063C47.9243 32.1263 55.4843 18.6762 64.9243 13.0762C74.3743 7.47622 82.1342 11.8362 82.2642 22.8162C82.2742 23.8562 82.2843 24.6563 82.1543 25.7363L82.0942 25.9863L82.0142 26.6562C81.9442 27.2562 81.8542 27.5862 81.7442 28.1862L78.5742 48.1362C78.0542 51.6862 76.1642 56.4862 73.7442 60.0262L74.5543 65.4263C76.0443 64.5463 78.7143 62.7962 80.6543 61.6462C90.9243 55.5562 96.5042 65.0563 99.1342 72.3563C100.344 75.7063 97.8243 81.3962 94.1643 83.5762L66.4942 99.9863L65.2943 100.696L37.7242 117.046C34.0642 119.216 31.4443 116.576 32.5543 111.846L32.5642 111.856Z" fill="#D3F468"/>
<path d="M33.2427 117.906C31.7227 116.786 31.2027 114.466 31.8527 111.686C34.5827 100.056 39.9727 84.9361 50.1327 78.9061L55.9028 75.4661L56.4827 69.4961C54.3327 68.3661 52.1827 66.7861 51.5827 63.8961L47.9627 47.8361C47.8527 47.4261 47.7627 47.0161 47.6927 46.6061L47.5127 45.7361L47.5528 45.7161C47.4228 44.8061 47.3627 43.9461 47.3527 43.1061C47.2227 31.9061 54.9527 18.1461 64.5827 12.4361C69.3927 9.58608 73.9727 9.1061 77.4827 11.0761C80.9927 13.0461 82.9628 17.2161 83.0328 22.7961C83.0328 23.7461 83.0528 24.6461 82.9128 25.8861L82.7928 26.7361C82.7328 27.1761 82.6727 27.4861 82.6027 27.8461L79.3527 48.2261C78.8127 51.9061 76.9027 56.6761 74.5627 60.1861L75.1628 64.2061C75.6828 63.8861 76.2727 63.5061 76.8827 63.1261C78.0427 62.3961 79.2827 61.6061 80.3227 60.9961C83.8027 58.9361 87.0628 58.4261 90.0328 59.4861C95.0728 61.2961 98.1627 67.3361 99.8827 72.0861C101.203 75.7461 98.5327 81.8461 94.5927 84.1861L38.1528 117.656C37.1728 118.236 36.2127 118.526 35.3327 118.526C34.5727 118.526 33.8728 118.306 33.2828 117.876L33.2427 117.906ZM81.0428 62.2861C80.0228 62.8961 78.7928 63.6661 77.6428 64.3961C76.6128 65.0461 75.6527 65.6561 74.9427 66.0661L74.0027 66.6261L72.9927 59.8561L73.1528 59.6161C75.4428 56.2461 77.3427 51.5961 77.8627 48.0261L81.0328 28.0561L81.1227 27.5761C81.1927 27.2461 81.2428 26.9661 81.2928 26.5761L81.3827 25.8161L81.4228 25.6461C81.5328 24.6461 81.5328 23.9161 81.5228 22.8161C81.4628 17.7761 79.7627 14.0661 76.7227 12.3561C73.6827 10.6461 69.6228 11.1261 65.2928 13.6961C56.0628 19.1661 48.6528 32.3561 48.7828 43.0861C48.7828 44.0061 48.8828 44.9561 49.0428 45.9861L49.0927 46.3061C49.1627 46.7061 49.2527 47.0861 49.3527 47.4761L52.9827 63.5761C53.4927 66.0661 55.4828 67.3761 57.5528 68.4061L58.0027 68.6361L57.2627 76.3461L50.8527 80.1661C40.6227 86.2261 35.4427 102.716 33.2627 112.016C32.7527 114.166 33.0727 115.966 34.0927 116.716C34.8827 117.296 36.0327 117.186 37.3427 116.416L93.7828 82.9461C97.1428 80.9561 99.5327 75.6461 98.4427 72.6161C96.8327 68.1661 93.9827 62.5161 89.4827 60.8961C88.6427 60.5961 87.7727 60.4461 86.8727 60.4461C85.0427 60.4461 83.0928 61.0561 81.0228 62.2861H81.0428Z" fill="#16110D"/>
<path d="M39.4141 39.7877L40.064 32.3477L48.644 37.1677L47.6641 42.3176L51.504 60.8976L51.754 61.0377L52.734 65.0377L55.9241 68.5577L57.254 69.0876L56.594 75.9277L48.024 71.1376L48.6741 64.2977L44.8041 62.0977L43.494 57.6077L43.0441 56.0377L39.4141 39.7877Z" fill="#16110D"/>
<path d="M34.5829 104.357L26.3329 99.457L24.1229 105.587L23.793 109.427L24.4729 112.377L33.163 117.027L32.3129 113.437L34.0129 105.837L34.5829 104.357Z" fill="#16110D"/>
</svg>
