<svg width="224" height="35" viewBox="0 0 224 35" fill="none" xmlns="http://www.w3.org/2000/svg">
<g clip-path="url(#clip0_1_6638)">
<path d="M19.3211 9.87059C19.3211 7.56471 17.0583 7 15.2769 7V7.32941C16.3361 7.32941 17.1546 7.65882 17.1546 8.50588C17.1546 8.97647 16.8176 9.68235 15.7102 9.68235C14.8918 9.68235 13.1104 9.21176 11.8105 8.74118C10.2699 8.17647 8.87367 7.70588 7.67005 7.70588C5.31095 7.70588 3.62588 9.44706 3.62588 11.4235C3.62588 13.1647 4.9258 13.7294 5.40724 13.9647L5.50353 13.7294C5.26281 13.4941 4.9258 13.2588 4.9258 12.5529C4.9258 12.0824 5.40724 11.2824 6.56272 11.2824C7.62191 11.2824 9.06625 11.7529 10.9439 12.3176C12.5808 12.7882 14.3622 13.1176 15.3251 13.2588V16.8353L13.5437 18.3412V18.4353L15.3251 19.9412V24.9294C14.3622 25.4941 13.303 25.6353 12.3883 25.6353C10.6069 25.6353 9.06625 25.1647 7.76634 23.8L12.629 21.4941V13.4941L6.80345 16.0353C7.28489 14.5294 8.58481 13.4941 9.88472 12.7882L9.74028 12.4588C6.17756 13.4 3 16.6471 3 20.5529C3 25.1647 6.89974 28.6471 11.2809 28.6471C15.9991 28.6471 19.0804 24.9294 19.0804 21.1176H18.8878C18.1656 22.6235 17.1064 23.9882 15.8065 24.6941V19.9412L17.6842 18.4353V18.3412L15.8065 16.8353V13.2588C17.5879 13.2588 19.3211 12.0824 19.3211 9.87059ZM9.01811 22.6235L7.57376 23.3294C6.7553 22.2941 6.27385 20.8824 6.27385 18.9529C6.27385 18.1529 6.27385 17.2118 6.51458 16.5059L9.01811 15.4706V22.6235ZM21.5839 25.3059L20.0433 26.4824L20.284 26.7176L21.0062 26.1529L23.606 28.4588L27.1687 26.1529L27.0724 25.9176L26.1095 26.4824L24.9059 25.3059V17.4L25.8688 16.6941L27.8909 18.2941V25.3529C27.8909 29.7294 26.928 30.4353 24.9541 31.1412V31.4706C28.2761 31.5647 31.3573 30.5294 31.3573 24.8824V17.3059L32.4165 16.5059L32.1758 16.2706L31.2129 16.9765L28.2279 14.5294L24.9059 16.9765V7.47059H24.6652L20.5247 10.2471V10.4824C21.0062 10.7176 21.7284 10.9529 21.7284 12.2235L21.5839 25.3059ZM43.2491 24.0353L40.3123 26.2471L37.3754 23.9412V22.5294L42.9602 18.8118V18.7176L40.0716 14.5294L33.909 17.7765V25.4L32.7054 26.3412L32.9461 26.5765L34.0053 25.7765L38.0495 28.6471L43.3936 24.4588L43.2491 24.0353ZM37.3273 22.0588V16.3647L37.568 16.2706L40.1678 20.3176L37.3273 22.0588ZM65.8772 8.83529C65.8772 8.50588 65.7809 8.12941 65.6365 7.8H65.3958C65.0588 8.74118 64.5773 9.21176 63.3737 9.21176C62.3145 9.21176 61.5923 8.64706 61.1109 8.17647L57.6926 11.9882L57.9333 12.2235L59.1369 11.1882C59.8591 11.7529 60.4368 12.2235 62.0738 12.3647V21.9647L55.0928 10.2471C54.515 9.30588 53.6484 8.03529 52.0115 8.03529C50.1338 8.03529 48.4488 9.63529 48.6895 12.2235H49.0265C49.1228 11.5176 49.508 10.7176 50.3264 10.7176C50.9042 10.7176 51.53 11.2824 51.8671 11.8941V15.7059C49.7487 15.7059 48.3043 16.6471 48.3043 18.3882C48.3043 19.3294 48.7858 20.6941 50.182 21.0706V20.8353C49.9413 20.6 49.845 20.3647 49.845 20.0353C49.845 19.4706 50.3264 19 51.1449 19H51.7226V23.8471C49.2191 23.8471 47.2451 25.2588 47.2451 27.5647C47.2451 29.7765 49.1228 30.8118 51.2893 30.6706V30.4353C49.9894 30.3412 49.4117 29.7294 49.4117 28.9294C49.4117 27.8941 50.1338 27.4235 51.0486 27.4235C52.0115 27.4235 52.8299 27.9882 53.4077 28.6941L56.826 24.9765L56.5853 24.7412L55.7668 25.6824C54.4669 24.5059 53.7447 24.1765 52.2041 23.9412V12.3176L61.7368 28.5059H62.4589V12.3176C64.1921 12.2235 65.8772 10.8118 65.8772 8.83529ZM74.4951 24.0353L71.5583 26.2471L68.6215 23.9412V22.5294L74.2063 18.8118V18.7176L71.3657 14.5294L65.2032 17.7765V25.4L63.9996 26.3412L64.2403 26.5765L65.2995 25.7765L69.3436 28.6471L74.6877 24.4588C74.6396 24.4588 74.4951 24.0353 74.4951 24.0353ZM68.5733 22.0588V16.3647L68.814 16.2706L71.4139 20.3176C71.462 20.3176 68.5733 22.0588 68.5733 22.0588ZM93.8012 15.8L92.9828 16.3647L90.72 14.5294L88.1201 16.8353L89.1793 17.8706V26.5294L86.3388 24.7882V17.6353L87.3017 17.0706L84.5574 14.5294L81.9576 16.8353L83.0168 17.8706V26.2L82.6798 26.4353L80.1762 24.6941V17.7765C80.1762 16.1765 79.3578 15.7059 78.3949 15.0941C77.5764 14.5294 77.095 14.1529 77.095 13.3529C77.095 12.6471 77.8171 12.3176 78.1542 12.0824V11.8471C77.1913 11.8471 74.7359 12.7882 74.7359 14.9529C74.7359 16.1294 75.3136 16.5529 75.9395 17.1647C76.5172 17.7294 77.1431 18.2 77.1431 19.2353V25.9647L75.8432 26.9059L76.0839 27.1412L77.2875 26.2L80.0318 28.5059L82.9686 26.5294L86.2906 28.5059L92.5495 24.9294V17.1647L94.0901 15.9882L93.8012 15.8ZM115.852 9.44706L114.648 10.4824L112.048 8.17647L108.148 10.9529V8.41176H107.811L107.908 27.1412C107.571 27.1412 106.463 26.9059 105.645 26.6706L105.404 11.0471C105.404 9.87059 104.586 8.27059 102.467 8.27059C100.349 8.27059 98.9046 9.87059 98.9046 11.5176H99.2416C99.3379 10.8118 99.7231 10.2471 100.445 10.2471C101.167 10.2471 101.745 10.7176 101.745 12.2235V16.7412C99.6268 16.8353 98.3269 18.0118 98.3269 19.5176C98.3269 20.4588 98.8083 21.8235 100.205 21.8235V21.5882C99.7231 21.3529 99.6268 21.0235 99.6268 20.7882C99.6268 20.0824 100.205 19.8471 101.167 19.8471H101.649V27C99.8675 27.5647 99.1453 28.8353 99.1453 30.2471C99.1453 32.2235 100.686 33.5882 103.045 33.5882C104.682 33.5882 106.126 33.3529 107.523 33.0235C108.726 32.7882 110.267 32.4588 110.941 32.4588C111.904 32.4588 112.241 32.9294 112.241 33.4941C112.241 34.2941 111.904 34.6706 111.422 34.7647V35C113.3 34.6706 114.504 33.4941 114.504 31.7529C114.504 30.0118 112.722 28.9765 110.845 28.9765C109.882 28.9765 107.908 29.3059 106.463 29.5412C104.826 29.8706 103.141 30.1059 102.66 30.1059C101.841 30.1059 100.879 29.7765 100.879 28.6C100.879 27.6588 101.697 26.8588 103.719 26.8588C104.778 26.8588 106.078 26.9529 107.378 27.3294C108.822 27.6588 110.122 28.0353 111.278 28.0353C113.059 28.0353 114.6 27.4706 114.6 25.0235V10.8118L116.044 9.63529L115.852 9.44706ZM110.989 16.5059C110.652 16.8353 110.17 17.2118 109.545 17.2118C108.919 17.2118 108.341 16.8824 108.1 16.5059V11.3765L109.304 10.5765L110.941 12.0824C110.989 12.0824 110.989 16.5059 110.989 16.5059ZM110.989 19.9412C110.748 19.7059 110.17 19.3765 109.545 19.3765C108.919 19.3765 108.341 19.7059 108.1 19.9412V16.9294C108.341 17.1647 108.919 17.4941 109.545 17.4941C110.17 17.4941 110.748 17.1647 110.989 16.9294V19.9412ZM110.989 25.4C110.989 26.3412 110.411 27.2353 109.111 27.2353H108.148V20.4118C108.389 20.1765 108.967 19.8471 109.593 19.8471C110.219 19.8471 110.652 20.1765 111.037 20.4118C110.989 20.4118 110.989 25.4 110.989 25.4ZM127.214 17.1647L123.41 14.4824L117.585 17.7294V25.2588L116.381 26.2L116.477 26.4353L117.44 25.7294L121.244 28.5059L127.166 25.0235C127.214 25.0706 127.214 17.1647 127.214 17.1647ZM120.811 24.4588V16.1294L123.747 18.2V26.4353C123.795 26.4353 120.811 24.4588 120.811 24.4588ZM138.48 14.7647H138.239C137.902 15 137.517 15.2353 137.18 15.2353C136.698 15.2353 136.121 15 135.88 14.6706H135.639L133.617 16.8824L131.595 14.6706L128.032 16.9765L128.129 17.2118L129.091 16.6471L130.295 17.9176V25.2118L128.754 26.3882L128.995 26.6235L129.717 26.0588L132.558 28.3647L136.217 25.9176L136.121 25.6824L135.061 26.2471L133.617 25.0706V16.9765C134.195 17.5412 134.917 18.1529 135.735 18.1529C137.372 18.2471 138.335 16.6 138.48 14.7647ZM152.682 25.8706L148.638 28.5529L143.198 20.4588L147.098 14.5765H147.338C147.82 15.0471 148.542 15.5176 149.36 15.5176C150.179 15.5176 150.805 15.0471 151.142 14.5765H151.383C151.286 16.8824 149.601 18.2941 148.446 18.2941C147.242 18.2941 146.664 17.7294 145.942 17.3529L145.605 17.9176L151.527 26.4824L152.731 25.7765V25.8706H152.682ZM139.635 25.3059L138.095 26.4824L138.335 26.7176L139.057 26.1529L141.657 28.4588L145.22 26.1529L144.979 25.9176L144.016 26.4824L142.813 25.3059V7.47059H142.716L138.432 10.2471V10.4824C138.913 10.7176 139.635 10.8118 139.635 12.2235V25.3059ZM172.326 9.87059C172.326 7.56471 170.063 7 168.281 7V7.32941C169.341 7.32941 170.159 7.65882 170.159 8.50588C170.159 8.97647 169.822 9.68235 168.715 9.68235C167.896 9.68235 166.115 9.21176 164.815 8.74118C163.274 8.27059 161.878 7.8 160.674 7.8C158.315 7.8 156.63 9.54118 156.63 11.5176C156.63 13.2588 157.93 13.8235 158.412 14.0588L158.508 13.8235C158.171 13.5882 157.786 13.3529 157.786 12.6471C157.786 12.1765 158.267 11.3765 159.423 11.3765C160.482 11.3765 161.926 11.8471 163.804 12.4118C165.441 12.8824 167.222 13.2118 168.185 13.3529V16.9294L166.404 18.4353V18.5294L168.185 20.0353V25.0235C167.222 25.5882 166.163 25.7294 165.248 25.7294C163.467 25.7294 161.926 25.2588 160.626 23.8941L165.489 21.5882V13.4941L159.567 16.0353C160.145 14.5294 161.445 13.4941 162.648 12.6941L162.552 12.4588C158.989 13.4 155.812 16.5059 155.812 20.4588C155.812 25.0706 159.712 28.5529 164.093 28.5529C168.811 28.5529 171.892 24.8353 171.892 21.0235H171.652C170.929 22.5294 169.87 23.8941 168.57 24.6V19.8471L170.448 18.3412V18.2471L168.667 16.7412V13.2588C170.544 13.2588 172.326 12.0824 172.326 9.87059ZM162.023 22.6235L160.578 23.3294C159.76 22.2941 159.278 20.8824 159.278 18.9529C159.278 18.1529 159.375 17.2118 159.615 16.5059L162.119 15.4706L162.023 22.6235ZM176.466 8.74118H176.322L173.962 10.7176V10.8118L175.985 13.0235H176.225L178.584 11.0471V10.9529L176.466 8.74118ZM180.029 25.8706L179.066 26.4353L177.862 25.2588V17.2588L179.066 16.4588L178.825 16.2235L178.007 16.9294L175.888 14.4824L172.47 16.7882L172.711 17.1176L173.529 16.5529L174.588 17.8235V25.3529L173.048 26.5294L173.144 26.7647L173.962 26.2L176.562 28.5059L180.125 26.2L180.029 25.8706ZM199.768 25.7294L198.95 26.2941L197.65 25.1176V17.3059L198.853 16.3647L198.613 16.1294L197.65 16.9294L194.905 14.4824L191.343 16.9294L188.598 14.4824L185.277 16.9294L183.158 14.4824L179.74 16.7882L179.836 17.1176L180.655 16.5529L181.858 17.8235V25.3529L180.895 26.2941L183.64 28.5059L186.239 26.2L185.18 25.1647V17.3059L186.239 16.6L188.021 18.2V25.1647L187.058 26.1059L189.802 28.3176L192.402 26.0118L191.343 24.9765V17.3059L192.306 16.7412L194.183 18.3412V25.3059L193.365 26.1059L196.109 28.5529L199.768 26.1059V25.7294ZM210.071 24.0353L207.134 26.2471L204.197 23.9412V22.5294L209.782 18.8118V18.7176L206.942 14.5294L200.779 17.7765V25.6353L204.92 28.5059L210.264 24.3176C210.216 24.3647 210.071 24.0353 210.071 24.0353ZM204.149 22.0588V16.3647L204.39 16.2706L206.99 20.3176L204.149 22.0588ZM220.856 21.0235L218.593 19.2824C220.133 18.0118 220.711 16.2706 220.711 15.0941V14.3882H220.47C220.23 14.9529 219.748 15.5647 218.833 15.5647C217.871 15.5647 217.293 15.0941 216.715 14.3882L211.371 17.2588V21.4471L213.393 22.9529C211.371 24.6941 211.034 25.8235 211.034 26.7647C211.034 27.9412 211.612 28.7412 212.575 29.0706L212.671 28.8353C212.43 28.6 212.189 28.5059 212.189 27.8941C212.189 27.5647 212.671 26.9529 213.634 26.9529C214.837 26.9529 215.511 27.7529 215.897 28.1294L221 25.1176V20.9294C221 21.0235 220.856 21.0235 220.856 21.0235ZM219.556 17.5412C218.737 18.9529 216.956 20.3176 215.897 21.0235L214.597 19.9882V15.9412C215.078 17.1176 216.378 18.0118 217.678 18.0118C218.496 18.0118 218.978 17.8706 219.556 17.5412ZM217.534 26.8118C216.956 25.5412 215.511 24.6 214.115 24.6C213.778 24.6 212.815 24.6 211.852 25.1647C212.43 24.2235 213.971 22.6235 215.993 21.4471L217.437 22.6235L217.534 26.8118Z" fill="#252527"/>
</g>
<defs>
<clipPath id="clip0_1_6638">
<rect width="224" height="35" fill="white"/>
</clipPath>
</defs>
</svg>
