<svg width="98" height="25" viewBox="0 0 98 25" fill="none" xmlns="http://www.w3.org/2000/svg">
<g clip-path="url(#clip0_1_6653)">
<path d="M55.4242 8.32294C55.4242 5.52213 55.4726 2.91449 55.618 0.5L48.2036 1.9004V2.57646L48.9305 2.67304C49.4635 2.72133 49.8028 2.91449 49.9966 3.20423C50.1905 3.54225 50.3358 4.02515 50.4328 4.7495C50.5297 6.1499 50.6266 9.33702 50.5781 14.3592C50.5781 19.333 50.5297 22.4718 50.4328 23.6791C53.0981 24.2586 55.1819 24.5 56.7326 24.5C59.6402 24.5 61.9179 23.6791 63.5655 21.9889C65.2132 20.3471 66.0855 18.0292 66.0855 15.1801C66.0855 12.9105 65.4555 11.0272 64.1955 9.53018C62.9355 8.0332 61.3363 7.30885 59.4464 7.30885C58.1864 7.30885 56.878 7.64688 55.4242 8.32294ZM55.5696 23.1962C55.4726 21.6509 55.3757 17.0151 55.3757 9.4336C55.8119 9.28873 56.3934 9.19215 57.1203 9.19215C58.2833 9.19215 59.2041 9.77163 59.8825 10.9789C60.561 12.1861 60.9002 13.6348 60.9002 15.4698C60.9002 17.7394 60.5125 19.5744 59.7371 21.1197C58.9618 22.6167 57.9926 23.3893 56.7811 23.3893C56.3934 23.2928 56.0057 23.2445 55.5696 23.1962ZM20.3873 0.982897H1.00317V1.94869L2.02084 2.04527C2.79621 2.19014 3.32927 2.47988 3.66849 2.91449C4.00772 3.39738 4.20156 4.17002 4.25002 5.23239C4.6377 10.4477 4.6377 15.3249 4.25002 19.8159C4.1531 20.8783 3.95926 21.6509 3.66849 22.1338C3.32927 22.6167 2.79621 22.9064 2.02084 23.003L1.00317 23.1479V24.1137H13.5059V23.1479L12.1975 23.0513C11.4222 22.9547 10.8891 22.6167 10.5499 22.1821C10.2106 21.6992 10.0168 20.9266 9.96834 19.8642C9.82296 17.9326 9.72604 15.7113 9.72604 13.2485L12.3429 13.2968C13.7483 13.3451 14.7175 14.4074 15.2021 16.5322H16.1713V8.66096H15.2021C14.7175 10.7374 13.7967 11.7998 12.3429 11.8481L9.72604 11.8964C9.72604 7.5503 9.82296 4.45976 9.96834 2.57646H13.7967C16.5105 2.57646 18.352 4.31489 19.4181 7.79175L20.5812 7.45372L20.3873 0.982897ZM18.1097 15.8561C18.1097 18.3672 18.8366 20.4437 20.2419 22.0855C21.6473 23.7274 23.7311 24.5 26.3479 24.5C28.9648 24.5 31.0971 23.6791 32.6478 21.9889C34.1985 20.3471 34.9254 18.2706 34.9254 15.7596C34.9254 13.2485 34.1985 11.172 32.7932 9.53018C31.3878 7.88833 29.304 7.11569 26.6872 7.11569C24.0703 7.11569 21.9381 7.93662 20.3873 9.62676C18.8366 11.2686 18.1097 13.3451 18.1097 15.8561ZM28.9163 10.3511C29.4979 11.7515 29.7402 13.5865 29.7402 15.8078C29.7402 20.9266 28.674 23.4376 26.5903 23.4376C25.5241 23.4376 24.7003 22.7133 24.1188 21.2646C23.5372 19.8159 23.2949 17.9809 23.2949 15.8078C23.2949 10.7374 24.3611 8.22636 26.4449 8.22636C27.511 8.17807 28.3348 8.90241 28.9163 10.3511ZM69.8654 22.0855C71.4646 23.6791 73.4999 24.5 75.9229 24.5C77.4252 24.5 78.7336 24.2103 79.8967 23.5825C81.0597 23.003 81.9805 22.2787 82.6104 21.4095L82.1258 20.83C81.0597 21.6509 79.8482 22.0372 78.4428 22.0372C76.5044 22.0372 75.0022 21.4095 73.9845 20.1056C72.9184 18.8018 72.4338 17.16 72.5307 15.0352H82.9012C82.9012 12.7173 82.3197 10.834 81.1082 9.33702C79.8967 7.88833 78.2005 7.16398 76.0198 7.16398C73.3061 7.16398 71.2223 8.0332 69.72 9.72334C68.2177 11.4135 67.4908 13.4899 67.4908 15.9527C67.4908 18.4638 68.2662 20.492 69.8654 22.0855ZM73.4514 9.96479C73.9845 8.80583 74.6629 8.22636 75.5837 8.22636C77.0375 8.22636 77.7644 10.0614 77.7644 13.7797L72.6276 13.8763C72.6761 12.4276 72.9184 11.1237 73.4514 9.96479ZM95.937 8.0332C94.6286 7.45372 92.981 7.11569 90.9941 7.11569C88.9587 7.11569 87.3596 7.64688 86.148 8.66096C84.9365 9.67505 84.3065 10.9306 84.3065 12.4276C84.3065 13.7314 84.6942 14.7455 85.4211 15.4698C86.148 16.1942 87.3111 16.8219 88.8134 17.3531C90.1703 17.836 91.1395 18.3189 91.6241 18.7535C92.1087 19.2364 92.3994 19.7676 92.3994 20.492C92.3994 21.168 92.1571 21.7958 91.6241 22.2787C91.1395 22.8099 90.461 23.0513 89.5887 23.0513C87.4565 23.0513 85.8573 21.506 84.7427 18.4155L83.9189 18.6569L84.1127 23.4859C85.8573 24.162 87.7957 24.5 89.928 24.5C92.1571 24.5 93.8532 24.0171 95.1132 23.003C96.3732 22.0372 97.0032 20.6368 97.0032 18.8984C97.0032 17.7394 96.7124 16.7736 96.0824 16.0493C95.4524 15.3249 94.4348 14.6972 92.981 14.1177C91.3818 13.5382 90.2672 13.007 89.6857 12.5241C89.1041 12.0412 88.8134 11.4618 88.8134 10.7374C88.8134 10.0131 89.0072 9.4336 89.4434 8.9507C89.8795 8.46781 90.4126 8.27465 91.091 8.27465C93.0294 8.27465 94.4348 9.67505 95.3071 12.4276L96.1309 12.1861L95.937 8.0332ZM49.3182 7.59859C48.6397 7.26056 47.9128 7.11569 47.089 7.11569C46.2652 7.11569 45.4413 7.45372 44.5206 8.12978C43.5998 8.80583 42.9214 9.72334 42.3883 10.9789L42.4368 7.11569L35.0708 8.56439V9.24044L35.7977 9.28873C36.7185 9.38531 37.2515 10.1097 37.3485 11.4135C37.6392 14.4074 37.6392 17.5946 37.3485 20.9748C37.2515 22.2787 36.7185 22.9547 35.7977 23.0996L35.0708 23.1962V24.1137H45.3444V23.1962L44.036 23.0996C43.1152 23.003 42.5822 22.2787 42.4853 20.9748C42.1945 18.174 42.146 15.1801 42.3883 12.0895C42.6791 11.6066 43.3091 11.3169 44.2783 11.2203C45.2475 11.1237 46.3621 11.4135 47.5251 12.0895L49.3182 7.59859Z" fill="#252527"/>
</g>
<defs>
<clipPath id="clip0_1_6653">
<rect width="97" height="24" fill="white" transform="translate(0.800049 0.5)"/>
</clipPath>
</defs>
</svg>
