<svg width="171" height="21" viewBox="0 0 171 21" fill="none" xmlns="http://www.w3.org/2000/svg">
<g clip-path="url(#clip0_1_6645)">
<g clip-path="url(#clip1_1_6645)">
<path d="M23.3189 20.0962H29.4844L32.7899 0.927553H26.6243L25.4053 7.79216H20.0602L21.2793 0.927553H15.1137L11.8082 20.0962H17.9738L19.2163 12.9228H24.5613L23.3189 20.0962ZM36.283 0.9038L34.4075 11.5689C34.2434 12.4002 34.1731 13.2078 34.1731 13.9679C34.1731 19.6211 39.0493 20.4762 41.9797 20.4762C48.1218 20.4762 50.7709 18.4097 51.732 12.8278L53.7951 0.880048H47.6295L45.8712 10.9038C45.3086 14.0392 44.9101 15.6781 42.6126 15.6781C41.1123 15.6781 40.3855 14.8705 40.3855 13.2078C40.3855 12.5665 40.4793 11.7827 40.6668 10.8088L42.4485 0.880048H36.283V0.9038ZM86.3811 20.0962H92.5467L93.4141 15.1556H96.3211C101.69 15.1556 104.667 12.2102 104.667 6.84204C104.667 3.06532 102.088 0.9038 97.5636 0.9038H89.6866L86.3811 20.0962ZM95.9929 10.4287H94.2112L95.0317 5.91568H96.6962C98.0559 5.91568 98.7826 6.60451 98.7826 7.86342C98.7826 9.45487 97.7277 10.4287 95.9929 10.4287ZM116.646 0.5C109.942 0.5 105.933 4.8943 105.933 12.2815C105.933 17.4121 109.121 20.5 114.466 20.5C121.171 20.5 125.18 16.1057 125.18 8.71853C125.203 3.56413 122.015 0.5 116.646 0.5ZM114.841 15.5356C113.247 15.5356 112.309 14.3717 112.309 12.424C112.309 11.6876 112.38 11.0463 112.52 10.31C112.989 7.79216 113.786 5.48812 116.295 5.48812C117.889 5.48812 118.827 6.65202 118.827 8.59976C118.827 9.3361 118.756 9.97743 118.616 10.7138C118.147 13.2078 117.35 15.5356 114.841 15.5356ZM146.63 20.0962H152.796L155.234 6.05819H159.876L160.767 0.927553H144.989L144.098 6.05819H149.021L146.63 20.0962ZM136.409 8.00594C134.463 7.38836 133.666 7.12708 133.666 6.20071C133.666 5.58314 134.065 4.84679 135.237 4.84679C136.104 4.84679 136.831 5.34561 137.112 6.08195L142.551 4.58551C141.918 1.87767 139.621 0.5 135.659 0.5C128.204 0.5 127.618 5.55938 127.618 7.10332C127.618 10.2387 129.259 12.1627 132.822 13.1603C133.76 13.4216 134.838 13.7066 134.838 14.7518C134.838 15.5831 134.229 16.1057 133.174 16.1057C132.213 16.1057 131.181 15.5356 130.83 14.538L125.461 16.0107C126.047 18.861 128.696 20.4762 132.846 20.4762C136.01 20.4762 141.309 19.6211 141.309 13.8254C141.332 10.9276 139.714 9.02732 136.409 8.00594Z" fill="#252527"/>
<path d="M8.36069 20.0961L11.6896 0.92749H1.49182V20.0961H8.36069ZM163.414 0.92749L160.109 20.0961H170.307V0.92749H163.414Z" fill="#252527"/>
<path d="M61.1557 14.443H66.3366L67.1806 9.62115H61.9996L62.5857 6.0582H69.8297L70.7205 0.903809H57.311L54.0055 20.0962H60.1711L61.1557 14.443ZM77.3081 14.443H82.5125L83.3564 9.62115H78.1755L78.7615 6.0582H86.0055L86.8963 0.903809H73.4868L70.1813 20.0962H76.3469L77.3081 14.443Z" fill="#252527"/>
</g>
</g>
<defs>
<clipPath id="clip0_1_6645">
<rect width="170" height="20" fill="white" transform="translate(0.400024 0.5)"/>
</clipPath>
<clipPath id="clip1_1_6645">
<rect width="169" height="20" fill="white" transform="translate(1.40002 0.5)"/>
</clipPath>
</defs>
</svg>
