<svg width="156" height="21" viewBox="0 0 156 21" fill="none" xmlns="http://www.w3.org/2000/svg">
<g clip-path="url(#clip0_1_6655)">
<path d="M19.0675 2.36056C19.5594 1.56293 20.3325 0.831761 21.3164 0.366474C22.8626 -0.298222 24.9007 0.0341257 26.2361 1.03117C27.4308 2.02821 28.1336 3.49054 27.7822 5.08581C28.1336 5.08581 28.3445 4.8864 28.6959 4.75347C30.5934 4.22171 32.5613 4.75347 33.8263 6.28227C34.74 7.41225 35.0211 9.07399 34.3886 10.3369C34.1777 11.0016 33.6858 11.5334 33.1235 12.1316L33.2641 12.2645C35.0211 12.3975 36.7781 13.5939 37.3404 15.2557C37.9026 16.9174 37.4809 18.5791 36.1456 19.7756C35.0914 20.7726 33.8263 21.105 32.4207 20.972H5.9953C3.74632 20.972 2.12987 20.1079 1.35679 18.3133C0.653986 16.7845 1.00539 14.7904 2.27043 13.5939C3.1138 12.7963 4.16801 12.4639 5.29249 12.2645C4.02745 11.1345 3.39492 9.60574 3.74632 7.94401C3.88688 6.74755 5.01137 5.28522 6.41698 4.81994C7.61175 4.35465 9.2282 4.48759 10.3527 5.01934C10.0013 3.22467 10.8446 1.6294 12.4611 0.632352C13.8667 -0.231753 16.0454 -0.231753 17.451 0.765291C18.1538 1.16411 18.716 1.8288 19.0675 2.36056Z" fill="#252527"/>
<path d="M26.5124 3.02486C26.3016 2.55957 25.9502 2.16075 25.5285 1.8284C24.4743 0.9643 22.7173 0.831361 21.4523 1.49606C20.2575 2.02781 19.5547 3.29074 19.5547 4.48719H21.1009C21.2414 4.62013 21.3117 4.62013 21.4523 4.6866C20.8197 5.15188 19.625 5.5507 19.9061 6.48128L21.5225 16.3188L26.0908 6.61421C26.7936 5.48423 27.145 4.15484 26.5124 3.02486Z" fill="#252527"/>
<path d="M16.745 16.1861L18.6426 4.95275C18.7831 4.15511 18.502 3.42395 18.1506 2.75925C17.7992 2.02809 17.0964 1.5628 16.3936 1.23045C15.1286 0.698694 13.4418 1.03104 12.5282 1.89515C11.6145 2.75925 11.1226 4.08864 11.6145 5.41803L16.253 15.2555L16.745 16.1861Z" fill="#252527"/>
<path d="M33.3306 7.41209C33.8929 8.40913 33.8226 9.93793 33.1198 10.802C32.6278 11.4667 31.925 11.7991 31.3628 12.2644L21.6641 18.579L21.8046 18.2466L26.9351 7.34562C27.7785 6.01623 29.1841 5.35153 30.66 5.55094C31.7142 5.81682 32.7684 6.48151 33.3306 7.41209Z" fill="#252527"/>
<path d="M5.92099 11.5329L16.6739 18.5123H16.8145L11.4731 7.34537C10.5595 5.88304 8.66193 5.21834 6.90491 5.81657C5.85071 6.28185 5.00734 7.14596 4.7965 8.143C4.23426 9.40592 4.72622 10.7353 5.92099 11.5329Z" fill="#252527"/>
<path d="M35.6517 18.8448C36.495 17.9807 36.5653 16.3854 36.1436 15.4549C35.7922 14.6572 35.0894 13.9925 34.246 13.6602C33.1918 13.1949 31.7862 13.3278 30.8726 13.8596L21.3145 20.1077H32.7702C33.8946 20.1077 34.8083 19.7089 35.6517 18.8448Z" fill="#252527"/>
<path d="M16.9555 20.1079L7.39733 13.7268C6.48368 13.195 5.07807 13.0621 4.02387 13.5274C3.1805 13.8597 2.4777 14.5244 2.1263 15.3221C1.56405 16.452 1.77489 17.8479 2.61826 18.712C3.32106 19.5761 4.37527 20.0414 5.57004 20.0414L16.9555 20.1079Z" fill="#252527"/>
<path d="M59.8233 8.07656C59.3313 6.08247 57.7149 5.55071 55.747 5.41777C49.5623 4.88602 48.5081 9.27301 48.5081 11.1342C48.5081 14.3247 49.4218 16.8505 55.5362 16.8505C56.7309 16.8505 59.753 15.7206 59.753 13.9923H68.5381C68.1867 19.3099 58.8394 20.5064 54.7631 20.5064C46.3294 20.5064 39.0906 19.044 39.442 11.1342C39.6528 5.48424 45.2752 1.56254 56.4498 1.82841C62.6345 1.96135 68.6083 3.8225 68.6083 8.01009H59.8233V8.07656Z" fill="#252527"/>
<path d="M147.394 8.07662C146.902 6.08253 145.285 5.55078 143.317 5.41784C137.133 4.88608 136.078 9.27307 136.078 11.0678C136.078 14.2583 136.992 16.7841 143.107 16.7841C144.301 16.7841 147.323 15.6542 147.323 13.9259H156.108C155.757 19.2435 146.41 20.44 142.333 20.44C133.9 20.44 126.661 18.9776 127.012 11.0678C127.223 5.41784 132.846 1.49613 144.02 1.76201C150.205 1.89495 156.249 3.7561 156.249 7.94368H147.394V8.07662Z" fill="#252527"/>
<path d="M70.2227 2.22705H81.5378L91.2365 15.0557H91.3771V2.22705H98.6159V19.9744H87.7928L77.6724 7.1458H77.5318V19.9744H70.2227C70.2227 20.0409 70.2227 2.22705 70.2227 2.22705Z" fill="#252527"/>
<path d="M100.795 2.22705H114.57C121.247 2.22705 125.042 4.02173 125.042 6.61404C125.042 8.14284 123.425 10.1369 119.771 10.6687C124.058 10.8681 125.744 13.5269 125.744 15.0557C125.744 18.2462 122.02 19.908 114.57 19.908H100.795V2.22705ZM108.877 9.20636H111.196C114.71 9.20636 116.538 9.00695 116.538 7.54462C116.538 6.08229 114.992 5.55053 111.899 5.55053H108.947V9.20636H108.877ZM108.877 16.3851H111.196C115.413 16.3851 117.03 15.9198 117.03 14.5904C117.03 13.1281 115.062 12.5963 111.899 12.5963H108.947V16.3186H108.877V16.3851Z" fill="#252527"/>
</g>
<defs>
<clipPath id="clip0_1_6655">
<rect width="156" height="21" fill="white"/>
</clipPath>
</defs>
</svg>
