<svg width="70" height="25" viewBox="0 0 70 25" fill="none" xmlns="http://www.w3.org/2000/svg">
<g clip-path="url(#clip0_1_6643)">
<path d="M43.4023 18.771C42.9698 17.7601 42.7395 16.6045 42.7395 15.3044C42.7395 8.92104 48.3319 6.10868 54.0182 6.10868H54.3951C56.1232 6.10868 63.0347 6.55112 63.7573 13.5979L56.877 14.3564C56.8143 12.4286 56.4058 10.4064 54.0809 10.4064C51.0965 10.4064 50.8764 12.9027 50.8764 15.2728V15.3361C50.8764 17.706 51.1279 20.2024 54.0811 20.2024C55.6206 20.2024 57.0027 19.3176 57.0027 17.4216H63.8515L63.8201 18.022C62.6892 23.6153 57.6311 24.5 54.0182 24.5C49.7111 24.5 45.4336 22.8869 43.6406 19.3118V23.9466H31.1075V18.771H33.4752V13.373C33.4752 11.7538 32.3071 11.0234 30.8233 11.0234C28.9291 11.0234 27.5084 12.4205 27.5084 14.3257V18.8026H29.9394V23.9782H17.1219V18.8026H19.4267V11.0234H17.1221V5.84779H27.2243V9.43579C27.4138 9.27699 27.5716 9.08654 27.6979 8.92774C29.5291 6.80047 31.6441 6.03839 34.4222 6.03839C38.337 6.03839 41.494 7.62597 41.494 11.9761V18.8026V18.771H43.4023ZM0.000732422 6.00753V0.5H16.2209V6.00753H13.1581V18.8796H16.2209V23.9782H0.000732422V18.8796H3.03213V6.00769L0.000732422 6.00753ZM66.1687 24.1085C64.6047 24.1085 63.3366 22.8237 63.3366 21.239C63.3366 19.654 64.6047 18.3694 66.1687 18.3694C67.7327 18.3694 69.0007 19.6542 69.0007 21.2391C69.0007 22.8239 67.7327 24.1085 66.1687 24.1085Z" fill="#252527"/>
</g>
<defs>
<clipPath id="clip0_1_6643">
<rect width="69" height="24" fill="white" transform="translate(0.199951 0.5)"/>
</clipPath>
</defs>
</svg>
