<svg width="121" height="32" viewBox="0 0 121 32" fill="none" xmlns="http://www.w3.org/2000/svg">
<path d="M61.7339 25.988L72 16.232H50.5234C50.1128 16.232 49.7843 16.52 49.7432 16.88V18.932C47.8132 16.016 43.7478 14 39.0665 14C33.5228 14 28.8826 16.808 27.5275 20.66V16.232H23.7906C22.8872 16.232 22.107 16.592 21.5321 17.132L14.2637 24.116L6.99537 17.132C6.42047 16.592 5.64025 16.268 4.73684 16.232H1V30.488H5.39387C5.80451 30.488 6.13302 30.164 6.13302 29.804V23L14.2637 30.884L22.3944 23V29.804C22.3944 30.164 22.764 30.452 23.1747 30.488H27.5275V25.34C28.8826 29.192 33.5228 32 39.0665 32C45.6778 32 51.0573 27.968 51.0573 23C51.0573 22.208 50.893 21.488 50.6466 20.768H60.0093L49.7432 30.524H71.2198C71.6304 30.524 71.9589 30.236 72 29.876V25.988H61.7339ZM39.1076 27.464C35.9046 27.464 33.2765 25.448 33.2765 23C33.2765 20.516 35.9046 18.536 39.1076 18.536C42.3517 18.536 44.9387 20.552 44.9387 23C44.9387 25.448 42.3517 27.464 39.1076 27.464Z" fill="#252527"/>
</svg>
