<svg width="86" height="21" viewBox="0 0 86 21" fill="none" xmlns="http://www.w3.org/2000/svg">
<g clip-path="url(#clip0_1_6650)">
<path d="M72.4543 13.986L84.6001 2.604H59.1912C58.7054 2.604 58.3167 2.94 58.2681 3.36V5.754C55.9847 2.352 51.175 0 45.6365 0C39.0778 0 33.588 3.276 31.9847 7.77V2.604H27.5637C26.4948 2.604 25.5718 3.024 24.8916 3.654L16.2924 11.802L7.69322 3.654C7.01305 3.024 6.08998 2.646 5.02115 2.604H0.600098V19.236H5.79848C6.28431 19.236 6.67297 18.858 6.67297 18.438V10.5L16.2924 19.698L25.9118 10.5V18.438C25.9118 18.858 26.3491 19.194 26.8349 19.236H31.9847V13.23C33.588 17.724 39.0778 21 45.6365 21C53.4584 21 59.8228 16.296 59.8228 10.5C59.8228 9.576 59.6284 8.736 59.3369 7.896H70.4139L58.2681 19.278H83.677C84.1629 19.278 84.5515 18.942 84.6001 18.522V13.986H72.4543ZM45.6851 15.708C41.8956 15.708 38.7863 13.356 38.7863 10.5C38.7863 7.602 41.8956 5.292 45.6851 5.292C49.5232 5.292 52.5839 7.644 52.5839 10.5C52.5839 13.356 49.5232 15.708 45.6851 15.708Z" fill="#252527"/>
</g>
<defs>
<clipPath id="clip0_1_6650">
<rect width="85" height="21" fill="white" transform="translate(0.600098)"/>
</clipPath>
</defs>
</svg>
