<svg width="121" height="32" viewBox="0 0 121 32" fill="none" xmlns="http://www.w3.org/2000/svg">
<path d="M16.3026 25.7173H20.6076L22.9156 12.2993H18.6106L17.7594 17.1045H14.0274L14.8786 12.2993H10.5736L8.26562 25.7173H12.5706L13.4381 20.696H17.1702L16.3026 25.7173ZM25.3545 12.2827L24.045 19.7482C23.9304 20.3302 23.8813 20.8955 23.8813 21.4276C23.8813 25.3848 27.286 25.9834 29.3321 25.9834C33.6207 25.9834 35.4703 24.5368 36.1414 20.6295L37.5819 12.266H33.2769L32.0493 19.2827C31.6564 21.4774 31.3782 22.6247 29.774 22.6247C28.7264 22.6247 28.219 22.0594 28.219 20.8955C28.219 20.4466 28.2845 19.8979 28.4154 19.2162L29.6594 12.266H25.3545V12.2827ZM60.3343 25.7173H64.6392L65.2449 22.2589H67.2746C71.023 22.2589 73.1018 20.1971 73.1018 16.4394C73.1018 13.7957 71.3013 12.2827 68.1421 12.2827H62.6423L60.3343 25.7173ZM67.0454 18.9501H65.8014L66.3743 15.791H67.5365C68.4859 15.791 68.9933 16.2732 68.9933 17.1544C68.9933 18.2684 68.2567 18.9501 67.0454 18.9501ZM81.4662 12C76.7848 12 73.9857 15.076 73.9857 20.247C73.9857 23.8385 76.2119 26 79.9439 26C84.6254 26 87.4244 22.924 87.4244 17.753C87.4408 14.1449 85.2146 12 81.4662 12ZM80.2058 22.5249C79.0928 22.5249 78.438 21.7102 78.438 20.3468C78.438 19.8314 78.4871 19.3824 78.5853 18.867C78.9127 17.1045 79.4692 15.4917 81.2207 15.4917C82.3337 15.4917 82.9885 16.3064 82.9885 17.6698C82.9885 18.1853 82.9394 18.6342 82.8412 19.1496C82.5138 20.8955 81.9573 22.5249 80.2058 22.5249ZM102.402 25.7173H106.707L108.409 15.8907H111.65L112.272 12.2993H101.256L100.634 15.8907H104.071L102.402 25.7173ZM95.265 17.2542C93.9064 16.8219 93.3498 16.639 93.3498 15.9905C93.3498 15.5582 93.6281 15.0428 94.4465 15.0428C95.0522 15.0428 95.5596 15.3919 95.756 15.9074L99.5536 14.8599C99.1116 12.9644 97.5075 12 94.7412 12C89.5359 12 89.1267 15.5416 89.1267 16.6223C89.1267 18.8171 90.2725 20.1639 92.7606 20.8622C93.4153 21.0451 94.1683 21.2447 94.1683 21.9762C94.1683 22.5582 93.7427 22.924 93.0061 22.924C92.335 22.924 91.6148 22.5249 91.3692 21.8266L87.6208 22.8575C88.03 24.8527 89.8797 25.9834 92.7769 25.9834C94.9867 25.9834 98.686 25.3848 98.686 21.3278C98.7024 19.2993 97.573 17.9691 95.265 17.2542Z" fill="#252527"/>
<path d="M5.86242 25.7174L8.18677 12.2993H1.06641V25.7174H5.86242ZM114.125 12.2993L111.817 25.7174H118.937V12.2993H114.125Z" fill="#252527"/>
<path d="M42.7229 21.7602H46.3404L46.9296 18.3849H43.3122L43.7214 15.8908H48.7793L49.4013 12.2827H40.0384L37.7305 25.7174H42.0354L42.7229 21.7602ZM54.0009 21.7602H57.6347L58.224 18.3849H54.6065L55.0158 15.8908H60.0737L60.6957 12.2827H51.3328L49.0248 25.7174H53.3298L54.0009 21.7602Z" fill="#252527"/>
</svg>
