<svg width="121" height="32" viewBox="0 0 121 32" fill="none" xmlns="http://www.w3.org/2000/svg">
<g clip-path="url(#clip0_1_3558)">
<path d="M13.8489 17.8094C14.226 17.198 14.8186 16.6376 15.5728 16.2809C16.7579 15.7714 18.3202 16.0262 19.3437 16.7904C20.2595 17.5546 20.7982 18.6755 20.5289 19.8983C20.7982 19.8983 20.9598 19.7455 21.2292 19.6436C22.6837 19.236 24.1921 19.6436 25.1617 20.8154C25.8621 21.6816 26.0775 22.9553 25.5927 23.9234C25.4311 24.4329 25.054 24.8404 24.623 25.299L24.7308 25.4009C26.0775 25.5028 27.4243 26.4199 27.8553 27.6936C28.2862 28.9674 27.963 30.2411 26.9395 31.1582C26.1314 31.9225 25.1617 32.1772 24.0843 32.0753H3.82895C2.10509 32.0753 0.866061 31.413 0.273483 30.0373C-0.265224 28.8655 0.00412972 27.337 0.973802 26.4199C1.62025 25.8085 2.42831 25.5537 3.29024 25.4009C2.32057 24.5348 1.83573 23.3629 2.10509 22.0892C2.21283 21.1721 3.07476 20.0512 4.15217 19.6945C5.06798 19.3379 6.307 19.4398 7.16893 19.8474C6.89958 18.4717 7.54603 17.2489 8.78505 16.4847C9.86247 15.8224 11.5325 15.8224 12.6099 16.5866C13.1486 16.8923 13.5795 17.4018 13.8489 17.8094Z" fill="#252527"/>
<path d="M45.0889 22.1906C44.7119 20.6621 43.4728 20.2545 41.9644 20.1526C37.2238 19.7451 36.4158 23.1077 36.4158 24.5343C36.4158 26.9799 37.1161 28.916 41.8028 28.916C42.7186 28.916 45.0351 28.0498 45.0351 26.7252H51.7689C51.4996 30.8011 44.3348 31.7182 41.2103 31.7182C34.7458 31.7182 29.1971 30.5973 29.4664 24.5343C29.6281 20.2036 33.9377 17.1976 42.5032 17.4014C47.2438 17.5033 51.8228 18.9299 51.8228 22.1397H45.0889V22.1906Z" fill="#252527"/>
<path d="M112.214 22.1908C111.837 20.6623 110.598 20.2547 109.089 20.1528C104.349 19.7452 103.541 23.1079 103.541 24.4835C103.541 26.9291 104.241 28.8652 108.928 28.8652C109.844 28.8652 112.16 27.9991 112.16 26.6744H118.894C118.625 30.7503 111.46 31.6674 108.335 31.6674C101.871 31.6674 96.3221 30.5465 96.5914 24.4835C96.7531 20.1528 101.063 17.1468 109.628 17.3506C114.369 17.4525 119.002 18.8791 119.002 22.0889H112.214V22.1908Z" fill="#252527"/>
<path d="M53.0605 17.7068H61.7337L69.1679 27.5401H69.2756V17.7068H74.8243V31.3103H66.5282L58.7708 21.4771H58.6631V31.3103H53.0605C53.0605 31.3613 53.0605 17.7068 53.0605 17.7068Z" fill="#252527"/>
<path d="M76.4961 17.7068H87.0547C92.1725 17.7068 95.0815 19.0824 95.0815 21.0695C95.0815 22.2413 93.8425 23.7698 91.0412 24.1774C94.3273 24.3302 95.6202 26.3682 95.6202 27.5401C95.6202 29.9857 92.765 31.2594 87.0547 31.2594H76.4961V17.7068ZM82.6912 23.0565H84.469C87.1625 23.0565 88.5631 22.9037 88.5631 21.7828C88.5631 20.6619 87.378 20.2543 85.0077 20.2543H82.7451V23.0565H82.6912ZM82.6912 28.5591H84.469C87.7012 28.5591 88.9402 28.2024 88.9402 27.1834C88.9402 26.0625 87.4318 25.6549 85.0077 25.6549H82.7451V28.5081H82.6912V28.5591Z" fill="#252527"/>
</g>
<defs>
<clipPath id="clip0_1_3558">
<rect width="121" height="32" fill="white"/>
</clipPath>
</defs>
</svg>
