<svg width="121" height="32" viewBox="0 0 121 32" fill="none" xmlns="http://www.w3.org/2000/svg">
<path d="M36.4825 27.2258C36.1189 26.3834 35.9253 25.4204 35.9253 24.337C35.9253 19.0175 40.6262 16.6739 45.406 16.6739H45.7228C47.1754 16.6739 52.9851 17.0426 53.5925 22.9149L47.809 23.547C47.7563 21.9405 47.4129 20.2553 45.4587 20.2553C42.95 20.2553 42.7651 22.3356 42.7651 24.3106V24.3634C42.7651 26.3383 42.9765 28.4187 45.4589 28.4187C46.7529 28.4187 47.9147 27.6813 47.9147 26.1013H53.6717L53.6452 26.6017C52.6947 31.2627 48.4429 32 45.406 32C41.7855 32 38.1899 30.6557 36.6828 27.6765V31.5388H26.1477V27.2258H28.138V22.7275C28.138 21.3782 27.1561 20.7695 25.9089 20.7695C24.3166 20.7695 23.1224 21.9338 23.1224 23.5214V27.2522H25.1658V31.5652H14.3917V27.2522H16.3291V20.7695H14.3919V16.4565H22.8836V19.4465C23.0429 19.3142 23.1755 19.1555 23.2817 19.0231C24.8209 17.2504 26.5988 16.6153 28.934 16.6153C32.2247 16.6153 34.8784 17.9383 34.8784 21.5634V27.2522V27.2258H36.4825ZM0 16.5896V12H13.6344V16.5896H11.0598V27.3164H13.6344V31.5652H0V27.3164H2.54813V16.5897L0 16.5896ZM55.6194 31.6738C54.3048 31.6738 53.2388 30.6031 53.2388 29.2825C53.2388 27.9617 54.3048 26.8912 55.6194 26.8912C56.9341 26.8912 58 27.9618 58 29.2826C58 30.6032 56.9341 31.6738 55.6194 31.6738Z" fill="#252527"/>
</svg>
