<svg width="121" height="32" viewBox="0 0 121 32" fill="none" xmlns="http://www.w3.org/2000/svg">
<path d="M45.3508 18.5191C45.3508 16.1851 45.3912 14.0121 45.5124 12L39.3337 13.167V13.7304L39.9394 13.8109C40.3836 13.8511 40.6663 14.0121 40.8279 14.2535C40.9894 14.5352 41.1105 14.9376 41.1913 15.5412C41.2721 16.7082 41.3529 19.3642 41.3125 23.5493C41.3125 27.6942 41.2721 30.3099 41.1913 31.3159C43.4124 31.7988 45.1489 32 46.4412 32C48.8642 32 50.7622 31.3159 52.1353 29.9074C53.5083 28.5392 54.2352 26.6076 54.2352 24.2334C54.2352 22.3421 53.7102 20.7726 52.6603 19.5252C51.6103 18.2777 50.2776 17.674 48.7027 17.674C47.6527 17.674 46.5623 17.9557 45.3508 18.5191ZM45.472 30.9135C45.3912 29.6258 45.3104 25.7626 45.3104 19.4447C45.6739 19.3239 46.1585 19.2435 46.7643 19.2435C47.7335 19.2435 48.5008 19.7264 49.0661 20.7324C49.6315 21.7384 49.9142 22.9457 49.9142 24.4748C49.9142 26.3662 49.5911 27.8954 48.945 29.1831C48.2988 30.4306 47.4912 31.0744 46.4816 31.0744C46.1585 30.994 45.8354 30.9537 45.472 30.9135ZM16.1535 12.4024H0V13.2072L0.848056 13.2877C1.49419 13.4085 1.93841 13.6499 2.2211 14.0121C2.50379 14.4145 2.66532 15.0584 2.7057 15.9437C3.02877 20.2897 3.02877 24.3541 2.7057 28.0966C2.62494 28.9819 2.4634 29.6258 2.2211 30.0282C1.93841 30.4306 1.49419 30.672 0.848056 30.7525L0 30.8732V31.6781H10.419V30.8732L9.32862 30.7928C8.68248 30.7123 8.23826 30.4306 7.95558 30.0684C7.67289 29.666 7.51136 29.0221 7.47097 28.1368C7.34982 26.5272 7.26906 24.6761 7.26906 22.6237L9.44977 22.664C10.6209 22.7042 11.4286 23.5895 11.8324 25.3602H12.6401V18.8008H11.8324C11.4286 20.5312 10.6613 21.4165 9.44977 21.4567L7.26906 21.497C7.26906 17.8753 7.34982 15.2998 7.47097 13.7304H10.6613C12.9228 13.7304 14.4573 15.1791 15.3458 18.0765L16.315 17.7948L16.1535 12.4024ZM14.2554 24.7968C14.2554 26.8893 14.8612 28.6197 16.0323 29.9879C17.2034 31.3561 18.9399 32 21.1206 32C23.3014 32 25.0782 31.3159 26.3705 29.9074C27.6628 28.5392 28.2686 26.8089 28.2686 24.7163C28.2686 22.6237 27.6628 20.8934 26.4917 19.5252C25.3205 18.1569 23.584 17.5131 21.4033 17.5131C19.2226 17.5131 17.4457 18.1972 16.1535 19.6056C14.8612 20.9738 14.2554 22.7042 14.2554 24.7968ZM23.261 20.2093C23.7456 21.3763 23.9475 22.9054 23.9475 24.7565C23.9475 29.0221 23.0591 31.1147 21.3226 31.1147C20.4341 31.1147 19.7476 30.5111 19.263 29.3038C18.7784 28.0966 18.5765 26.5674 18.5765 24.7565C18.5765 20.5312 19.4649 18.4386 21.2014 18.4386C22.0899 18.3984 22.7764 19.002 23.261 20.2093ZM57.3852 29.9879C58.7178 31.3159 60.4139 32 62.4331 32C63.685 32 64.7754 31.7586 65.7446 31.2354C66.7138 30.7525 67.4811 30.1489 68.0061 29.4245L67.6022 28.9416C66.7138 29.6258 65.7042 29.9477 64.5331 29.9477C62.9177 29.9477 61.6658 29.4245 60.8178 28.338C59.9293 27.2515 59.5255 25.8833 59.6063 24.1127H68.2484C68.2484 22.1811 67.7638 20.6117 66.7542 19.3642C65.7446 18.1569 64.3311 17.5533 62.5139 17.5533C60.2524 17.5533 58.5159 18.2777 57.264 19.6861C56.0121 21.0946 55.4064 22.8249 55.4064 24.8773C55.4064 26.9698 56.0525 28.66 57.3852 29.9879ZM60.3735 19.8873C60.8178 18.9215 61.3831 18.4386 62.1504 18.4386C63.3619 18.4386 63.9677 19.9678 63.9677 23.0664L59.687 23.1469C59.7274 21.9396 59.9293 20.8531 60.3735 19.8873ZM79.1116 18.2777C78.0212 17.7948 76.6482 17.5131 74.9924 17.5131C73.2963 17.5131 71.9637 17.9557 70.9541 18.8008C69.9445 19.6459 69.4195 20.6922 69.4195 21.9396C69.4195 23.0262 69.7426 23.8712 70.3483 24.4748C70.9541 25.0785 71.9233 25.6016 73.1752 26.0443C74.3059 26.4467 75.1136 26.8491 75.5174 27.2113C75.9212 27.6137 76.1636 28.0563 76.1636 28.66C76.1636 29.2233 75.9616 29.7465 75.5174 30.1489C75.1136 30.5915 74.5482 30.7928 73.8213 30.7928C72.0444 30.7928 70.7118 29.505 69.7829 26.9296L69.0964 27.1308L69.2579 31.1549C70.7118 31.7183 72.3271 32 74.104 32C75.9616 32 77.3751 31.5976 78.425 30.7525C79.475 29.9477 80 28.7807 80 27.332C80 26.3662 79.7577 25.5614 79.2327 24.9577C78.7077 24.3541 77.8597 23.831 76.6482 23.3481C75.3155 22.8652 74.3867 22.4225 73.9021 22.0201C73.4175 21.6177 73.1752 21.1348 73.1752 20.5312C73.1752 19.9276 73.3367 19.4447 73.7001 19.0423C74.0636 18.6398 74.5078 18.4789 75.0732 18.4789C76.6885 18.4789 77.8597 19.6459 78.5866 21.9396L79.2731 21.7384L79.1116 18.2777ZM40.2625 17.9155C39.6971 17.6338 39.0914 17.5131 38.4048 17.5131C37.7183 17.5131 37.0318 17.7948 36.2645 18.3581C35.4972 18.9215 34.9319 19.6861 34.4876 20.7324L34.528 17.5131L28.3897 18.7203V19.2837L28.9955 19.3239C29.7627 19.4044 30.207 20.008 30.2877 21.0946C30.53 23.5895 30.53 26.2455 30.2877 29.0624C30.207 30.1489 29.7627 30.7123 28.9955 30.833L28.3897 30.9135V31.6781H36.951V30.9135L35.8607 30.833C35.0934 30.7525 34.6492 30.1489 34.5684 29.0624C34.3261 26.7284 34.2857 24.2334 34.4876 21.6579C34.7299 21.2555 35.2549 21.0141 36.0626 20.9336C36.8703 20.8531 37.7991 21.0946 38.7683 21.6579L40.2625 17.9155Z" fill="#252527"/>
</svg>
