<svg width="171" height="32" viewBox="0 0 171 32" fill="none" xmlns="http://www.w3.org/2000/svg">
<g clip-path="url(#clip0_1_3552)">
<path d="M12.5367 12.2555C12.5367 10.4437 10.7587 10 9.35909 10V10.2588C10.1913 10.2588 10.8344 10.5176 10.8344 11.1832C10.8344 11.5529 10.5696 12.1076 9.69955 12.1076C9.05647 12.1076 7.65682 11.7378 6.63546 11.3681C5.42496 10.9244 4.32794 10.5546 3.38223 10.5546C1.52865 10.5546 0.204658 11.9227 0.204658 13.4756C0.204658 14.8437 1.22602 15.2874 1.6043 15.4723L1.67996 15.2874C1.49082 15.1025 1.22602 14.9177 1.22602 14.363C1.22602 13.9933 1.6043 13.3647 2.51218 13.3647C3.3444 13.3647 4.47925 13.7345 5.95455 14.1782C7.24071 14.5479 8.64036 14.8067 9.39692 14.9177V17.7278L7.99728 18.911V18.9849L9.39692 20.1681V24.0874C8.64036 24.5311 7.80814 24.6421 7.0894 24.6421C5.68975 24.6421 4.47925 24.2723 3.45789 23.2L7.27854 21.3883V15.1025L2.70132 17.0992C3.0796 15.916 4.10097 15.1025 5.12233 14.5479L5.00885 14.2891C2.20955 15.0286 -0.287109 17.5799 -0.287109 20.6488C-0.287109 24.2723 2.77698 27.0085 6.21935 27.0085C9.92652 27.0085 12.3475 24.0874 12.3475 21.0925H12.1962C11.6288 22.2757 10.7966 23.3479 9.7752 23.9026V20.1681L11.2505 18.9849V18.911L9.7752 17.7278V14.9177C11.1749 14.9177 12.5367 13.9933 12.5367 12.2555ZM4.44142 22.2757L3.30657 22.8303C2.66349 22.0168 2.28521 20.9076 2.28521 19.3916C2.28521 18.7631 2.28521 18.0236 2.47435 17.4689L4.44142 16.6555V22.2757ZM14.3146 24.3832L13.1041 25.3076L13.2932 25.4925L13.8607 25.0488L15.9034 26.8606L18.7027 25.0488L18.627 24.8639L17.8704 25.3076L16.9247 24.3832V18.1715L17.6813 17.6168L19.2701 18.874V24.4202C19.2701 27.8589 18.5135 28.4135 16.9626 28.9681V29.227C19.5727 29.3009 21.9937 28.4875 21.9937 24.0505V18.0975L22.826 17.4689L22.6368 17.2841L21.8802 17.8387L19.5349 15.916L16.9247 17.8387V10.3697H16.7356L13.4824 12.5513V12.7361C13.8607 12.921 14.4281 13.1059 14.4281 14.1042L14.3146 24.3832ZM31.3373 23.3849L29.0298 25.1227L26.7223 23.311V22.2017L31.1103 19.2807V19.2068L28.8406 15.916L23.9986 18.4673V24.4572L23.0529 25.1967L23.2421 25.3816L24.0743 24.753L27.2519 27.0085L31.4508 23.7177L31.3373 23.3849ZM26.6844 21.832V17.358L26.8736 17.2841L28.9163 20.4639L26.6844 21.832ZM49.1166 11.442C49.1166 11.1832 49.0409 10.8874 48.9274 10.6286H48.7383C48.4735 11.3681 48.0952 11.7378 47.1495 11.7378C46.3173 11.7378 45.7499 11.2941 45.3716 10.9244L42.6858 13.9193L42.8749 14.1042L43.8206 13.2908C44.3881 13.7345 44.842 14.1042 46.1282 14.2151V21.758L40.6431 12.5513C40.1891 11.8118 39.5082 10.8134 38.222 10.8134C36.7467 10.8134 35.4228 12.0706 35.6119 14.1042H35.8767C35.9524 13.5496 36.255 12.921 36.8981 12.921C37.352 12.921 37.8438 13.3647 38.1086 13.8454V16.8404C36.4441 16.8404 35.3093 17.5799 35.3093 18.9479C35.3093 19.6874 35.6876 20.7597 36.7846 21.0555V20.8706C36.5954 20.6858 36.5198 20.5009 36.5198 20.2421C36.5198 19.7984 36.8981 19.4286 37.5411 19.4286H37.9951V23.237C36.028 23.237 34.4771 24.3463 34.4771 26.158C34.4771 27.8959 35.9524 28.7093 37.6546 28.5984V28.4135C36.6333 28.3396 36.1793 27.8589 36.1793 27.2303C36.1793 26.4169 36.7467 26.0471 37.4655 26.0471C38.222 26.0471 38.8651 26.4908 39.3191 27.0454L42.0049 24.1244L41.8157 23.9395L41.1726 24.679C40.1513 23.7547 39.5839 23.4958 38.3734 23.311V14.1782L45.8634 26.8975H46.4308V14.1782C47.7926 14.1042 49.1166 12.995 49.1166 11.442ZM55.8878 23.3849L53.5803 25.1227L51.2728 23.311V22.2017L55.6609 19.2807V19.2068L53.429 15.916L48.587 18.4673V24.4572L47.6413 25.1967L47.8304 25.3816L48.6626 24.753L51.8402 27.0085L56.0392 23.7177C56.0013 23.7177 55.8878 23.3849 55.8878 23.3849ZM51.235 21.832V17.358L51.4241 17.2841L53.4668 20.4639C53.5047 20.4639 51.235 21.832 51.235 21.832ZM71.057 16.9143L70.4139 17.358L68.636 15.916L66.5932 17.7278L67.4255 18.5412V25.3446L65.1936 23.9765V18.3563L65.9502 17.9126L63.7939 15.916L61.7512 17.7278L62.5834 18.5412V25.0858L62.3186 25.2706L60.3516 23.9026V18.4673C60.3516 17.2101 59.7085 16.8404 58.9519 16.3597C58.3088 15.916 57.9306 15.6202 57.9306 14.9916C57.9306 14.437 58.498 14.1782 58.7628 13.9933V13.8084C58.0062 13.8084 56.077 14.5479 56.077 16.2488C56.077 17.1731 56.5309 17.5059 57.0227 17.9866C57.4766 18.4303 57.9684 18.8 57.9684 19.6135V24.9009L56.947 25.6404L57.1362 25.8253L58.0819 25.0858L60.2381 26.8975L62.5456 25.3446L65.1558 26.8975L70.0734 24.0874V17.9866L71.2839 17.0622L71.057 16.9143ZM88.3823 11.9227L87.4366 12.7361L85.3939 10.9244L82.3298 13.1059V11.1092H82.065L82.1406 25.8253C81.8758 25.8253 81.0058 25.6404 80.3627 25.4555L80.1736 13.1798C80.1736 12.2555 79.5305 10.9983 77.8661 10.9983C76.2016 10.9983 75.0668 12.2555 75.0668 13.5496H75.3316C75.4072 12.995 75.7098 12.5513 76.2773 12.5513C76.8447 12.5513 77.2986 12.921 77.2986 14.1042V17.6538C75.6342 17.7278 74.6128 18.6521 74.6128 19.8353C74.6128 20.5748 74.9911 21.6471 76.0881 21.6471V21.4622C75.7098 21.2774 75.6342 21.0185 75.6342 20.8337C75.6342 20.279 76.0881 20.0942 76.8447 20.0942H77.223V25.7143C75.8233 26.158 75.2559 27.1564 75.2559 28.2656C75.2559 29.8186 76.4664 30.8908 78.32 30.8908C79.6062 30.8908 80.741 30.706 81.838 30.4471C82.7837 30.2623 83.9942 30.0034 84.5238 30.0034C85.2804 30.0034 85.5452 30.3732 85.5452 30.8169C85.5452 31.4455 85.2804 31.7413 84.9021 31.8152V32.0001C86.3774 31.7413 87.3231 30.8169 87.3231 29.4488C87.3231 28.0807 85.9235 27.2673 84.4482 27.2673C83.6916 27.2673 82.1406 27.5261 81.0058 27.711C79.7196 27.9698 78.3956 28.1547 78.0174 28.1547C77.3743 28.1547 76.6177 27.8959 76.6177 26.9715C76.6177 26.232 77.2608 25.6034 78.8496 25.6034C79.6818 25.6034 80.7032 25.6774 81.7245 25.9732C82.8594 26.232 83.8807 26.5278 84.7886 26.5278C86.1883 26.5278 87.3988 26.0841 87.3988 24.1614V12.995L88.5336 12.0706L88.3823 11.9227ZM84.5617 17.4689C84.2969 17.7278 83.9186 18.0236 83.4268 18.0236C82.935 18.0236 82.4811 17.7647 82.292 17.4689V13.4387L83.2377 12.8101L84.5238 13.9933C84.5617 13.9933 84.5617 17.4689 84.5617 17.4689ZM84.5617 20.1681C84.3725 19.9832 83.9186 19.7244 83.4268 19.7244C82.935 19.7244 82.4811 19.9832 82.292 20.1681V17.8017C82.4811 17.9866 82.935 18.2454 83.4268 18.2454C83.9186 18.2454 84.3725 17.9866 84.5617 17.8017V20.1681ZM84.5617 24.4572C84.5617 25.1967 84.1077 25.8992 83.0863 25.8992H82.3298V20.5379C82.5189 20.353 82.9729 20.0942 83.4646 20.0942C83.9564 20.0942 84.2969 20.353 84.5995 20.5379C84.5617 20.5379 84.5617 24.4572 84.5617 24.4572ZM97.3098 17.9866L94.3213 15.879L89.7441 18.4303V24.3463L88.7984 25.0858L88.8741 25.2706L89.6306 24.716L92.6191 26.8975L97.2719 24.1614C97.3098 24.1984 97.3098 17.9866 97.3098 17.9866ZM92.2786 23.7177V17.1731L94.5861 18.8V25.2706C94.624 25.2706 92.2786 23.7177 92.2786 23.7177ZM106.162 16.1009H105.972C105.708 16.2857 105.405 16.4706 105.14 16.4706C104.762 16.4706 104.308 16.2857 104.119 16.0269H103.93L102.341 17.7647L100.752 16.0269L97.9529 17.8387L98.0285 18.0236L98.7851 17.5799L99.7308 18.5782V24.3093L98.5203 25.2337L98.7094 25.4185L99.2768 24.9748L101.509 26.7866L104.384 24.8639L104.308 24.679L103.476 25.1227L102.341 24.1984V17.8387C102.795 18.2824 103.362 18.7631 104.005 18.7631C105.292 18.837 106.048 17.5429 106.162 16.1009ZM117.321 24.8269L114.143 26.9345L109.869 20.5748L112.933 15.953H113.122C113.5 16.3227 114.068 16.6925 114.711 16.6925C115.354 16.6925 115.846 16.3227 116.11 15.953H116.3C116.224 17.7647 114.9 18.874 113.992 18.874C113.046 18.874 112.592 18.4303 112.025 18.1345L111.76 18.5782L116.413 25.3076L117.359 24.753V24.8269H117.321ZM107.069 24.3832L105.859 25.3076L106.048 25.4925L106.616 25.0488L108.658 26.8606L111.458 25.0488L111.268 24.8639L110.512 25.3076L109.566 24.3832V10.3697H109.49L106.124 12.5513V12.7361C106.502 12.921 107.069 12.995 107.069 14.1042V24.3832ZM132.755 12.2555C132.755 10.4437 130.977 10 129.577 10V10.2588C130.409 10.2588 131.053 10.5176 131.053 11.1832C131.053 11.5529 130.788 12.1076 129.918 12.1076C129.275 12.1076 127.875 11.7378 126.854 11.3681C125.643 10.9983 124.546 10.6286 123.6 10.6286C121.747 10.6286 120.423 11.9966 120.423 13.5496C120.423 14.9177 121.444 15.3614 121.822 15.5462L121.898 15.3614C121.633 15.1765 121.331 14.9916 121.331 14.437C121.331 14.0672 121.709 13.4387 122.617 13.4387C123.449 13.4387 124.584 13.8084 126.059 14.2521C127.345 14.6219 128.745 14.8807 129.502 14.9916V17.8017L128.102 18.9849V19.0589L129.502 20.2421V24.1614C128.745 24.6051 127.913 24.716 127.194 24.716C125.794 24.716 124.584 24.3463 123.563 23.274L127.383 21.4622V15.1025L122.73 17.0992C123.184 15.916 124.206 15.1025 125.151 14.474L125.076 14.2891C122.276 15.0286 119.78 17.4689 119.78 20.5748C119.78 24.1984 122.844 26.9345 126.286 26.9345C129.993 26.9345 132.414 24.0135 132.414 21.0185H132.225C131.658 22.2017 130.826 23.274 129.804 23.8286V20.0942L131.28 18.911V18.837L129.88 17.6538V14.9177C131.355 14.9177 132.755 13.9933 132.755 12.2555ZM124.66 22.2757L123.525 22.8303C122.882 22.0168 122.503 20.9076 122.503 19.3916C122.503 18.7631 122.579 18.0236 122.768 17.4689L124.735 16.6555L124.66 22.2757ZM136.008 11.3681H135.895L134.041 12.921V12.995L135.63 14.7328H135.819L137.673 13.1798V13.1059L136.008 11.3681ZM138.807 24.8269L138.051 25.2706L137.105 24.3463V18.0605L138.051 17.432L137.862 17.2471L137.219 17.8017L135.554 15.879L132.868 17.6908L133.057 17.9496L133.701 17.5059L134.533 18.5042V24.4202L133.322 25.3446L133.398 25.5295L134.041 25.0858L136.084 26.8975L138.883 25.0858L138.807 24.8269ZM154.317 24.716L153.674 25.1597L152.652 24.2353V18.0975L153.598 17.358L153.409 17.1731L152.652 17.8017L150.496 15.879L147.697 17.8017L145.541 15.879L142.931 17.8017L141.266 15.879L138.58 17.6908L138.656 17.9496L139.299 17.5059L140.245 18.5042V24.4202L139.488 25.1597L141.644 26.8975L143.687 25.0858L142.855 24.2723V18.0975L143.687 17.5429L145.087 18.8V24.2723L144.33 25.0118L146.486 26.7496L148.529 24.9379L147.697 24.1244V18.0975L148.454 17.6538L149.929 18.911V24.3832L149.286 25.0118L151.442 26.9345L154.317 25.0118V24.716ZM162.412 23.3849L160.105 25.1227L157.797 23.311V22.2017L162.185 19.2807V19.2068L159.953 15.916L155.111 18.4673V24.6421L158.365 26.8975L162.564 23.6068C162.526 23.6437 162.412 23.3849 162.412 23.3849ZM157.759 21.832V17.358L157.948 17.2841L159.991 20.4639L157.759 21.832ZM170.886 21.0185L169.108 19.6505C170.318 18.6521 170.772 17.2841 170.772 16.3597V15.8051H170.583C170.394 16.2488 170.016 16.7294 169.297 16.7294C168.54 16.7294 168.086 16.3597 167.632 15.8051L163.434 18.0605V21.3513L165.022 22.5345C163.434 23.9026 163.169 24.79 163.169 25.5295C163.169 26.4538 163.623 27.0824 164.379 27.3412L164.455 27.1564C164.266 26.9715 164.077 26.8975 164.077 26.4169C164.077 26.158 164.455 25.6774 165.211 25.6774C166.157 25.6774 166.687 26.3059 166.989 26.6017L170.999 24.2353V20.9446C170.999 21.0185 170.886 21.0185 170.886 21.0185ZM169.864 18.2824C169.221 19.3916 167.822 20.4639 166.989 21.0185L165.968 20.2051V17.0252C166.346 17.9496 167.368 18.6521 168.389 18.6521C169.032 18.6521 169.41 18.5412 169.864 18.2824ZM168.276 25.5664C167.822 24.5681 166.687 23.8286 165.59 23.8286C165.325 23.8286 164.568 23.8286 163.812 24.2723C164.266 23.5328 165.476 22.2757 167.065 21.3513L168.2 22.2757L168.276 25.5664Z" fill="#252527"/>
</g>
<defs>
<clipPath id="clip0_1_3552">
<rect width="171" height="32" fill="white"/>
</clipPath>
</defs>
</svg>
