<svg width="48" height="48" viewBox="0 0 48 48" fill="none" xmlns="http://www.w3.org/2000/svg">
<path d="M1 1H39.5858L47 8.41421V47H1V1Z" fill="#151515" stroke="#1D1D1D" stroke-width="2"/>
<path d="M29.6585 16.9286C30.049 16.5381 30.6822 16.5381 31.0727 16.9286C31.4632 17.3192 31.4632 17.9523 31.0727 18.3428L25.4158 23.9998L31.0727 29.6566C31.4632 30.0471 31.4632 30.6803 31.0727 31.0708C30.6822 31.4613 30.049 31.4613 29.6585 31.0708L24.0016 25.414L18.3448 31.0708C18.3387 31.0769 18.3325 31.0829 18.3263 31.0888C17.9346 31.4612 17.315 31.4552 16.9306 31.0708C16.6377 30.7779 16.5645 30.3485 16.7109 29.9874C16.7597 29.867 16.833 29.7542 16.9306 29.6566L22.5874 23.9998L16.9306 18.3429C16.5401 17.9524 16.5401 17.3192 16.9306 16.9287C17.3211 16.5382 17.9543 16.5382 18.3448 16.9287L24.0016 22.5855L29.6585 16.9286Z" fill="white"/>
</svg>
