<svg width="21" height="20" viewBox="0 0 21 20" fill="none" xmlns="http://www.w3.org/2000/svg">
<path d="M3.21106 17.5L18.3487 2.5" stroke="#A2AAB4" stroke-width="1.5" stroke-linecap="round" stroke-linejoin="round"/>
<path d="M9.58898 11.1797C9.27338 10.8672 9.09598 10.4432 9.09583 10.0011C9.09567 9.559 9.27275 9.1349 9.58813 8.8222C9.90351 8.5095 10.3314 8.3337 10.7775 8.3335C11.2237 8.3334 11.6517 8.5088 11.9673 8.8214" stroke="#A2AAB4" stroke-width="1.5" stroke-linecap="round" stroke-linejoin="round"/>
<path d="M8.56224 15.5317C9.28331 15.7361 10.0299 15.8385 10.7799 15.8359C14.1438 15.8359 16.9468 13.8917 19.1897 10.0025C18.5354 8.8684 17.834 7.8992 17.0847 7.0959M15.285 5.5451C13.9134 4.6284 12.4131 4.1692 10.7799 4.1692C7.41599 4.1692 4.61301 6.1134 2.37012 10.0025C3.52142 11.9984 4.81989 13.4817 6.26553 14.4534" stroke="#A2AAB4" stroke-width="1.5" stroke-linecap="round" stroke-linejoin="round"/>
</svg>
