<svg width="19" height="14" viewBox="0 0 19 14" fill="none" xmlns="http://www.w3.org/2000/svg">
<path d="M8.21886 8.01049C7.90326 7.69797 7.72586 7.27403 7.72571 6.83191C7.72555 6.3898 7.90264 5.9657 8.21802 5.653C8.5334 5.3403 8.96128 5.1645 9.40738 5.1643C9.85358 5.1642 10.2816 5.3396 10.5972 5.6522" stroke="#A2AAB4" stroke-width="1.5" stroke-linecap="round" stroke-linejoin="round"/>
<path d="M7.19212 12.3625C7.91319 12.5669 8.65978 12.6693 9.40978 12.6667C12.7737 12.6667 15.5767 10.7225 17.8196 6.83335C17.1653 5.6992 16.4639 4.73 15.7146 3.9267M13.9149 2.3759C12.5433 1.4592 11.043 1 9.40978 1C6.04587 1 3.24289 2.9442 1 6.83335C2.1513 8.82919 3.44977 10.3125 4.89541 11.2842" stroke="#A2AAB4" stroke-width="1.5" stroke-linecap="round" stroke-linejoin="round"/>
</svg>
