<svg width="410" height="386" viewBox="0 0 410 386" fill="none" xmlns="http://www.w3.org/2000/svg">
<path d="M101.879 318.199L77.1331 293.086L55.0954 265.233L36.353 235.351M401.084 167.065L396.952 159.832L388.681 135.343L377.663 111.164L364.116 87.714M206.548 72.6082L219.007 55.7413L227.761 34.556L231.536 12.0845L229.797 -8.46433L222.856 -24.192L211.772 -33.0015M138.587 -21.7036L121.43 -12.0096L106.723 1.20953L94.8476 17.756L86.1532 37.3492L80.9331 59.6107L79.3968 84.0612L81.6581 110.157L87.7245 137.283L97.5079 164.762L110.787 191.901L127.259 218.015L146.507 242.417L168.038 264.507L191.284 283.722L215.656 299.61L240.524 311.825L265.272 320.122L289.304 324.389L312.076 324.611L333.086 320.891L351.917 313.403L368.212 302.423M153.081 81.2113L161.086 64.6936L161.551 44.2273L154.298 22.6243L140.264 2.94389L121.423 -11.9994L100.463 -20.1074L80.3686 -20.3088L63.8881 -12.7017M365.387 88.7444L364.329 87.6603L348.268 65.4324L330.435 44.6493L310.903 25.7693L290.007 9.13628L268.107 -4.91922L245.591 -16.107L222.859 -24.1747L200.343 -28.9103L178.495 -30.132L157.751 -27.7446L138.58 -21.6934L119.4 -30.6074L100.491 -31.3461L84.437 -23.9528L77.8464 -20.3467L63.9061 -12.7048L46.152 2.67996L31.6691 22.0025L20.8898 44.9327L11.007 58.0956L4.3876 83.6233L2.00894 111.681L4.04119 141.628L10.53 172.754L21.3682 204.277L36.3413 235.389L33.612 240.381L51.1408 268.334L71.7567 294.39L94.9175 317.886L101.856 318.229L128.651 339.967L156.775 357.802L185.422 371.362L186.163 371.646L200.246 376.067L214.103 380.322L241.892 384.65L253.24 384.51L268.215 384.328L283.491 381.296L290.222 379.96L292.504 379.505L309.689 375.103L323.381 362.641L345.123 353.607L363.9 340.583L369.966 323.103L384.656 307.469L396.042 288.828L403.993 267.635L399.523 252.017L403.643 230.758L404.544 208.014L402.282 184.229L396.941 159.869L384.833 155.347L366.275 154.238L343.841 156.75L320.748 162.555L300.325 170.807L285.459 180.294L278.136 189.666L279.172 197.642L280.658 203.969L281.114 207.643L281.735 217.306L280.733 230.281L277.856 242.337L276.176 246.201L274.934 248.001L270.006 252.687L263.421 255.012L260.499 255.433L256.233 255.288L242.609 252.594L237.966 250.958L228.689 247.692L223.059 244.853L215.292 240.934L207.826 235.977L192.963 223.555L179.197 209.358L166.888 193.716L156.31 177.009L147.732 159.628L142.167 144.291L141.508 142.083L139.997 134.969L139.093 125.842L138.542 120.292L139.173 106.419L141.699 94.4309L141.938 94.1065L145.605 88.5479L148.44 85.7871L151.439 84.6781L156.429 82.8433L157.685 82.3831L171.997 72.0124L182.923 70.29L193.425 53.0679L198.565 31.2819L197.565 7.97809L190.539 -13.5032L178.534 -30.1208L163.291 -39.6082L146.967 -40.7817L135.945 -39.5764L122.878 -38.1514L100.516 -31.3146L80.4005 -20.2875L63.0345 -5.17258L48.9012 13.8247L38.426 36.3836L20.893 44.9499L14.1843 71.0525L11.8258 99.7738L13.9875 130.472L20.709 162.403L31.8979 194.765L47.3151 226.717L66.592 257.425L89.2408 286.063L114.649 311.891L142.138 334.259L170.973 352.614L200.399 366.558L229.67 375.837L258.067 380.33L284.929 380.05L309.688 375.148L319.814 370.911L331.849 365.865L343.555 357.728L351.001 352.547L363.906 340.618L379.412 324.003L391.421 304.252L396.467 290.774L398.993 284.03L399.812 281.857L404 267.67L408.448 244.409L408.783 235.688L409.4 219.569L408.585 211.076L406.908 193.636L405.207 185.897L401.086 167.126L398.885 160.609L392.092 140.492L389.863 135.588L385.616 126.269L380.12 114.226L378.012 111.186L365.408 88.7586L364.35 87.6745L361.606 83.408L348.469 65.3097L348.218 64.5523L334.624 48.7171L330.602 44.4435L328.853 41.9912L317.645 31.1496L311.039 25.3465L307.633 21.4846L301.145 16.3191L290.089 7.51383L284.933 3.40421L261.115 -11.9018L236.593 -24.1121L211.8 -32.9528L187.2 -38.1732L172.213 -39.2694L164.489 -39.7298L163.095 -39.7086L140.525 -37.0762L119.435 -30.5688L100.506 -20.079L84.2122 -5.71327L71.0017 12.3288L61.2633 33.7329L55.3308 58.0873L53.454 84.879L55.7553 113.51L62.2656 143.29L72.8947 173.479L87.4161 203.307L105.482 231.997M105.482 231.997L126.634 258.79L150.31 283.007L175.902 304.031L202.713 321.367L230.064 334.621L257.249 343.548L283.63 348.025L308.603 348.054L331.602 343.759L352.183 335.355L369.976 323.155L368.233 302.482L381.724 288.33L392.205 271.396L399.543 252.075L386.87 237.188M105.482 231.997L127.276 218.057L146.429 206.009L160.238 197.554L166.901 193.785M105.482 231.997L84.2308 245.801L66.6164 257.456L55.1113 265.32L51.1684 268.383M386.87 237.188L390.614 218.383L391.497 198.211L389.549 177.084L384.853 155.406L377.522 133.585L367.723 112.019L355.658 91.1007L341.536 71.1953L325.628 52.6657L308.192 35.8506L289.556 21.0593L270.044 8.58399L250.002 -1.31366L229.806 -8.4126L209.848 -12.512L190.506 -13.4799L172.207 -11.2281L155.327 -5.73128L140.27 2.97838L127.418 14.7923L117.098 29.5219L109.598 46.9056L105.159 66.5916L103.951 88.1784L106.067 111.17L111.513 135.041L120.188 159.196L131.919 183.05L146.418 206.002L163.336 227.473L182.246 246.92L202.662 263.882L224.062 277.951L245.923 288.822L267.705 296.285L288.898 300.212L309.006 300.589L327.614 297.486L344.329 291.048L358.83 281.498L370.879 269.118L380.267 254.234L386.87 237.188ZM146.488 82.3827L146.196 79.2411L144.786 64.3071L134.561 45.8259L117.112 29.5463L94.8603 17.825L70.9869 12.349L48.9002 13.8692L31.6818 22.0715L21.615 35.7009L11.0197 58.1646M268.249 384.411L284.956 380.099L299.089 367.448L308.609 348.089L312.092 324.697L309.009 300.606L299.828 279.257L285.912 263.645L269.275 255.84M279.181 197.738L277.082 191.123L274.111 181.749L272.151 177.297L267.157 165.953L265.682 163.366L258.453 150.664L257.771 149.694L248.168 136.147L236.515 122.697M145.593 88.63L146.823 85.9613L152.965 72.672L152.236 53.251L143.344 33.0167L127.442 14.8237L106.746 1.28552L84.2111 -5.66863L63.044 -5.12083L46.1755 2.75594M263.458 255.113L267.264 254.89L268.14 254.84L268.205 254.838L281.423 254.073L299.773 261.571L315.952 276.731L327.635 297.5L333.12 320.974L331.626 343.79L323.415 362.724L299.107 367.445L272.716 367.6L244.803 363.053L216.028 353.789L187.085 339.94L158.701 321.75L131.63 299.632L106.585 274.107L84.2446 245.826L65.1919 215.524L49.9223 184.018L38.8088 152.115L32.0618 120.65L29.799 90.4135L31.9778 62.1313L38.4356 36.4353L61.259 33.7603L86.1766 37.4252L109.612 46.9299L128.224 60.8897L139.44 77.2669L141.32 90.1576L141.853 93.7474M379.439 324.051L384.69 307.553L381.749 288.361L370.893 269.142L353.615 252.629L332.347 241.187L310.138 236.4L290.106 238.854L277.558 246.519L274.971 248.101M391.459 304.308L396.086 288.918L392.23 271.427L380.281 254.258L361.847 239.859L339.537 230.29L316.535 226.907L296.074 230.118L280.961 239.379M228.386 99.7833L242.855 89.7593L258.309 74.5306L272.537 56.2463L283.463 37.5397L289.555 21.1039L290.016 9.23266L284.924 3.45898M148.419 85.8793L149.518 84.8148L153.108 81.3046L161.976 75.76L171.984 72.0945L181.574 54.9281L185.023 33.2666L181.763 10.1299L172.231 -11.1967L157.782 -27.6788L140.521 -37.0488L122.876 -38.1068M241.933 384.723L258.094 380.378L272.697 367.603L283.655 348.056L289.339 324.472L288.919 300.227L282.489 278.796L271.047 263.159L256.278 255.378M181.77 10.1197L167.258 15.0227L154.347 22.6872L143.362 33.0137L134.579 45.8229L128.242 60.8866L124.548 77.8967L123.617 96.495L125.529 116.268L130.275 136.755L137.766 157.474L147.841 177.91L160.277 197.565L174.774 215.968L190.956 232.656L208.435 247.233L226.775 259.364L245.536 268.784L264.263 275.294L282.507 278.793L299.864 279.251L315.96 276.721L330.462 271.313M330.462 271.313L343.096 263.206L353.623 252.619L361.862 239.839L367.71 225.16L371.08 208.915L371.952 191.455L370.354 173.131L366.342 154.298L360.023 135.329L351.535 116.573L341.043 98.3675L328.76 81.05L314.91 64.9382L299.728 50.339L283.507 37.5235L266.534 26.745L249.116 18.2369L231.591 12.1817L214.299 8.74492L197.586 8.03696L181.799 10.1238M330.462 271.313L344.351 291.062L351.951 313.486L352.208 335.387L345.157 353.69L331.884 365.904M330.462 271.313L312.293 257.03L292.426 250.151L277.128 251.249L274.939 251.404L273.634 251.499L273.572 251.518M149.569 84.7884L152.485 82.6714L162.02 75.7438L170.769 58.8165L172.642 37.5979L167.276 15.0197L155.387 -5.7058L138.647 -21.6335M386.909 237.199L367.721 225.167L344.705 217.725L321.16 215.944M321.16 215.944L300.423 220.028L285.353 229.317L277.904 242.444M321.16 215.944L316.56 226.894L310.163 236.386L302.079 244.208L292.445 250.148L281.448 254.059L269.319 255.824L262.137 255.575L260.562 255.52M321.16 215.944L323.896 203.779L324.739 190.652L323.696 176.839L320.808 162.624L316.144 148.282L309.804 134.089L301.92 120.315L292.645 107.229L282.156 95.0843L270.652 84.1058L258.36 74.5042L245.493 66.4835M139.2 106.512L136.372 91.8697L124.544 77.9241L105.198 66.6474L80.9778 59.701L55.3477 58.1289L31.9884 62.1384L14.2225 71.1083L4.42911 83.6962M173.426 367.701L185.492 371.439L214.184 380.406L229.737 375.897L244.831 363.057L257.31 343.574L265.343 320.199L267.762 296.293L264.281 275.291L255.474 260.1L242.683 252.688M408.512 244.452L403.713 230.835L390.664 218.401L371.091 208.922L347.72 203.797L323.903 203.769L303.035 208.808L288.007 218.126L280.785 230.361M270.065 252.757L273.58 251.508L273.641 251.489L282.598 246.018L290.128 238.824L296.104 230.077L300.435 219.99L303.039 208.78L303.898 196.691L303.008 183.963L300.399 170.857L296.148 157.636L290.34 144.553L283.085 131.865L274.541 119.811L264.871 108.621L254.257 98.5242L242.903 89.7158L231.017 82.3655L218.845 76.6366L206.605 72.6609L192.249 82.8968L178.015 85.22M197.846 92.5137L209.989 99.9451L223.741 110.537L236.566 122.67L240.448 123.359L250.301 118.502L264.874 108.639L282.174 95.0812L299.707 79.7604L314.932 64.9078L325.682 52.6566L330.666 44.4414L328.918 41.9893M156.384 177.059L147.863 177.879L131.984 183.048L110.858 191.934L87.4703 203.298L65.2323 215.491L47.3831 226.732L36.4125 235.421M120.09 338.252L146.466 354.95L156.853 357.824L171.041 352.629L187.108 339.91L202.76 321.368L215.72 299.653L224.116 277.942L226.797 259.333L223.501 246.388M409.447 219.57L404.605 208.039L391.548 198.184L371.964 191.418L348.584 188.765L324.751 190.615L303.887 196.684L288.916 206.055L281.784 217.368M191.15 89.4006L192.373 89.1595L204.441 86.8095L218.826 76.6396L232.301 60.1795L242.913 39.7217L249.117 18.1923L250.048 -1.31264L245.644 -16.0715L236.611 -24.1151M138.559 120.333L135.614 107.728L123.603 96.4707L103.979 88.1824L79.4245 84.1097L53.4434 84.8719L29.7925 90.3791L11.847 99.788L2.04083 111.703L1.5235 124.428L2.02939 131.853L2.78563 143.102L3.42627 152.566L8.14121 175.253L9.49338 181.763L18.228 207.196L19.6378 211.296M406.922 193.661L402.309 184.278L389.574 177.071L370.333 173.117L347.266 173.016L323.682 176.814L302.979 183.959L288.057 193.392L280.887 203.744M146.433 354.973L154.402 358.725L169.177 365.678L173.402 367.669L185.547 371.385L200.434 366.597L216.017 353.782L230.075 334.628L240.562 311.881L245.952 288.826L245.533 268.766L239.472 254.473L228.741 247.772M204.218 95.4856L216.586 92.4898L231.013 82.3929L245.493 66.4835M245.493 66.4835L257.932 46.9892L266.539 26.7177L270.09 8.58509L268.171 -4.87662L261.144 -11.8978M245.493 66.4835L232.315 60.2038L219.077 55.8183L206.04 53.4256L193.471 53.1136L181.636 54.9088L170.795 58.8033L161.189 64.7474L153.045 72.6497L146.56 82.3705L142.916 91.2845L141.922 93.7181L141.763 94.4735M94.9706 317.921L120.072 338.255L128.704 340.002L142.188 334.277L158.712 321.712L175.939 304.025L191.347 283.765L202.698 263.876L208.432 247.216L207.868 236.05M206.59 72.6812L194.543 70.5572L180.208 80.8519L168.615 80.678M140.02 135.045L137.293 124.625L125.519 116.261L106.109 111.198L81.6889 110.223L55.7584 113.527L32.0692 120.64L14.0226 130.511L4.07942 141.684L3.44007 152.59M368.261 302.486L358.859 281.503L343.093 263.189L323.216 250.153L302.057 244.193L285.383 245.763L282.591 246.028L273.652 251.496M101.905 318.292L114.695 311.937L131.638 299.622L150.342 283.028L168.087 264.57L182.278 246.941L190.938 232.659L192.99 223.649M141.36 142.09L130.257 136.758L111.555 135.07L87.7627 137.339L62.2688 143.307L38.7982 152.108L20.744 162.442L10.5683 172.81L9.50402 181.77M71.7949 294.446L77.1597 293.179L89.2758 286.102L106.582 274.09L126.648 258.814L146.538 242.483L163.357 227.487L174.745 215.964L179.231 209.441M281.148 207.726L280.692 204.052L280.521 201.868L278.177 189.739L273.693 175.607L267.534 161.641L259.835 148.112L250.745 135.27L240.43 123.362L229.083 112.624L216.929 103.266L209.96 99.941M392.106 140.517L388.705 135.419L377.537 133.565L359.998 135.297L338.505 140.433L316.131 148.258L296.12 157.632L281.313 167.189L273.69 175.59L274.13 181.702M223.701 110.525L229.072 112.617L239.7 108.474L254.221 98.5303L270.631 84.0916L286.56 67.2007L299.704 50.3076L308.2 35.8404L311.05 25.3536L307.644 21.4917M380.137 114.268L378.029 111.227L367.744 112.033L351.517 116.576L331.229 124.299L309.789 134.109L290.299 144.587L275.552 154.213L267.537 161.658L267.175 165.95M364.142 87.8073L355.669 91.1078L341.033 98.3604L322.204 108.584L301.895 120.328L283.052 131.888L268.367 141.602L259.838 148.129L258.479 150.651M248.204 136.141L250.748 135.287L259.893 129.625L274.526 119.831L292.638 107.239L311.637 93.6533L328.767 81.0399L341.575 71.2065L348.512 65.3381L348.26 64.5806M147.817 159.685L137.806 157.441L120.282 159.198L97.5971 164.791L72.9669 173.467L49.9882 183.972L31.9914 194.767L21.4756 204.303L19.7176 211.274L32.7428 238.349L33.7269 240.397M157.775 82.4125L159.802 82.0893L168.694 80.6556L183.012 70.3194L194.623 70.5349L206.083 53.4093L213.013 31.7757L214.365 8.69831L209.967 -12.5231L200.476 -28.897L187.298 -38.1986L163.193 -39.734L147.057 -40.7968M276.305 246.241L281.071 239.316L285.426 229.26L288.076 218.096L288.981 206.053L288.147 193.377L285.598 180.341L281.407 167.191L275.657 154.178L268.472 141.566L259.991 129.599L250.373 118.49L239.811 108.473L228.499 99.7377L217.029 103.258L204.298 95.4634L197.919 92.5015L191.233 89.3957L178.088 85.2078L165.482 82.9825L165.129 82.9884L157.152 82.8729L156.544 82.8596M228.506 99.7275L216.673 92.4574L204.531 86.7944L192.329 82.8744L180.31 80.7992L165.479 82.9652L165.126 82.9712M215.435 240.954L223.588 246.355L239.574 254.42L255.554 260.033L271.157 263.096L286.04 263.579L299.882 261.508L312.384 256.97L323.311 250.11L332.446 241.117L339.643 230.21L344.785 217.658L347.801 203.73L348.653 188.736L347.361 172.973L343.981 156.753L338.592 140.4L331.317 124.222L322.295 108.525L311.71 93.5966L299.755 79.7168L286.655 67.1582L272.65 56.1561L258.006 46.9324L242.99 39.682L227.894 34.5693L213.014 31.731L198.653 31.2495L185.119 33.1795L172.701 37.5169L161.689 44.2132L152.342 53.1709L144.893 64.227L139.536 77.1797L136.436 91.7611L135.695 107.661L137.36 124.534L140.311 137.174L141.598 142.067L142.258 144.276" stroke="url(#paint0_linear_1_10)" stroke-opacity="0.3" stroke-width="1.08501" stroke-linecap="round" stroke-linejoin="round"/>
<defs>
<linearGradient id="paint0_linear_1_10" x1="113.469" y1="36.3877" x2="351.95" y2="394.844" gradientUnits="userSpaceOnUse">
<stop stop-color="#D2F467"/>
<stop offset="1" stop-color="white" stop-opacity="0.49"/>
</linearGradient>
</defs>
</svg>
