<svg width="68" height="64" viewBox="0 0 68 64" fill="none" xmlns="http://www.w3.org/2000/svg">
<g opacity="0.5">
<path d="M55.0973 18.3109C55.0138 18.2427 48.4321 13.0037 47.0834 12.2225C45.4513 11.2778 43.4115 11.1157 41.5735 11.3095C36.4712 11.851 31.7538 14.9153 28.0099 18.2515C26.4307 19.6576 24.9657 21.1938 23.6218 22.8243C15.454 32.722 13.215 44.3586 18.6186 48.8198C20.2339 50.1517 26.4623 55.0558 28.2478 55.5536C31.2553 56.3953 34.5305 55.585 37.3189 54.3813C41.1148 52.7447 44.4931 50.1827 47.402 47.2701C48.3466 46.3245 49.2427 45.3324 50.093 44.3041C58.2607 34.4064 60.4997 22.7698 55.0961 18.3086L55.0973 18.3109Z" fill="url(#paint0_linear_1_6787)"/>
<path d="M42.6544 38.599C50.8216 28.7022 53.0619 17.0642 47.6581 12.6048C42.2544 8.14551 31.253 12.5535 23.0858 22.4503C14.9186 32.3471 12.6783 43.9851 18.082 48.4445C23.4858 52.9038 34.4872 48.4958 42.6544 38.599Z" fill="url(#paint1_linear_1_6787)"/>
<path d="M29.4666 34.7623C30.2573 33.4795 30.1128 31.9555 29.1439 31.3582C28.1749 30.7609 26.7484 31.3165 25.9577 32.5993C25.167 33.882 25.3115 35.4061 26.2805 36.0034C27.2494 36.6007 28.6759 36.045 29.4666 34.7623Z" fill="black"/>
<path d="M32.4709 36.9065C33.2996 36.2622 36.1036 33.8051 38.834 28.1707C39.1745 27.4683 40.0663 27.3105 40.2632 27.9687C41.0001 30.4111 39.3511 34.537 37.262 36.5046C35.9484 37.7406 34.2656 38.4727 32.8132 38.2888C32.2169 38.2136 31.65 37.5437 32.4709 36.9065Z" fill="black"/>
<path d="M21.599 35.8447L22.1293 36.136C22.3227 36.2405 22.5665 36.0356 22.5823 35.7536C22.6497 34.5797 22.9781 31.8971 24.5002 29.0501C24.5982 28.866 24.578 28.6356 24.4486 28.5312L24.1476 28.2872L23.856 28.0497C23.7242 27.9408 23.5295 28.0057 23.4283 28.1944C21.388 31.974 21.4077 34.8052 21.4515 35.5727C21.458 35.6972 21.5151 35.7971 21.6003 35.8469L21.599 35.8447Z" fill="black"/>
<path d="M36.3028 25.6392C37.3823 24.588 37.6137 23.0747 36.8196 22.2592C36.0255 21.4437 34.5066 21.6348 33.427 22.6861C32.3475 23.7374 32.1161 25.2507 32.9102 26.0662C33.7043 26.8817 35.2232 26.6905 36.3028 25.6392Z" fill="black"/>
<path d="M27.5744 23.047L27.8846 23.5653C27.9984 23.7538 28.3101 23.7011 28.4693 23.4635C29.1233 22.4863 30.7637 20.3402 33.5178 18.6548C33.695 18.5471 33.7945 18.3389 33.7355 18.1819L33.5999 17.8191L33.4691 17.4653C33.4089 17.306 33.2084 17.2634 33.0267 17.3736C29.3511 19.5965 27.936 22.051 27.5834 22.7309C27.5276 22.8426 27.5234 22.9583 27.5742 23.0413L27.5744 23.047Z" fill="black"/>
<path d="M25.9263 33.3144C26.7166 32.0307 28.1433 31.4752 29.114 32.0745C29.607 32.3774 29.8836 32.9197 29.9365 33.5484C30.0904 32.6359 29.8148 31.7789 29.1454 31.3652C28.1758 30.7682 26.7492 31.3236 25.9577 32.6051C25.568 33.2382 25.4067 33.9278 25.4578 34.5371C25.5278 34.1297 25.6809 33.7093 25.9263 33.3144Z" fill="url(#paint2_linear_1_6787)"/>
<path d="M38.8319 28.183C36.1038 33.8162 33.2998 36.2734 32.4689 36.9189C32.0059 37.2775 31.985 37.6466 32.1587 37.9132C32.2242 37.8195 32.3136 37.7215 32.4363 37.6259C33.265 36.9816 36.3076 34.6802 39.0345 29.0447C39.375 28.3423 40.0294 28.0311 40.2286 28.6881C40.3444 29.0733 40.4021 29.5016 40.4069 29.9556C40.4756 29.2348 40.4361 28.561 40.2612 27.981C40.0632 27.3263 39.1724 27.4806 38.8319 28.183Z" fill="url(#paint3_linear_1_6787)"/>
<path d="M24.4504 28.5337L24.1494 28.2897L23.8577 28.0522C23.7259 27.9433 23.5313 28.0081 23.43 28.1969C21.6968 31.4056 21.451 33.9242 21.4427 35.0835C21.5472 33.7528 21.9607 31.565 23.3975 28.9039C23.4987 28.7152 23.6946 28.6526 23.8252 28.7593L24.1168 28.9967L24.4072 29.2319C24.4384 29.1714 24.4673 29.1121 24.5008 29.0503C24.5988 28.8663 24.5785 28.6358 24.4492 28.5314L24.4504 28.5337Z" fill="url(#paint4_linear_1_6787)"/>
<path d="M33.3964 23.4042C34.4759 22.3534 35.9947 22.161 36.7896 22.9778C37.0526 23.2483 37.2004 23.5958 37.2462 23.9753C37.3733 23.3246 37.2415 22.7008 36.821 22.2685C36.0261 21.4517 34.5072 21.6441 33.4277 22.6949C32.7062 23.3974 32.3646 24.3069 32.4566 25.0773C32.57 24.498 32.8876 23.8982 33.3964 23.4042Z" fill="url(#paint5_linear_1_6787)"/>
<path d="M33.0291 17.3828C29.3535 19.6057 27.9385 22.0602 27.5858 22.7401C27.53 22.8518 27.5258 22.9675 27.5766 23.0505L27.6772 23.2199C28.1784 22.3256 29.6496 20.1142 32.9965 18.0898C33.1782 17.9797 33.3787 18.0222 33.439 18.1815L33.5697 18.5353L33.5949 18.6031C33.7215 18.4879 33.7845 18.3199 33.7367 18.1888L33.6011 17.826L33.4703 17.4722C33.4101 17.3129 33.2096 17.2704 33.0279 17.3805L33.0291 17.3828Z" fill="url(#paint6_linear_1_6787)"/>
</g>
<defs>
<linearGradient id="paint0_linear_1_6787" x1="24.6248" y1="53.507" x2="49.1684" y2="13.5033" gradientUnits="userSpaceOnUse">
<stop stop-color="#586324"/>
<stop offset="0.04" stop-color="#5D6926"/>
<stop offset="0.09" stop-color="#6D7C2C"/>
<stop offset="0.14" stop-color="#839635"/>
<stop offset="0.49" stop-color="#C8E651"/>
<stop offset="0.56" stop-color="#C1DF4F"/>
<stop offset="0.65" stop-color="#B1CB4B"/>
<stop offset="0.77" stop-color="#95AC45"/>
<stop offset="0.81" stop-color="#899E43"/>
<stop offset="0.85" stop-color="#8DA244"/>
<stop offset="0.9" stop-color="#98B04A"/>
<stop offset="0.95" stop-color="#ACC654"/>
<stop offset="1" stop-color="#C8E662"/>
</linearGradient>
<linearGradient id="paint1_linear_1_6787" x1="43.9286" y1="37.3097" x2="21.8097" y2="23.7381" gradientUnits="userSpaceOnUse">
<stop stop-color="#DFF49A"/>
<stop offset="0.08" stop-color="#D8F47D"/>
<stop offset="0.19" stop-color="#CFF459"/>
<stop offset="0.29" stop-color="#C9F443"/>
<stop offset="0.35" stop-color="#C8F43B"/>
<stop offset="0.47" stop-color="#C4EE3B"/>
<stop offset="0.63" stop-color="#B9DF3C"/>
<stop offset="0.79" stop-color="#A7C73F"/>
<stop offset="0.97" stop-color="#8EA542"/>
<stop offset="1" stop-color="#899E43"/>
</linearGradient>
<linearGradient id="paint2_linear_1_6787" x1="25.303" y1="34.2516" x2="29.6684" y2="31.8845" gradientUnits="userSpaceOnUse">
<stop stop-color="#444F1B"/>
<stop offset="0.18" stop-color="#4A561D"/>
<stop offset="0.44" stop-color="#5D6B25"/>
<stop offset="0.54" stop-color="#667529"/>
<stop offset="0.69" stop-color="#5F6D26"/>
<stop offset="0.91" stop-color="#4C581E"/>
<stop offset="1" stop-color="#444F1B"/>
</linearGradient>
<linearGradient id="paint3_linear_1_6787" x1="30.8251" y1="35.454" x2="41.2642" y2="29.7933" gradientUnits="userSpaceOnUse">
<stop stop-color="#444F1B"/>
<stop offset="0.18" stop-color="#4A561D"/>
<stop offset="0.44" stop-color="#5D6B25"/>
<stop offset="0.54" stop-color="#667529"/>
<stop offset="0.69" stop-color="#5F6D26"/>
<stop offset="0.91" stop-color="#4C581E"/>
<stop offset="1" stop-color="#444F1B"/>
</linearGradient>
<linearGradient id="paint4_linear_1_6787" x1="20.2091" y1="32.8087" x2="25.296" y2="30.0502" gradientUnits="userSpaceOnUse">
<stop stop-color="#444F1B"/>
<stop offset="0.18" stop-color="#4A561D"/>
<stop offset="0.44" stop-color="#5D6B25"/>
<stop offset="0.54" stop-color="#667529"/>
<stop offset="0.69" stop-color="#5F6D26"/>
<stop offset="0.91" stop-color="#4C581E"/>
<stop offset="1" stop-color="#444F1B"/>
</linearGradient>
<linearGradient id="paint5_linear_1_6787" x1="32.3493" y1="24.8795" x2="36.9507" y2="22.3844" gradientUnits="userSpaceOnUse">
<stop stop-color="#444F1B"/>
<stop offset="0.18" stop-color="#4A561D"/>
<stop offset="0.44" stop-color="#5D6B25"/>
<stop offset="0.54" stop-color="#667529"/>
<stop offset="0.69" stop-color="#5F6D26"/>
<stop offset="0.91" stop-color="#4C581E"/>
<stop offset="1" stop-color="#444F1B"/>
</linearGradient>
<linearGradient id="paint6_linear_1_6787" x1="27.0539" y1="22.0919" x2="33.9504" y2="18.3522" gradientUnits="userSpaceOnUse">
<stop stop-color="#444F1B"/>
<stop offset="0.18" stop-color="#4A561D"/>
<stop offset="0.44" stop-color="#5D6B25"/>
<stop offset="0.54" stop-color="#667529"/>
<stop offset="0.69" stop-color="#5F6D26"/>
<stop offset="0.91" stop-color="#4C581E"/>
<stop offset="1" stop-color="#444F1B"/>
</linearGradient>
</defs>
</svg>
