<svg width="224" height="205" viewBox="0 0 224 205" fill="none" xmlns="http://www.w3.org/2000/svg">
<path d="M193.987 68.3158C193.739 68.0322 174.076 46.1386 169.877 42.6605C164.795 38.4544 157.853 36.7108 151.4 36.3123C133.485 35.2181 115.432 43.0498 100.58 52.385C94.3167 56.3187 88.3712 60.7674 82.7883 65.6119C48.8665 95.0132 34.3869 133.855 50.4374 152.382C55.2362 157.914 73.8748 178.447 79.745 181.201C89.631 185.851 101.4 184.957 111.717 182.423C125.762 178.982 138.903 172.105 150.629 163.746C154.436 161.033 158.103 158.131 161.633 155.077C195.555 125.676 210.035 86.8339 193.984 68.3073L193.987 68.3158Z" fill="url(#paint0_linear_1_6742)"/>
<path d="M139.286 131.077C173.205 101.678 187.69 62.8324 171.638 44.3122C155.586 25.792 115.076 34.6107 81.1569 64.0094C47.2374 93.4081 32.7528 132.254 48.8046 150.774C64.8565 169.295 105.366 160.476 139.286 131.077Z" fill="url(#paint1_linear_1_6742)"/>
<path d="M96.0271 110.173C99.4994 106.207 99.8858 100.865 96.89 98.2423C93.8942 95.6193 88.6507 96.708 85.1784 100.674C81.706 104.64 81.3197 109.981 84.3155 112.604C87.3113 115.227 92.5547 114.138 96.0271 110.173Z" fill="black"/>
<path d="M105.144 119.318C108.376 117.576 119.475 110.728 132.165 92.8766C133.748 90.6512 136.916 90.6246 137.213 93.0096C138.337 101.863 130.253 115.138 121.904 120.713C116.655 124.214 110.425 125.763 105.522 124.285C103.508 123.679 101.942 121.039 105.144 119.318Z" fill="black"/>
<path d="M68.2634 109.328L69.9236 110.641C70.5301 111.114 71.4899 110.548 71.7081 109.585C72.6221 105.574 75.3125 96.511 82.216 87.5735C82.661 86.9955 82.7249 86.1888 82.3394 85.7535L81.4426 84.7371L80.5743 83.7486C80.183 83.2965 79.4739 83.4071 79.015 83.9993C69.7824 95.853 68.2069 105.631 67.9125 108.304C67.8624 108.737 68.0013 109.115 68.2663 109.336L68.2634 109.328Z" fill="black"/>
<path d="M124.903 82.6738C129.237 79.6741 130.914 74.5881 128.648 71.3139C126.382 68.0398 121.032 67.8173 116.697 70.817C112.363 73.8168 110.686 78.9028 112.952 82.1769C115.218 85.4511 120.569 85.6736 124.903 82.6738Z" fill="black"/>
<path d="M96.3023 68.658L97.0713 70.626C97.3545 71.3421 98.4606 71.3413 99.1475 70.6142C101.971 67.6231 108.876 61.1721 119.355 56.957C120.029 56.6882 120.493 56.028 120.38 55.4519L120.123 54.1217L119.877 52.8254C119.762 52.2408 119.095 51.9777 118.404 52.2522C104.434 57.7866 98.1281 65.432 96.5167 67.5728C96.2594 67.9257 96.1779 68.3224 96.305 68.6381L96.3023 68.658Z" fill="black"/>
<path d="M84.6535 103.125C88.125 99.1558 93.3689 98.068 96.3697 100.699C97.8942 102.03 98.5336 104.061 98.3513 106.261C99.4118 103.202 98.9585 100.086 96.8896 98.2703C93.8917 95.6478 88.6478 96.7356 85.1734 100.697C83.4615 102.655 82.5047 104.94 82.3274 107.071C82.8053 105.707 83.5775 104.345 84.6535 103.125Z" fill="url(#paint2_linear_1_6742)"/>
<path d="M132.15 92.9194C119.469 110.768 108.37 117.616 105.129 119.361C103.324 120.329 103.037 121.59 103.481 122.61C103.762 122.325 104.127 122.039 104.606 121.781C107.839 120.039 119.67 113.867 132.349 96.0096C133.931 93.7842 136.37 93.0905 136.675 95.4726C136.851 96.8685 136.802 98.3795 136.554 99.9487C137.21 97.502 137.465 95.1548 137.198 93.0524C136.895 90.6788 133.733 90.694 132.15 92.9194Z" fill="url(#paint3_linear_1_6742)"/>
<path d="M82.3335 85.7848L81.4367 84.7683L80.5685 83.7799C80.1771 83.3277 79.468 83.4383 79.0091 84.0306C71.1674 94.0933 68.8573 102.639 68.1554 106.633C69.2885 102.103 71.9851 94.7964 78.4863 86.4507C78.9452 85.8585 79.6572 85.7563 80.0457 86.2L80.9139 87.1884L81.7793 88.1684C81.9219 87.9777 82.0561 87.7899 82.2073 87.5962C82.6522 87.0183 82.7161 86.2115 82.3306 85.7763L82.3335 85.7848Z" fill="url(#paint4_linear_1_6742)"/>
<path d="M116.173 73.2805C120.507 70.2823 125.858 70.5005 128.126 73.7798C128.876 74.8654 129.184 76.1499 129.122 77.4856C129.938 75.3147 129.846 73.0864 128.646 71.3512C126.378 68.0719 121.027 67.8537 116.693 70.8519C113.796 72.8563 112.09 75.7956 111.96 78.5066C112.687 76.5741 114.131 74.6894 116.173 73.2805Z" fill="url(#paint5_linear_1_6742)"/>
<path d="M118.4 52.3006C104.43 57.835 98.1238 65.4804 96.5124 67.6211C96.2551 67.974 96.1736 68.3708 96.3007 68.6865L96.5494 69.3294C98.7974 66.5355 105.156 59.7609 117.877 54.7207C118.568 54.4462 119.235 54.7093 119.35 55.2939L119.596 56.5903L119.643 56.8388C120.147 56.5149 120.462 55.972 120.373 55.4918L120.116 54.1616L119.87 52.8653C119.755 52.2807 119.088 52.0176 118.397 52.2921L118.4 52.3006Z" fill="url(#paint6_linear_1_6742)"/>
<defs>
<linearGradient id="paint0_linear_1_6742" x1="68.435" y1="172.037" x2="176.326" y2="48.2893" gradientUnits="userSpaceOnUse">
<stop stop-color="#586324"/>
<stop offset="0.04" stop-color="#5D6926"/>
<stop offset="0.09" stop-color="#6D7C2C"/>
<stop offset="0.14" stop-color="#839635"/>
<stop offset="0.49" stop-color="#C8E651"/>
<stop offset="0.56" stop-color="#C1DF4F"/>
<stop offset="0.65" stop-color="#B1CB4B"/>
<stop offset="0.77" stop-color="#95AC45"/>
<stop offset="0.81" stop-color="#899E43"/>
<stop offset="0.85" stop-color="#8DA244"/>
<stop offset="0.9" stop-color="#98B04A"/>
<stop offset="0.95" stop-color="#ACC654"/>
<stop offset="1" stop-color="#C8E662"/>
</linearGradient>
<linearGradient id="paint1_linear_1_6742" x1="144.43" y1="127.369" x2="76.0074" y2="67.7109" gradientUnits="userSpaceOnUse">
<stop stop-color="#DFF49A"/>
<stop offset="0.08" stop-color="#D8F47D"/>
<stop offset="0.19" stop-color="#CFF459"/>
<stop offset="0.29" stop-color="#C9F443"/>
<stop offset="0.35" stop-color="#C8F43B"/>
<stop offset="0.47" stop-color="#C4EE3B"/>
<stop offset="0.63" stop-color="#B9DF3C"/>
<stop offset="0.79" stop-color="#A7C73F"/>
<stop offset="0.97" stop-color="#8EA542"/>
<stop offset="1" stop-color="#899E43"/>
</linearGradient>
<linearGradient id="paint2_linear_1_6742" x1="81.9592" y1="105.997" x2="98.3923" y2="100.365" gradientUnits="userSpaceOnUse">
<stop stop-color="#444F1B"/>
<stop offset="0.18" stop-color="#4A561D"/>
<stop offset="0.44" stop-color="#5D6B25"/>
<stop offset="0.54" stop-color="#667529"/>
<stop offset="0.69" stop-color="#5F6D26"/>
<stop offset="0.91" stop-color="#4C581E"/>
<stop offset="1" stop-color="#444F1B"/>
</linearGradient>
<linearGradient id="paint3_linear_1_6742" x1="100.309" y1="113.353" x2="139.606" y2="99.8863" gradientUnits="userSpaceOnUse">
<stop stop-color="#444F1B"/>
<stop offset="0.18" stop-color="#4A561D"/>
<stop offset="0.44" stop-color="#5D6B25"/>
<stop offset="0.54" stop-color="#667529"/>
<stop offset="0.69" stop-color="#5F6D26"/>
<stop offset="0.91" stop-color="#4C581E"/>
<stop offset="1" stop-color="#444F1B"/>
</linearGradient>
<linearGradient id="paint4_linear_1_6742" x1="65.2208" y1="98.0696" x2="84.3701" y2="91.5072" gradientUnits="userSpaceOnUse">
<stop stop-color="#444F1B"/>
<stop offset="0.18" stop-color="#4A561D"/>
<stop offset="0.44" stop-color="#5D6B25"/>
<stop offset="0.54" stop-color="#667529"/>
<stop offset="0.69" stop-color="#5F6D26"/>
<stop offset="0.91" stop-color="#4C581E"/>
<stop offset="1" stop-color="#444F1B"/>
</linearGradient>
<linearGradient id="paint5_linear_1_6742" x1="111.705" y1="77.762" x2="129.026" y2="71.826" gradientUnits="userSpaceOnUse">
<stop stop-color="#444F1B"/>
<stop offset="0.18" stop-color="#4A561D"/>
<stop offset="0.44" stop-color="#5D6B25"/>
<stop offset="0.54" stop-color="#667529"/>
<stop offset="0.69" stop-color="#5F6D26"/>
<stop offset="0.91" stop-color="#4C581E"/>
<stop offset="1" stop-color="#444F1B"/>
</linearGradient>
<linearGradient id="paint6_linear_1_6742" x1="95.054" y1="65.0762" x2="121.015" y2="56.1795" gradientUnits="userSpaceOnUse">
<stop stop-color="#444F1B"/>
<stop offset="0.18" stop-color="#4A561D"/>
<stop offset="0.44" stop-color="#5D6B25"/>
<stop offset="0.54" stop-color="#667529"/>
<stop offset="0.69" stop-color="#5F6D26"/>
<stop offset="0.91" stop-color="#4C581E"/>
<stop offset="1" stop-color="#444F1B"/>
</linearGradient>
</defs>
</svg>
