<svg width="122" height="124" viewBox="0 0 122 124" fill="none" xmlns="http://www.w3.org/2000/svg">
<path d="M82.5558 41.5671C76.6769 35.179 70.0125 29.4465 62.6329 24.8509C56.5697 21.0718 49.9146 17.9498 42.8742 16.5408C37.5138 15.4702 25.9487 16.8283 22.1628 20.9221C19.742 23.5362 8.10156 36.1561 7.93333 36.3553C-3.05979 48.0182 4.22497 74.8041 24.7116 97.0651C45.6887 119.863 72.5433 129.276 84.7015 118.088C88.4632 114.628 97.2227 105.534 100.679 100.757C102.425 98.3453 104.349 91.1548 104.422 88.1979C104.595 81.3094 102.678 74.4337 100.036 68.1273C95.9159 58.3129 89.7403 49.3792 82.5558 41.5671Z" fill="url(#paint0_linear_1_6676)"/>
<path d="M98.5184 103.1C110.676 91.9135 103.529 64.365 82.5537 41.5686C61.5788 18.7723 34.7193 9.36066 22.5615 20.5471C10.4036 31.7336 17.5513 59.2821 38.5262 82.0784C59.5011 104.875 86.3606 114.286 98.5184 103.1Z" fill="url(#paint1_linear_1_6676)"/>
<mask id="mask0_1_6676" style="mask-type:luminance" maskUnits="userSpaceOnUse" x="40" y="20" width="44" height="71">
<path d="M40.723 65.6412L41.1517 20.4479L83.8575 45.481L83.4287 90.6744L40.723 65.6412Z" fill="white"/>
</mask>
<g mask="url(#mask0_1_6676)">
<path d="M57.2543 61.9326C55.0333 60.6293 52.987 61.1497 52.3578 63.3819C51.6056 66.0606 53.167 70.1768 55.8413 72.5847C56.2793 72.9748 56.7178 73.2982 57.15 73.5547C59.371 74.858 61.4173 74.3443 62.0465 72.0987C62.7987 69.4267 61.2373 65.3105 58.563 62.9027C58.1251 62.5059 57.6866 62.1825 57.2477 61.9325" fill="black"/>
<path d="M79.7132 62.2624C78.8754 61.7695 78.0395 61.9708 77.9127 62.9714C76.2944 75.3578 71.9417 79.361 70.5867 80.3267C69.3055 81.2394 70.9137 83.333 72.2903 84.1367C72.3568 84.1772 72.4166 84.2109 72.4832 84.2381C75.9164 85.9768 79.1372 85.5243 81.1073 83.4212C84.2406 80.0841 84.6371 70.707 80.9923 63.6729C80.6429 63.003 80.1855 62.5259 79.7266 62.2558" fill="black"/>
<path d="M45.0857 48.6595C44.8463 48.5177 44.5794 48.4959 44.4713 48.6888C41.2347 54.5086 40.5536 60.5191 40.7619 62.323C40.7933 62.6103 40.9447 62.9318 41.1568 63.1735L42.4686 64.6643C42.568 64.7785 42.6742 64.866 42.774 64.9267C43.153 65.1496 43.5012 64.9984 43.4978 64.511C43.4948 61.9541 43.9059 56.3824 47.1576 52.3051C47.3663 52.0395 47.2832 51.4915 46.9591 51.0487L46.2115 50.0289L45.4772 49.0226C45.3581 48.8616 45.2187 48.7339 45.0857 48.6595Z" fill="black"/>
<path d="M64.0659 33.8788C63.9396 33.8045 63.8064 33.7502 63.6798 33.7227C58.6864 32.6879 55.4423 37.6265 54.2387 39.915C53.9344 40.4871 54.2478 41.5507 54.9042 42.2226L55.6136 42.9551C55.7528 43.1029 55.9056 43.2174 56.0453 43.2984C56.5107 43.5752 56.965 43.5315 57.1746 43.1391C58.0198 41.5358 59.1501 40.2215 60.4452 39.2221C61.5861 38.3285 62.8733 37.5159 64.5869 37.8411C65.1336 37.9449 65.4572 37.4731 65.3752 36.7649L65.3059 36.1436L65.2681 35.8095C65.1798 35.0345 64.6511 34.2232 64.0593 33.8721" fill="black"/>
<path d="M69.3109 44.2547C67.4889 43.1877 65.0858 43.1516 64.003 43.3447C61.9175 43.7246 60.7103 45.5591 60.8771 48.5711C60.9726 50.2674 61.4209 52.1063 62.0496 53.9264C62.4425 55.084 63.3149 57.4063 64.3921 58.0411C64.4187 58.0546 64.4453 58.0681 64.4653 58.0816C65.7095 58.7108 66.3333 57.2663 65.9767 55.6817C65.9703 55.6416 65.447 52.0398 66.7336 50.3126C67.2388 49.6417 68.0543 49.4803 68.863 49.3521C69.8253 49.1984 71.0056 49.3998 71.3343 48.1737C71.5055 47.5206 71.4317 46.5854 70.9164 45.7742C70.5069 45.1172 69.9427 44.6261 69.3109 44.2547Z" fill="black"/>
</g>
<path d="M52.647 65.3543C53.2761 63.122 55.3225 62.6016 57.5435 63.9049C57.9757 64.1615 58.4209 64.4849 58.8589 64.8751C60.4847 66.3346 61.6925 68.4256 62.2264 70.4453C62.1631 67.9213 60.7284 64.8408 58.5517 62.8903C58.1137 62.4934 57.6753 62.1701 57.2363 61.9201C55.0153 60.6168 52.969 61.1372 52.3398 63.3695C52.0457 64.4223 52.1107 65.6912 52.4558 66.9953C52.4397 66.4144 52.5035 65.854 52.6404 65.3542L52.647 65.3543Z" fill="url(#paint2_linear_1_6676)"/>
<path d="M70.8638 82.2595C72.2254 81.2939 76.5782 77.2907 78.1898 64.9042C78.3233 63.9037 79.1525 63.7023 79.9903 64.1953C80.4492 64.4654 80.9133 64.9425 81.256 65.6124C82.2907 67.6154 82.9904 69.8031 83.4031 71.9889C83.0948 69.1629 82.3066 66.2336 80.9555 63.6209C80.6062 62.951 80.1487 62.4739 79.6899 62.2038C78.852 61.7109 78.0161 61.9123 77.8893 62.9128C76.2711 75.2992 71.9183 79.3024 70.5633 80.2681C69.8321 80.7906 70.0398 81.6866 70.6084 82.5182C70.6757 82.4252 70.7564 82.3389 70.8704 82.2596L70.8638 82.2595Z" fill="url(#paint3_linear_1_6676)"/>
<path d="M44.4327 50.8258C44.5674 50.6531 44.8077 50.6547 45.0471 50.7965C45.1801 50.8775 45.3195 50.9986 45.4386 51.1597L46.1729 52.166L46.7088 52.8972C46.8436 52.7045 46.985 52.5119 47.1332 52.3192C47.3419 52.0536 47.2588 51.5056 46.9346 51.0628L46.1871 50.0431L45.4528 49.0368C45.3337 48.8758 45.1943 48.748 45.0613 48.6737C44.8219 48.5319 44.5883 48.5303 44.4469 48.703C40.8053 53.1849 40.6218 59.666 40.7509 62.3239C40.91 59.4877 41.6056 54.3051 44.4327 50.8258Z" fill="url(#paint4_linear_1_6676)"/>
<path d="M65.3543 36.7794L65.285 36.1581L65.2471 35.824C65.1589 35.049 64.6302 34.2377 64.0384 33.8866C63.912 33.8123 63.7789 33.758 63.6522 33.7305C58.6589 32.6957 55.4147 37.6343 54.2111 39.9228C54.0691 40.1955 54.0665 40.5761 54.1707 40.9773C55.5555 38.5498 58.6813 34.3382 63.328 35.3038C63.4546 35.3314 63.5878 35.3857 63.7141 35.46C64.306 35.8044 64.8413 36.6158 64.9229 37.3974L64.9607 37.7314L64.9602 37.8116C65.2615 37.6734 65.4109 37.2872 65.3543 36.7794Z" fill="url(#paint5_linear_1_6676)"/>
<path d="M60.8986 49.0668C61.1661 46.9857 62.2629 45.6979 63.9607 45.3888C65.0435 45.1958 67.4466 45.2319 69.2687 46.2988C69.9004 46.6702 70.4645 47.168 70.8741 47.8183C71.0062 48.0328 71.1115 48.2538 71.1901 48.4814C71.2307 48.3948 71.2781 48.3084 71.3055 48.2017C71.4767 47.5486 71.4029 46.6135 70.8876 45.8023C70.4781 45.1453 69.9139 44.6542 69.2821 44.2828C67.4601 43.2158 65.057 43.1797 63.9742 43.3728C61.8887 43.7527 60.6815 45.5872 60.8483 48.5992C60.8539 48.7528 60.8862 48.9199 60.8985 49.0735L60.8986 49.0668Z" fill="url(#paint6_linear_1_6676)"/>
<defs>
<linearGradient id="paint0_linear_1_6676" x1="13.9103" y1="29.065" x2="93.3769" y2="109.601" gradientUnits="userSpaceOnUse">
<stop stop-color="#586324"/>
<stop offset="0.04" stop-color="#5D6926"/>
<stop offset="0.09" stop-color="#6D7C2C"/>
<stop offset="0.14" stop-color="#839635"/>
<stop offset="0.49" stop-color="#C8E651"/>
<stop offset="0.56" stop-color="#C1DF4F"/>
<stop offset="0.65" stop-color="#B1CB4B"/>
<stop offset="0.77" stop-color="#95AC45"/>
<stop offset="0.81" stop-color="#899E43"/>
<stop offset="0.85" stop-color="#8DA244"/>
<stop offset="0.9" stop-color="#98B04A"/>
<stop offset="0.95" stop-color="#ACC654"/>
<stop offset="1" stop-color="#C8E662"/>
</linearGradient>
<linearGradient id="paint1_linear_1_6676" x1="32.9252" y1="77.5235" x2="88.1649" y2="46.1217" gradientUnits="userSpaceOnUse">
<stop stop-color="#DFF49A"/>
<stop offset="0.1" stop-color="#D8F47D"/>
<stop offset="0.26" stop-color="#CFF459"/>
<stop offset="0.38" stop-color="#C9F443"/>
<stop offset="0.46" stop-color="#C8F43B"/>
<stop offset="0.57" stop-color="#C4EE3B"/>
<stop offset="0.69" stop-color="#B9DF3C"/>
<stop offset="0.83" stop-color="#A7C73F"/>
<stop offset="0.97" stop-color="#8EA542"/>
<stop offset="1" stop-color="#899E43"/>
</linearGradient>
<linearGradient id="paint2_linear_1_6676" x1="52.1501" y1="65.7849" x2="62.2504" y2="65.8524" gradientUnits="userSpaceOnUse">
<stop stop-color="#444F1B"/>
<stop offset="0.18" stop-color="#4A561D"/>
<stop offset="0.44" stop-color="#5D6B25"/>
<stop offset="0.54" stop-color="#667529"/>
<stop offset="0.69" stop-color="#5F6D26"/>
<stop offset="0.91" stop-color="#4C581E"/>
<stop offset="1" stop-color="#444F1B"/>
</linearGradient>
<linearGradient id="paint3_linear_1_6676" x1="70.1566" y1="72.2008" x2="83.4078" y2="72.2893" gradientUnits="userSpaceOnUse">
<stop stop-color="#444F1B"/>
<stop offset="0.18" stop-color="#4A561D"/>
<stop offset="0.44" stop-color="#5D6B25"/>
<stop offset="0.54" stop-color="#667529"/>
<stop offset="0.69" stop-color="#5F6D26"/>
<stop offset="0.91" stop-color="#4C581E"/>
<stop offset="1" stop-color="#444F1B"/>
</linearGradient>
<linearGradient id="paint4_linear_1_6676" x1="40.7569" y1="55.4344" x2="47.2256" y2="55.4776" gradientUnits="userSpaceOnUse">
<stop stop-color="#444F1B"/>
<stop offset="0.18" stop-color="#4A561D"/>
<stop offset="0.44" stop-color="#5D6B25"/>
<stop offset="0.54" stop-color="#667529"/>
<stop offset="0.69" stop-color="#5F6D26"/>
<stop offset="0.91" stop-color="#4C581E"/>
<stop offset="1" stop-color="#444F1B"/>
</linearGradient>
<linearGradient id="paint5_linear_1_6676" x1="54.1154" y1="37.2584" x2="65.3639" y2="37.3336" gradientUnits="userSpaceOnUse">
<stop stop-color="#444F1B"/>
<stop offset="0.18" stop-color="#4A561D"/>
<stop offset="0.44" stop-color="#5D6B25"/>
<stop offset="0.54" stop-color="#667529"/>
<stop offset="0.69" stop-color="#5F6D26"/>
<stop offset="0.91" stop-color="#4C581E"/>
<stop offset="1" stop-color="#444F1B"/>
</linearGradient>
<linearGradient id="paint6_linear_1_6676" x1="60.8446" y1="46.1558" x2="71.3988" y2="46.2263" gradientUnits="userSpaceOnUse">
<stop stop-color="#444F1B"/>
<stop offset="0.18" stop-color="#4A561D"/>
<stop offset="0.44" stop-color="#5D6B25"/>
<stop offset="0.54" stop-color="#667529"/>
<stop offset="0.69" stop-color="#5F6D26"/>
<stop offset="0.91" stop-color="#4C581E"/>
<stop offset="1" stop-color="#444F1B"/>
</linearGradient>
</defs>
</svg>
