<svg width="54" height="54" viewBox="0 0 54 54" fill="none" xmlns="http://www.w3.org/2000/svg">
<g opacity="0.6">
<path d="M41.6474 39.9729C41.68 39.8948 44.1537 33.7688 44.4406 32.5788C44.7871 31.1389 44.4534 29.5669 43.8967 28.2264C42.3489 24.5059 38.9876 21.6388 35.6392 19.5655C34.2277 18.6908 32.7437 17.9311 31.2157 17.2835C21.9386 13.3458 12.6771 14.2603 10.5257 19.3256C9.88389 20.8393 7.58343 26.6246 7.60757 28.0801C7.64591 30.5325 8.98785 32.8174 10.5172 34.6478C12.5976 37.14 15.2815 39.111 18.1244 40.6503C19.0474 41.1502 19.9946 41.6032 20.9588 42.0135C30.2359 45.9513 39.4974 45.0368 41.6488 39.9715L41.6474 39.9729Z" fill="url(#paint0_linear_1_6772)"/>
<path d="M23.594 35.1381C32.8703 39.0757 42.1332 38.1618 44.2831 33.0969C46.4331 28.0319 40.656 20.734 31.3796 16.7964C22.1032 12.8588 12.8404 13.7727 10.6904 18.8376C8.5405 23.9026 14.3176 31.2006 23.594 35.1381Z" fill="url(#paint1_linear_1_6772)"/>
<path d="M23.5378 24.3519C24.6803 24.6606 25.7954 24.2112 26.0286 23.3482C26.2618 22.4852 25.5247 21.5353 24.3822 21.2267C23.2397 20.918 22.1246 21.3673 21.8914 22.2303C21.6582 23.0933 22.3953 24.0432 23.5378 24.3519Z" fill="black"/>
<path d="M22.5991 27.0929C23.2694 27.5729 25.7459 29.1349 30.5982 29.9316C31.2031 30.031 31.5212 30.6672 31.0696 30.9625C29.3954 32.0631 25.9206 31.7435 23.9723 30.6104C22.7482 29.8975 21.8209 28.7941 21.6349 27.6595C21.5582 27.1937 21.9359 26.6172 22.5991 27.0929Z" fill="black"/>
<path d="M20.9631 18.67L20.8623 19.1344C20.8268 19.3034 21.0356 19.4411 21.2514 19.39C22.1503 19.1784 24.2434 18.8262 26.7271 19.336C26.8875 19.3687 27.0565 19.3019 27.1062 19.1812L27.2227 18.9001L27.3363 18.6274C27.3888 18.5039 27.2965 18.3718 27.1318 18.3377C23.8302 17.6462 21.703 18.2937 21.135 18.4982C21.0427 18.5309 20.9802 18.5962 20.9617 18.6714L20.9631 18.67Z" fill="black"/>
<path d="M31.9382 27.4601C32.9709 28.0379 34.162 27.874 34.5985 27.0939C35.0351 26.3138 34.5517 25.2129 33.519 24.635C32.4863 24.0571 31.2952 24.221 30.8586 25.0012C30.4221 25.7813 30.9054 26.8822 31.9382 27.4601Z" fill="black"/>
<path d="M31.9399 20.3093L31.6189 20.6586C31.5025 20.7864 31.6118 21.0094 31.8262 21.0761C32.7081 21.3502 34.6905 22.1056 36.5749 23.8026C36.6956 23.9119 36.8745 23.9403 36.9796 23.8608L37.2224 23.6776L37.4596 23.5001C37.5661 23.4192 37.5533 23.2587 37.4297 23.1465C34.9347 20.8759 32.7706 20.359 32.1798 20.2454C32.0833 20.2283 31.9952 20.2511 31.9441 20.3079L31.9399 20.3093Z" fill="black"/>
<path d="M23.8417 21.3627C24.9848 21.6708 25.7218 22.6208 25.4875 23.4856C25.3697 23.9244 25.0232 24.2539 24.5617 24.4342C25.2831 24.3462 25.8667 23.9472 26.0286 23.3507C26.2615 22.4874 25.5245 21.5374 24.3828 21.2278C23.819 21.0758 23.2638 21.1085 22.8164 21.2832C23.1388 21.2448 23.4895 21.2661 23.8417 21.3627Z" fill="url(#paint2_linear_1_6772)"/>
<path d="M30.5866 29.9326C25.7358 29.1374 23.2592 27.5753 22.5876 27.0939C22.2141 26.8255 21.9315 26.8923 21.7696 27.0826C21.8548 27.111 21.9485 27.1564 22.0479 27.2274C22.7182 27.7074 25.1308 29.4838 29.9831 30.2776C30.5881 30.3771 30.9686 30.8002 30.5185 31.097C30.2544 31.2703 29.9448 31.4094 29.604 31.5145C30.1621 31.4052 30.6605 31.2248 31.0581 30.9635C31.5068 30.6682 31.1916 30.032 30.5866 29.9326Z" fill="url(#paint3_linear_1_6772)"/>
<path d="M27.1068 19.1831L27.2232 18.9019L27.3368 18.6293C27.3894 18.5058 27.297 18.3737 27.1323 18.3396C24.3292 17.7517 22.378 18.1294 21.5033 18.3822C22.5286 18.1635 24.2681 17.986 26.5927 18.4731C26.7574 18.5072 26.8483 18.6407 26.7972 18.7628L26.6836 19.0354L26.5714 19.3067C26.624 19.3166 26.6751 19.3251 26.729 19.3365C26.8895 19.3691 27.0585 19.3024 27.1082 19.1817L27.1068 19.1831Z" fill="url(#paint4_linear_1_6772)"/>
<path d="M32.9668 24.7724C33.9992 25.3504 34.4834 26.4509 34.046 27.2319C33.9012 27.4904 33.6726 27.6793 33.3971 27.7985C33.9154 27.7488 34.3556 27.5103 34.5871 27.097C35.0245 26.316 34.5402 25.2155 33.5078 24.6375C32.8177 24.2513 32.0566 24.1973 31.4971 24.4387C31.9586 24.3947 32.4812 24.4998 32.9668 24.7724Z" fill="url(#paint5_linear_1_6772)"/>
<path d="M37.4216 23.1504C34.9266 20.8797 32.7624 20.3628 32.1717 20.2492C32.0751 20.2322 31.9871 20.2549 31.936 20.3117L31.8309 20.4253C32.6162 20.6028 34.6099 21.2163 36.882 23.2839C37.0055 23.396 37.0183 23.5565 36.9118 23.6374L36.6746 23.8149L36.6292 23.849C36.7442 23.9186 36.8848 23.9286 36.9728 23.8632L37.2157 23.68L37.4528 23.5025C37.5593 23.4216 37.5465 23.2611 37.423 23.1489L37.4216 23.1504Z" fill="url(#paint6_linear_1_6772)"/>
</g>
<defs>
<linearGradient id="paint0_linear_1_6772" x1="8.33889" y1="24.895" x2="43.9422" y2="34.4348" gradientUnits="userSpaceOnUse">
<stop stop-color="#586324"/>
<stop offset="0.04" stop-color="#5D6926"/>
<stop offset="0.09" stop-color="#6D7C2C"/>
<stop offset="0.14" stop-color="#839635"/>
<stop offset="0.49" stop-color="#C8E651"/>
<stop offset="0.56" stop-color="#C1DF4F"/>
<stop offset="0.65" stop-color="#B1CB4B"/>
<stop offset="0.77" stop-color="#95AC45"/>
<stop offset="0.81" stop-color="#899E43"/>
<stop offset="0.85" stop-color="#8DA244"/>
<stop offset="0.9" stop-color="#98B04A"/>
<stop offset="0.95" stop-color="#ACC654"/>
<stop offset="1" stop-color="#C8E662"/>
</linearGradient>
<linearGradient id="paint1_linear_1_6772" x1="24.8494" y1="35.8094" x2="30.1249" y2="16.1234" gradientUnits="userSpaceOnUse">
<stop stop-color="#DFF49A"/>
<stop offset="0.08" stop-color="#D8F47D"/>
<stop offset="0.19" stop-color="#CFF459"/>
<stop offset="0.29" stop-color="#C9F443"/>
<stop offset="0.35" stop-color="#C8F43B"/>
<stop offset="0.47" stop-color="#C4EE3B"/>
<stop offset="0.63" stop-color="#B9DF3C"/>
<stop offset="0.79" stop-color="#A7C73F"/>
<stop offset="0.97" stop-color="#8EA542"/>
<stop offset="1" stop-color="#899E43"/>
</linearGradient>
<linearGradient id="paint2_linear_1_6772" x1="22.9968" y1="21.1028" x2="25.7545" y2="23.8605" gradientUnits="userSpaceOnUse">
<stop stop-color="#444F1B"/>
<stop offset="0.18" stop-color="#4A561D"/>
<stop offset="0.44" stop-color="#5D6B25"/>
<stop offset="0.54" stop-color="#667529"/>
<stop offset="0.69" stop-color="#5F6D26"/>
<stop offset="0.91" stop-color="#4C581E"/>
<stop offset="1" stop-color="#444F1B"/>
</linearGradient>
<linearGradient id="paint3_linear_1_6772" x1="23.3231" y1="25.529" x2="29.9178" y2="32.1237" gradientUnits="userSpaceOnUse">
<stop stop-color="#444F1B"/>
<stop offset="0.18" stop-color="#4A561D"/>
<stop offset="0.44" stop-color="#5D6B25"/>
<stop offset="0.54" stop-color="#667529"/>
<stop offset="0.69" stop-color="#5F6D26"/>
<stop offset="0.91" stop-color="#4C581E"/>
<stop offset="1" stop-color="#444F1B"/>
</linearGradient>
<linearGradient id="paint4_linear_1_6772" x1="22.9404" y1="16.9451" x2="26.1539" y2="20.1587" gradientUnits="userSpaceOnUse">
<stop stop-color="#444F1B"/>
<stop offset="0.18" stop-color="#4A561D"/>
<stop offset="0.44" stop-color="#5D6B25"/>
<stop offset="0.54" stop-color="#667529"/>
<stop offset="0.69" stop-color="#5F6D26"/>
<stop offset="0.91" stop-color="#4C581E"/>
<stop offset="1" stop-color="#444F1B"/>
</linearGradient>
<linearGradient id="paint5_linear_1_6772" x1="31.622" y1="24.3138" x2="34.5289" y2="27.2206" gradientUnits="userSpaceOnUse">
<stop stop-color="#444F1B"/>
<stop offset="0.18" stop-color="#4A561D"/>
<stop offset="0.44" stop-color="#5D6B25"/>
<stop offset="0.54" stop-color="#667529"/>
<stop offset="0.69" stop-color="#5F6D26"/>
<stop offset="0.91" stop-color="#4C581E"/>
<stop offset="1" stop-color="#444F1B"/>
</linearGradient>
<linearGradient id="paint6_linear_1_6772" x1="32.5409" y1="19.7039" x2="36.8976" y2="24.0606" gradientUnits="userSpaceOnUse">
<stop stop-color="#444F1B"/>
<stop offset="0.18" stop-color="#4A561D"/>
<stop offset="0.44" stop-color="#5D6B25"/>
<stop offset="0.54" stop-color="#667529"/>
<stop offset="0.69" stop-color="#5F6D26"/>
<stop offset="0.91" stop-color="#4C581E"/>
<stop offset="1" stop-color="#444F1B"/>
</linearGradient>
</defs>
</svg>
