<svg width="49" height="111" viewBox="0 0 49 111" fill="none" xmlns="http://www.w3.org/2000/svg">
<g opacity="0.6">
<path d="M74.3986 45.3228C71.4131 39.6592 67.744 34.3148 63.3504 29.6458C59.7411 25.8074 55.5859 22.3257 50.8327 19.9925C47.2134 18.2177 38.7122 17.0032 35.2407 19.2071C33.0215 20.6139 22.3413 27.4137 22.1838 27.524C12.1457 33.7637 12.2837 54.2343 22.6874 73.9705C33.3393 94.1825 50.7076 105.961 61.4867 100.28C64.8213 98.523 72.7823 93.6929 76.1481 90.9398C77.8474 89.5499 80.5761 84.7869 81.1863 82.6926C82.6096 77.8145 82.5407 72.5511 81.8477 67.5567C80.7627 59.7823 78.0461 52.248 74.3986 45.3228Z" fill="url(#paint0_linear_1_6720)"/>
<path d="M74.1678 92.1923C84.9464 86.512 85.05 65.5237 74.3992 45.3136C63.7485 25.1036 46.3766 13.3249 35.5981 19.0052C24.8195 24.6855 24.7159 45.6738 35.3667 65.8839C46.0174 86.094 63.3893 97.8727 74.1678 92.1923Z" fill="url(#paint1_linear_1_6720)"/>
<mask id="mask0_1_6720" style="mask-type:luminance" maskUnits="userSpaceOnUse" x="40" y="22" width="35" height="59">
<path d="M40.0512 54.5751L48.8862 22.4376L74.6067 48.3435L65.7717 80.481L40.0512 54.5751Z" fill="white"/>
</mask>
<g mask="url(#mask0_1_6720)">
<path d="M52.535 55.0648C51.1975 53.7164 49.6404 53.7012 48.7705 55.1739C47.7286 56.9417 48.0649 60.171 49.5171 62.3924C49.7558 62.7532 50.0073 63.0665 50.2671 63.331C51.6046 64.6794 53.1604 64.6994 54.0328 63.2171C55.0734 61.4541 54.7371 58.2248 53.2849 56.0034C53.0476 55.6378 52.796 55.3245 52.5303 55.0635" fill="black"/>
<path d="M46.363 43.2991C46.2191 43.1528 46.033 43.0869 45.9195 43.204C42.5135 46.7423 40.8935 50.8989 40.7015 52.2243C40.6697 52.4351 40.717 52.6928 40.8225 52.9052L41.4765 54.2157C41.5258 54.3158 41.585 54.3983 41.6446 54.4604C41.8728 54.6908 42.1496 54.6487 42.2391 54.3006C42.7196 52.4771 44.0643 48.5824 47.1521 46.2892C47.3511 46.1392 47.3952 45.7329 47.2477 45.356L46.9072 44.4879L46.5736 43.6318C46.5191 43.4946 46.4439 43.3772 46.363 43.2991Z" fill="black"/>
</g>
<path d="M48.5837 56.6445C49.4535 55.1718 51.0107 55.187 52.3482 56.5354C52.6079 56.7999 52.8642 57.1145 53.1029 57.4753C53.9865 58.8227 54.4529 60.5414 54.4524 62.0822C54.8837 60.2708 54.4422 57.8037 53.2585 56.0023C53.0211 55.6367 52.7696 55.3234 52.5038 55.0623C51.1663 53.714 49.6091 53.6988 48.7393 55.1715C48.3309 55.8666 48.1377 56.7835 48.1377 57.7784C48.2358 57.3612 48.3871 56.9737 48.579 56.6432L48.5837 56.6445Z" fill="url(#paint2_linear_1_6720)"/>
<path d="M45.4691 44.7328C45.5977 44.6351 45.7687 44.6816 45.9126 44.8279C45.9921 44.9108 46.0686 45.0234 46.1232 45.1607L46.4568 46.0167L46.7008 46.6392C46.8333 46.5273 46.9705 46.4166 47.1125 46.3072C47.3114 46.1573 47.3556 45.7509 47.208 45.374L46.8675 44.5059L46.5339 43.6499C46.4794 43.5126 46.4042 43.3952 46.3234 43.3171C46.1795 43.1708 46.0132 43.1256 45.8798 43.222C42.4376 45.7301 41.0836 50.3161 40.674 52.2354C41.3227 50.2434 42.7968 46.6798 45.4691 44.7328Z" fill="url(#paint3_linear_1_6720)"/>
</g>
<defs>
<linearGradient id="paint0_linear_1_6720" x1="27.8207" y1="23.4547" x2="69.2731" y2="95.8662" gradientUnits="userSpaceOnUse">
<stop stop-color="#586324"/>
<stop offset="0.04" stop-color="#5D6926"/>
<stop offset="0.09" stop-color="#6D7C2C"/>
<stop offset="0.14" stop-color="#839635"/>
<stop offset="0.49" stop-color="#C8E651"/>
<stop offset="0.56" stop-color="#C1DF4F"/>
<stop offset="0.65" stop-color="#B1CB4B"/>
<stop offset="0.77" stop-color="#95AC45"/>
<stop offset="0.81" stop-color="#899E43"/>
<stop offset="0.85" stop-color="#8DA244"/>
<stop offset="0.9" stop-color="#98B04A"/>
<stop offset="0.95" stop-color="#ACC654"/>
<stop offset="1" stop-color="#C8E662"/>
</linearGradient>
<linearGradient id="paint1_linear_1_6720" x1="32.2333" y1="61.5796" x2="77.5402" y2="49.6185" gradientUnits="userSpaceOnUse">
<stop stop-color="#DFF49A"/>
<stop offset="0.1" stop-color="#D8F47D"/>
<stop offset="0.26" stop-color="#CFF459"/>
<stop offset="0.38" stop-color="#C9F443"/>
<stop offset="0.46" stop-color="#C8F43B"/>
<stop offset="0.57" stop-color="#C4EE3B"/>
<stop offset="0.69" stop-color="#B9DF3C"/>
<stop offset="0.83" stop-color="#A7C73F"/>
<stop offset="0.97" stop-color="#8EA542"/>
<stop offset="1" stop-color="#899E43"/>
</linearGradient>
<linearGradient id="paint2_linear_1_6720" x1="48.1482" y1="56.8578" x2="55.3364" y2="58.8122" gradientUnits="userSpaceOnUse">
<stop stop-color="#444F1B"/>
<stop offset="0.18" stop-color="#4A561D"/>
<stop offset="0.44" stop-color="#5D6B25"/>
<stop offset="0.54" stop-color="#667529"/>
<stop offset="0.69" stop-color="#5F6D26"/>
<stop offset="0.91" stop-color="#4C581E"/>
<stop offset="1" stop-color="#444F1B"/>
</linearGradient>
<linearGradient id="paint3_linear_1_6720" x1="41.9785" y1="47.3247" x2="46.5822" y2="48.5764" gradientUnits="userSpaceOnUse">
<stop stop-color="#444F1B"/>
<stop offset="0.18" stop-color="#4A561D"/>
<stop offset="0.44" stop-color="#5D6B25"/>
<stop offset="0.54" stop-color="#667529"/>
<stop offset="0.69" stop-color="#5F6D26"/>
<stop offset="0.91" stop-color="#4C581E"/>
<stop offset="1" stop-color="#444F1B"/>
</linearGradient>
</defs>
</svg>
