<svg width="80" height="79" viewBox="0 0 80 79" fill="none" xmlns="http://www.w3.org/2000/svg">
<g opacity="0.8">
<path d="M26.3469 32.547C24.3726 36.4329 22.8445 40.5732 21.9767 44.8508C21.2621 48.3658 20.9604 52.0441 21.5321 55.6032C21.9685 58.3126 24.6354 63.5151 27.2251 64.5783C28.8794 65.2587 36.8575 68.5218 36.9807 68.566C44.3951 71.6924 55.7186 63.5682 62.5985 50.027C69.6452 36.1607 69.3639 21.8769 61.9687 18.1191C59.6815 16.9562 53.8673 14.4301 51.0139 13.6416C49.5733 13.2435 45.8532 13.5993 44.4493 14.0834C41.1785 15.2101 38.28 17.3175 35.7765 19.6661C31.8819 23.3254 28.7622 27.7972 26.3469 32.547Z" fill="url(#paint0_linear_1_6698)"/>
<path d="M52.491 14.2499C45.0966 10.492 33.3902 18.6854 26.3441 32.5502C19.298 46.4151 19.5804 60.7011 26.9749 64.459C34.3694 68.2168 46.0758 60.0235 53.1218 46.1586C60.1679 32.2938 59.8855 18.0078 52.491 14.2499Z" fill="url(#paint1_linear_1_6698)"/>
<mask id="mask0_1_6698" style="mask-type:luminance" maskUnits="userSpaceOnUse" x="23" y="23" width="27" height="33">
<path d="M44.9992 48.0006L23.6635 55.7239L27.9512 31.2438L49.2869 23.5206L44.9992 48.0006Z" fill="white"/>
</mask>
<g mask="url(#mask0_1_6698)">
<path d="M40.3597 40.8694C40.1361 42.1429 40.7398 43.0143 41.9003 42.9188C43.2925 42.803 44.9552 41.3466 45.619 39.6661C45.7257 39.3916 45.801 39.1287 45.8459 38.8803C46.0695 37.6068 45.469 36.7342 44.3022 36.832C42.9131 36.9467 41.2505 38.4031 40.5866 40.0836C40.4768 40.3592 40.4015 40.6222 40.3609 40.8725" fill="black"/>
<path d="M36.5739 30.2507C36.4889 30.7314 36.7302 31.0893 37.2232 30.9735C43.3344 29.5626 45.9811 30.9084 46.673 31.3766C47.3271 31.8193 48.03 30.6955 48.1667 29.9069C48.1741 29.8685 48.1795 29.8344 48.1806 29.7984C48.3965 27.8783 47.6188 26.4423 46.2839 25.8843C44.1644 24.9954 39.6833 26.4533 37.0132 29.4016C36.7593 29.6835 36.6151 29.9823 36.5684 30.2456" fill="black"/>
<path d="M36.2462 48.9251C36.2214 49.0626 36.258 49.192 36.3677 49.2091C39.6733 49.7112 42.6205 48.9775 43.4326 48.5632C43.5623 48.498 43.687 48.3704 43.7635 48.2283L44.2348 47.3497C44.2711 47.2829 44.2937 47.2176 44.3047 47.16C44.3431 46.9426 44.2109 46.8053 43.9822 46.8924C42.7798 47.3422 40.0864 48.1259 37.5979 47.3111C37.4364 47.2595 37.1931 47.3947 37.0417 47.6248L36.693 48.1554L36.3484 48.6773C36.2935 48.7616 36.2578 48.8495 36.2462 48.9251Z" fill="black"/>
<path d="M25.9635 42.5888C25.9507 42.6613 25.9485 42.7335 25.9578 42.7979C26.3466 45.3286 29.239 45.9888 30.5267 46.1537C30.8492 46.1965 31.2946 45.8626 31.4957 45.4359L31.7158 44.9737C31.761 44.8823 31.788 44.7903 31.8017 44.7104C31.8503 44.4429 31.7501 44.2368 31.5287 44.207C30.6262 44.0906 29.8096 43.7893 29.1123 43.3552C28.4918 42.9752 27.8838 42.5121 27.7363 41.6489C27.6892 41.3735 27.4105 41.304 27.0917 41.4668L26.8115 41.6083L26.661 41.6847C26.3119 41.8621 26.0229 42.2531 25.9615 42.5931" fill="black"/>
<path d="M29.9301 38.3001C29.7477 39.3444 30.1522 40.4813 30.4329 40.9569C30.9773 41.8714 32.0521 42.1176 33.4399 41.511C34.2212 41.1686 35.0077 40.6351 35.7537 40.0202C36.2294 39.6324 37.1691 38.8147 37.2788 38.1965C37.2805 38.1816 37.2822 38.1667 37.285 38.155C37.3628 37.4593 36.5738 37.4191 35.8909 37.8648C35.8731 37.8748 34.2704 38.7527 33.2322 38.4503C32.8279 38.3302 32.609 37.9749 32.4069 37.6169C32.1658 37.1911 32.0536 36.6005 31.419 36.6609C31.0818 36.6949 30.6548 36.8936 30.3635 37.2783C30.1262 37.5862 29.9941 37.9377 29.9301 38.3001Z" fill="black"/>
</g>
<path d="M42.7897 42.4445C41.6291 42.54 41.0255 41.6685 41.2491 40.395C41.294 40.1467 41.3681 39.8805 41.4748 39.606C41.8764 38.5852 42.6483 37.6503 43.5049 37.0449C42.3286 37.5173 41.1309 38.7325 40.5949 40.0986C40.4851 40.3743 40.4098 40.6373 40.3692 40.8876C40.1455 42.1611 40.7492 43.0325 41.9097 42.9371C42.4566 42.8908 43.0422 42.6377 43.5952 42.2466C43.3248 42.3561 43.0499 42.4243 42.7908 42.4476L42.7897 42.4445Z" fill="url(#paint2_linear_1_6698)"/>
<path d="M47.5478 30.9137C46.8547 30.4424 44.208 29.0967 38.0979 30.5107C37.6038 30.6233 37.3637 30.2685 37.4486 29.7879C37.4952 29.5247 37.6383 29.2226 37.8934 28.9439C38.6543 28.1059 39.5608 27.393 40.5168 26.8156C39.2413 27.4562 38.0014 28.3407 37.0092 29.4345C36.7552 29.7164 36.611 30.0153 36.5644 30.2785C36.4794 30.7591 36.7208 31.1171 37.2137 31.0013C43.3249 29.5904 45.9716 30.9362 46.6635 31.4043C47.0376 31.6567 47.4227 31.4019 47.7142 30.9885C47.6587 30.9731 47.6039 30.9503 47.5466 30.9106L47.5478 30.9137Z" fill="url(#paint3_linear_1_6698)"/>
<path d="M37.3959 48.8583C37.2911 48.8253 37.2497 48.7119 37.2744 48.5744C37.2892 48.4977 37.3217 48.4109 37.3766 48.3266L37.7213 47.8046L37.9713 47.4243C37.857 47.3947 37.7416 47.3619 37.625 47.326C37.4634 47.2744 37.2202 47.4096 37.0687 47.6397L36.72 48.1703L36.3754 48.6922C36.3205 48.7765 36.2848 48.8644 36.2732 48.94C36.2485 49.0775 36.2887 49.1877 36.3947 49.224C39.1419 50.1512 42.2233 49.101 43.4511 48.5741C42.0888 48.9966 39.5286 49.5783 37.3959 48.8583Z" fill="url(#paint4_linear_1_6698)"/>
<path d="M27.1146 41.4815L26.8344 41.6231L26.6839 41.6994C26.3348 41.8769 26.0458 42.2679 25.9844 42.6079C25.9716 42.6803 25.9694 42.7525 25.9787 42.8169C26.3675 45.3476 29.2599 46.0078 30.5476 46.1727C30.7008 46.1917 30.8803 46.1262 31.0508 46.0068C29.6659 45.781 27.1363 45.049 26.7757 42.6936C26.7665 42.6292 26.7687 42.557 26.7815 42.4845C26.8397 42.1457 27.1276 41.7515 27.481 41.5761L27.6315 41.4997L27.6693 41.4859C27.5514 41.3684 27.3435 41.3658 27.1146 41.4815Z" fill="url(#paint5_linear_1_6698)"/>
<path d="M33.6814 41.4182C32.6554 41.6573 31.8571 41.3671 31.414 40.6226C31.1333 40.147 30.7288 39.0101 30.9113 37.9658C30.9752 37.6035 31.1105 37.2508 31.3446 36.944C31.4223 36.8443 31.5079 36.756 31.6011 36.6791C31.5533 36.6751 31.5043 36.668 31.4493 36.6738C31.112 36.7078 30.685 36.9065 30.3937 37.2912C30.1565 37.5991 30.0244 37.9507 29.9604 38.313C29.778 39.3574 30.1824 40.4943 30.4631 40.9698C31.0076 41.8843 32.0824 42.1306 33.4702 41.5239C33.5414 41.4943 33.6144 41.4498 33.6845 41.4171L33.6814 41.4182Z" fill="url(#paint6_linear_1_6698)"/>
</g>
<defs>
<linearGradient id="paint0_linear_1_6698" x1="32.503" y1="67.0326" x2="56.4547" y2="15.5262" gradientUnits="userSpaceOnUse">
<stop stop-color="#586324"/>
<stop offset="0.04" stop-color="#5D6926"/>
<stop offset="0.09" stop-color="#6D7C2C"/>
<stop offset="0.14" stop-color="#839635"/>
<stop offset="0.49" stop-color="#C8E651"/>
<stop offset="0.56" stop-color="#C1DF4F"/>
<stop offset="0.65" stop-color="#B1CB4B"/>
<stop offset="0.77" stop-color="#95AC45"/>
<stop offset="0.81" stop-color="#899E43"/>
<stop offset="0.85" stop-color="#8DA244"/>
<stop offset="0.9" stop-color="#98B04A"/>
<stop offset="0.95" stop-color="#ACC654"/>
<stop offset="1" stop-color="#C8E662"/>
</linearGradient>
<linearGradient id="paint1_linear_1_6698" x1="51.9612" y1="49.5923" x2="27.502" y2="29.1121" gradientUnits="userSpaceOnUse">
<stop stop-color="#DFF49A"/>
<stop offset="0.1" stop-color="#D8F47D"/>
<stop offset="0.26" stop-color="#CFF459"/>
<stop offset="0.38" stop-color="#C9F443"/>
<stop offset="0.46" stop-color="#C8F43B"/>
<stop offset="0.57" stop-color="#C4EE3B"/>
<stop offset="0.69" stop-color="#B9DF3C"/>
<stop offset="0.83" stop-color="#A7C73F"/>
<stop offset="0.97" stop-color="#8EA542"/>
<stop offset="1" stop-color="#899E43"/>
</linearGradient>
<linearGradient id="paint2_linear_1_6698" x1="43.0794" y1="42.6027" x2="41.3399" y2="37.8391" gradientUnits="userSpaceOnUse">
<stop stop-color="#444F1B"/>
<stop offset="0.18" stop-color="#4A561D"/>
<stop offset="0.44" stop-color="#5D6B25"/>
<stop offset="0.54" stop-color="#667529"/>
<stop offset="0.69" stop-color="#5F6D26"/>
<stop offset="0.91" stop-color="#4C581E"/>
<stop offset="1" stop-color="#444F1B"/>
</linearGradient>
<linearGradient id="paint3_linear_1_6698" x1="42.9395" y1="33.0104" x2="40.6573" y2="26.7607" gradientUnits="userSpaceOnUse">
<stop stop-color="#444F1B"/>
<stop offset="0.18" stop-color="#4A561D"/>
<stop offset="0.44" stop-color="#5D6B25"/>
<stop offset="0.54" stop-color="#667529"/>
<stop offset="0.69" stop-color="#5F6D26"/>
<stop offset="0.91" stop-color="#4C581E"/>
<stop offset="1" stop-color="#444F1B"/>
</linearGradient>
<linearGradient id="paint4_linear_1_6698" x1="40.2087" y1="49.7795" x2="39.0947" y2="46.7286" gradientUnits="userSpaceOnUse">
<stop stop-color="#444F1B"/>
<stop offset="0.18" stop-color="#4A561D"/>
<stop offset="0.44" stop-color="#5D6B25"/>
<stop offset="0.54" stop-color="#667529"/>
<stop offset="0.69" stop-color="#5F6D26"/>
<stop offset="0.91" stop-color="#4C581E"/>
<stop offset="1" stop-color="#444F1B"/>
</linearGradient>
<linearGradient id="paint5_linear_1_6698" x1="29.3109" y1="46.685" x2="27.3736" y2="41.3798" gradientUnits="userSpaceOnUse">
<stop stop-color="#444F1B"/>
<stop offset="0.18" stop-color="#4A561D"/>
<stop offset="0.44" stop-color="#5D6B25"/>
<stop offset="0.54" stop-color="#667529"/>
<stop offset="0.69" stop-color="#5F6D26"/>
<stop offset="0.91" stop-color="#4C581E"/>
<stop offset="1" stop-color="#444F1B"/>
</linearGradient>
<linearGradient id="paint6_linear_1_6698" x1="32.3213" y1="41.9541" x2="30.5036" y2="36.9764" gradientUnits="userSpaceOnUse">
<stop stop-color="#444F1B"/>
<stop offset="0.18" stop-color="#4A561D"/>
<stop offset="0.44" stop-color="#5D6B25"/>
<stop offset="0.54" stop-color="#667529"/>
<stop offset="0.69" stop-color="#5F6D26"/>
<stop offset="0.91" stop-color="#4C581E"/>
<stop offset="1" stop-color="#444F1B"/>
</linearGradient>
</defs>
</svg>
